SplineFontDB: 3.2
FontName: Sorazora-Regular
FullName: Sorazora
FamilyName: Sorazora
Weight: Regular
Copyright: Copyright (c) 2023 Maxwell Kussmann
UComments: "Created for Xymyric 9. Drawn in Inkscape and compiled using FontForge."
FontLog: "Sorazora is a serif font designed for the 9th Edition of the Xymyric alphabet. It includes two styles (Roman, Italic) for one weight (Regular). The design of the serifs is inspired by Han characters and is descended from Xymyric 8. The most noticeable feature compared to V8 is the thin headline and shallow pen angle. This font can be regarded as a transitional style. The direction of the serifs is flipped to reflect the pen angle, which is opposite that of V8. The contextual substitution rules follow those outlined in the Unicode PUA, Contextual and Ligature Guidelines for Xymyric 9, included within the font source folder.+AAoACgAA-This font:+AAoA    sorazora_serif_w4.otf+AAoACgAA-Versions 0.1-0.5: Drawing phase.+AAoA-Version 1.0: FontForge project created.+AAoA    - Glyphs imported:"
Version: 001.000
DefaultBaseFilename: sorazora_serif_w4
ItalicAngle: 0
UnderlinePosition: -79
UnderlineWidth: 39
Ascent: 735
Descent: 265
InvalidEm: 0
LayerCount: 2
Layer: 0 0 "Back" 1
Layer: 1 0 "Fore" 0
XUID: [1021 177 139733406 4461]
FSType: 0
OS2Version: 0
OS2_WeightWidthSlopeOnly: 0
OS2_UseTypoMetrics: 1
CreationTime: 1673642421
ModificationTime: 1673675597
PfmFamily: 17
TTFWeight: 400
TTFWidth: 5
LineGap: 72
VLineGap: 0
OS2TypoAscent: 0
OS2TypoAOffset: 1
OS2TypoDescent: 0
OS2TypoDOffset: 1
OS2TypoLinegap: 72
OS2WinAscent: 0
OS2WinAOffset: 1
OS2WinDescent: 0
OS2WinDOffset: 1
HheadAscent: 0
HheadAOffset: 1
HheadDescent: 0
HheadDOffset: 1
OS2Vendor: 'PfEd'
MarkAttachClasses: 1
DEI: 91125
LangName: 1033
GaspTable: 3 9 10 16 5 65535 15 1
Encoding: ISO8859-1
UnicodeInterp: none
NameList: AGL For New Fonts
DisplaySize: -96
AntiAlias: 1
FitToEm: 0
WinInfo: 30 10 7
BeginPrivate: 11
BlueValues 2 []
BlueScale 8 0.039625
BlueShift 1 2
StdHW 4 [18]

StartChar: H
Encoding: 72 72 0
Width: 321
VWidth: 800
Flags: HW
HStem: -188 86<0 17 305 322> -188 17<17 70 83 154 167 238 250 305> -85 77<0 17 305 322> 14 82<0 17 305 322> 108 79<0 17 305 322> 126 8<62 76 115 132 206 220> 170 8<45 50 60 78 87 98 108 132 142 153 162 173 183 194 204 222 231 246 253 278 278 281> 204 86<0 17 305 322> 228 9<113 131> 248 9<268 288> 274 8<62 75 102 114 146 158 172 196 226 238 247 258> 306 77<0 17 305 322> 405 81<0 17 305 322> 498 17G<0 17 305 322> 570 18<17 70 83 154 167 238 250 305>
VStem: 0 70<-188 -171 570 588> 0 17<-171 -102 -85 -8 10 90 108 187 204 290 306 383 401 481 498 570> 53 10<134 170 229 274> 75 10<134 170 205 273> 83 71<-188 -171 570 588> 98 10<136 170> 103 10<207 214> 117 10<250 272> 127 14<193 202> 132 10<126 129 134 170 178 198 229 236 239 274> 153 10<126 170> 158 10<204 231 238 270> 164 2<117 118> 167 70<-188 -171 570 588> 173 10<101 170 178 200> 194 10<135 170> 216 10<204 274> 222 10<135 170> 238 10<230 274> 250 71<-188 -171 570 588> 258 10<204 249 256 274> 305 17<-171 -98 -81 -4 14 95 112 191 209 294 311 387 405 486 502 570>
LayerCount: 2
Fore
SplineSet
0 481 m 1x301e80
 17 482 l 1
 17 401 l 1
 0 400 l 1
 0 481 l 1x301e80
0 383 m 1
 17 383 l 1
 17 306 l 1
 0 306 l 1
 0 383 l 1
0 290 m 1x311e80
 17 290 l 1
 17 204 l 1
 0 204 l 1
 0 290 l 1x311e80
0 187 m 1x381e80
 17 187 l 1
 17 108 l 1
 0 108 l 1
 0 187 l 1x381e80
0 90 m 1
 17 91 l 1
 17 10 l 1
 0 10 l 1
 0 90 l 1
0 -8 m 1
 17 -8 l 1
 17 -85 l 1
 0 -85 l 1
 0 -8 l 1
0 -102 m 1xb01e80
 17 -102 l 1xb01e80
 17 -171 l 1x701e80
 70 -171 l 1
 70 -188 l 1x701f
 0 -188 l 1xb01f
 0 -102 l 1xb01e80
0 588 m 1x301f
 70 588 l 1
 70 570 l 1x301f
 17 570 l 1
 17 498 l 1
 0 498 l 1x301e80
 0 528 0 558 0 588 c 1x301f
83 588 m 1x301e10
 154 588 l 1
 154 570 l 1
 83 570 l 1
 83 588 l 1x301e10
167 588 m 1x301e0008
 238 588 l 1
 238 570 l 1
 167 570 l 1
 167 588 l 1x301e0008
250 588 m 1x301e000020
 322 588 l 1x301e000020
 322 502 l 1
 305 502 l 1
 305 570 l 1x301e000008
 250 570 l 1
 250 588 l 1x301e000020
322 486 m 1x301e000008
 322 405 l 1
 305 405 l 1
 305 486 l 1
 322 486 l 1x301e000008
322 387 m 1
 322 311 l 1
 305 310 l 1
 305 387 l 1
 322 387 l 1
322 294 m 1
 322 209 l 1
 305 208 l 1
 305 294 l 1
 322 294 l 1
132 280 m 2x30be0aa0
 133 281 133 280 144 286 c 1
 144 287 l 1
 146 285 146 286 147 282 c 1
 156 282 l 1
 158 283 158 283 168 285 c 1
 168 276 l 1
 174 278 180 280 186 282 c 1
 191 282 l 2
 212 282 217 249 184 235 c 0
 180 234 167 229 167 229 c 2
 167 206 l 1
 160 203 161 203 158 202 c 1
 158 274 l 1
 146 274 l 1
 146 231 l 1
 143 229 140 229 137 228 c 1
 137 236 l 1
 135 235 134 234 132 233 c 0
 127 231 123 230 118 228 c 0
 112 228 97 228 91 240 c 1
 91 243 l 1
 99 245 100 246 100 246 c 0
 112 246 117 254 117 262 c 0
 117 267 115 275 102 275 c 1
 102 280 l 1
 105 280 107 282 108 282 c 2
 110 282 l 2
 112 282 127 282 127 262 c 0
 127 247 114 242 106 239 c 1
 113 237 113 237 114 237 c 0
 123 235 134 242 137 250 c 1
 137 273 l 2
 137 273 132 278 132 279 c 2
 132 280 l 2x30be0aa0
48 280 m 2
 49 281 49 280 60 286 c 0
 63 282 l 2
 74 282 l 1
 76 283 76 283 86 285 c 1
 85 282 85 278 85 273 c 2
 85 206 l 1
 78 203 78 203 75 202 c 1
 75 274 l 1
 62 274 l 1
 62 231 l 1
 59 229 56 229 53 228 c 1
 53 273 l 1x30be60
 50 278 48 277 48 279 c 2
 48 280 l 2
211 281 m 0
 214 283 222 286 222 286 c 0
 224 284 224 285 226 282 c 1
 257 282 l 1
 259 283 259 283 269 285 c 1
 269 283 268 280 268 276 c 2
 268 256 l 1
 270 256 l 2
 275 256 280 257 284 257 c 2
 289 257 l 1
 289 256 288 253 286 247 c 0
 285 247 284 248 282 248 c 0
 280 248 275 249 268 249 c 1
 268 206 l 1
 261 203 261 203 258 202 c 1
 258 274 l 1
 247 274 l 1
 247 231 l 1
 240 228 241 228 238 227 c 1
 238 274 l 1
 226 274 l 1
 226 206 l 1
 219 203 219 203 216 202 c 1
 216 273 l 1x307e000150
 211 278 211 277 211 279 c 0
 211 280 211 280 211 281 c 0
170 238 m 0
 195 242 197 262 197 262 c 0
 198 264 200 274 185 274 c 0
 179 274 169 269 167 267 c 1
 167 238 l 1x301e0020
 168 238 169 238 170 238 c 0
117 220 m 0x311e06
 118 220 117 221 118 221 c 0
 119 221 120 221 120 220 c 2
 120 218 l 2
 120 216 120 216 114 204 c 1
 114 202 l 2
 114 201 113 201 113 201 c 2
 112 200 111 200 111 200 c 0
 109 206 103 219 103 219 c 2
 103 220 l 2
 103 221 105 221 106 221 c 0
 106 221 107 220 112 217 c 0
 113 217 113 218 114 218 c 0
 116 218 115 220 117 220 c 0x311e06
173 193 m 2x371e0084
 169 198 l 2
 169 200 l 1
 170 200 l 1
 175 202 179 203 183 204 c 1
 183 178 l 1
 278 178 l 1
 278 178 280 179 282 179 c 0
 284 179 284 178 284 178 c 2
 284 177 283 176 281 170 c 1
 278 171 276 171 274 171 c 0
 269 172 266 172 263 171 c 0
 261 171 250 167 250 158 c 2
 250 153 l 2
 250 153 252 129 281 134 c 1
 281 129 l 1
 278 129 276 126 274 126 c 0
 270 125 266 126 263 126 c 0
 240 126 233 157 246 170 c 1
 231 170 l 1
 231 141 l 1
 227 127 210 126 210 126 c 0
 196 126 194 138 194 142 c 2
 194 170 l 1
 183 170 l 1
 183 103 l 1
 180 101 177 100 173 99 c 1
 173 170 l 1
 162 170 l 1
 162 128 l 1
 159 126 157 126 153 125 c 1
 153 170 l 1
 142 170 l 1
 142 137 l 1
 144 135 144 133 144 133 c 2
 145 131 146 131 146 130 c 2
 145 129 l 1
 145 128 l 1
 142 126 138 126 134 125 c 1
 134 126 133 126 133 127 c 2
 133 129 l 1
 130 127 119 125 114 125 c 0
 99 125 98 142 98 144 c 2
 98 170 l 1
 87 170 l 1
 87 141 l 1
 83 127 66 126 66 126 c 0
 57 124 50 132 50 142 c 2
 50 170 l 1
 31 170 l 2
 29 171 l 0
 29 174 29 175 42 186 c 1
 44 184 46 181 48 178 c 1
 132 178 l 1
 132 193 l 1x371e08c680
 127 198 127 197 127 198 c 0x371e01
 128 200 128 201 140 203 c 0
 141 203 141 204 141 204 c 1
 142 204 l 1
 142 178 l 1
 173 178 l 1
 173 193 l 2x371e0084
322 191 m 1x301e000008
 322 112 l 1
 305 112 l 1
 305 191 l 1
 322 191 l 1x301e000008
69 134 m 0x361e
 74 134 78 136 78 143 c 2
 78 170 l 1
 60 170 l 1
 60 161 60 154 60 145 c 0
 60 134 68 134 69 134 c 0x361e
108 170 m 1x361e0880
 108 146 l 2
 108 144 111 136 114 134 c 0
 116 133 119 134 123 134 c 2
 126 134 l 1
 128 135 130 136 132 138 c 1
 132 170 l 1
 108 170 l 1x361e0880
213 134 m 0
 216 134 222 134 222 143 c 2
 222 170 l 1
 204 170 l 1
 204 147 l 2x361e000280
 204 143 204 134 213 134 c 0
151 118 m 2
 151 118 152 117 158 114 c 1x301e0020
 158 114 160 115 163 117 c 0
 164 117 l 0
 164 118 l 0
 165 118 166 118 166 117 c 2
 166 114 l 1x301e0010
 161 104 160 104 159 101 c 1
 159 99 l 2
 159 98 158 98 158 98 c 2
 157 97 157 97 157 98 c 0
 156 100 155 102 149 116 c 1
 149 117 l 2
 149 118 150 118 151 118 c 2
322 95 m 1x301e000008
 322 14 l 1
 305 14 l 1
 305 95 l 1
 322 95 l 1x301e000008
322 -4 m 1
 322 -81 l 1
 305 -81 l 1
 305 -4 l 1
 322 -4 l 1
322 -98 m 1
 322 -188 l 1xb01e000020
 250 -188 l 1
 250 -171 l 1x701e000020
 305 -171 l 1x701e000008
 305 -98 l 1
 322 -98 l 1
83 -171 m 1x701e10
 154 -171 l 1
 154 -188 l 1
 83 -188 l 1
 83 -171 l 1x701e10
167 -171 m 1x701e0008
 238 -171 l 1
 238 -188 l 1
 167 -188 l 1
 167 -171 l 1x701e0008
EndSplineSet
EndChar

StartChar: A
Encoding: 65 65 1
Width: 321
VWidth: 800
Flags: HW
HStem: -188 86<0 17 305 322> -188 17<17 70 83 154 167 238 250 305> -85 77<0 17 305 322> 14 82<0 17 305 322> 108 79<0 17 305 322> 126 8<62 76 115 132 206 220> 170 8<45 50 60 78 87 98 108 132 142 153 162 173 183 194 204 222 231 246 253 278 278 281> 204 86<0 17 305 322> 228 9<113 131> 248 9<268 288> 274 8<62 75 102 114 146 158 172 196 226 238 247 258> 306 77<0 17 305 322> 405 81<0 17 305 322> 498 17G<0 17 305 322> 570 18<17 70 83 154 167 238 250 305>
VStem: 0 70<-188 -171 570 588> 0 17<-171 -102 -85 -8 10 90 108 187 204 290 306 383 401 481 498 570> 53 10<134 170 229 274> 75 10<134 170 205 273> 83 71<-188 -171 570 588> 98 10<136 170> 103 10<207 214> 117 10<250 272> 127 14<193 202> 132 10<126 129 134 170 178 198 229 236 239 274> 153 10<126 170> 158 10<204 231 238 270> 164 2<117 118> 167 70<-188 -171 570 588> 173 10<101 170 178 200> 194 10<135 170> 216 10<204 274> 222 10<135 170> 238 10<230 274> 250 71<-188 -171 570 588> 258 10<204 249 256 274> 305 17<-171 -98 -81 -4 14 95 112 191 209 294 311 387 405 486 502 570>
LayerCount: 2
Fore
SplineSet
0 481 m 1x301e80
 17 482 l 1
 17 401 l 1
 0 400 l 1
 0 481 l 1x301e80
0 383 m 1
 17 383 l 1
 17 306 l 1
 0 306 l 1
 0 383 l 1
0 290 m 1x311e80
 17 290 l 1
 17 204 l 1
 0 204 l 1
 0 290 l 1x311e80
0 187 m 1x381e80
 17 187 l 1
 17 108 l 1
 0 108 l 1
 0 187 l 1x381e80
0 90 m 1
 17 91 l 1
 17 10 l 1
 0 10 l 1
 0 90 l 1
0 -8 m 1
 17 -8 l 1
 17 -85 l 1
 0 -85 l 1
 0 -8 l 1
0 -102 m 1xb01e80
 17 -102 l 1xb01e80
 17 -171 l 1x701e80
 70 -171 l 1
 70 -188 l 1x701f
 0 -188 l 1xb01f
 0 -102 l 1xb01e80
0 588 m 1x301f
 70 588 l 1
 70 570 l 1x301f
 17 570 l 1
 17 498 l 1
 0 498 l 1x301e80
 0 528 0 558 0 588 c 1x301f
83 588 m 1x301e10
 154 588 l 1
 154 570 l 1
 83 570 l 1
 83 588 l 1x301e10
167 588 m 1x301e0008
 238 588 l 1
 238 570 l 1
 167 570 l 1
 167 588 l 1x301e0008
250 588 m 1x301e000020
 322 588 l 1x301e000020
 322 502 l 1
 305 502 l 1
 305 570 l 1x301e000008
 250 570 l 1
 250 588 l 1x301e000020
322 486 m 1x301e000008
 322 405 l 1
 305 405 l 1
 305 486 l 1
 322 486 l 1x301e000008
322 387 m 1
 322 311 l 1
 305 310 l 1
 305 387 l 1
 322 387 l 1
322 294 m 1
 322 209 l 1
 305 208 l 1
 305 294 l 1
 322 294 l 1
132 280 m 2x30be0aa0
 133 281 133 280 144 286 c 1
 144 287 l 1
 146 285 146 286 147 282 c 1
 156 282 l 1
 158 283 158 283 168 285 c 1
 168 276 l 1
 174 278 180 280 186 282 c 1
 191 282 l 2
 212 282 217 249 184 235 c 0
 180 234 167 229 167 229 c 2
 167 206 l 1
 160 203 161 203 158 202 c 1
 158 274 l 1
 146 274 l 1
 146 231 l 1
 143 229 140 229 137 228 c 1
 137 236 l 1
 135 235 134 234 132 233 c 0
 127 231 123 230 118 228 c 0
 112 228 97 228 91 240 c 1
 91 243 l 1
 99 245 100 246 100 246 c 0
 112 246 117 254 117 262 c 0
 117 267 115 275 102 275 c 1
 102 280 l 1
 105 280 107 282 108 282 c 2
 110 282 l 2
 112 282 127 282 127 262 c 0
 127 247 114 242 106 239 c 1
 113 237 113 237 114 237 c 0
 123 235 134 242 137 250 c 1
 137 273 l 2
 137 273 132 278 132 279 c 2
 132 280 l 2x30be0aa0
48 280 m 2
 49 281 49 280 60 286 c 0
 63 282 l 2
 74 282 l 1
 76 283 76 283 86 285 c 1
 85 282 85 278 85 273 c 2
 85 206 l 1
 78 203 78 203 75 202 c 1
 75 274 l 1
 62 274 l 1
 62 231 l 1
 59 229 56 229 53 228 c 1
 53 273 l 1x30be60
 50 278 48 277 48 279 c 2
 48 280 l 2
211 281 m 0
 214 283 222 286 222 286 c 0
 224 284 224 285 226 282 c 1
 257 282 l 1
 259 283 259 283 269 285 c 1
 269 283 268 280 268 276 c 2
 268 256 l 1
 270 256 l 2
 275 256 280 257 284 257 c 2
 289 257 l 1
 289 256 288 253 286 247 c 0
 285 247 284 248 282 248 c 0
 280 248 275 249 268 249 c 1
 268 206 l 1
 261 203 261 203 258 202 c 1
 258 274 l 1
 247 274 l 1
 247 231 l 1
 240 228 241 228 238 227 c 1
 238 274 l 1
 226 274 l 1
 226 206 l 1
 219 203 219 203 216 202 c 1
 216 273 l 1x307e000150
 211 278 211 277 211 279 c 0
 211 280 211 280 211 281 c 0
170 238 m 0
 195 242 197 262 197 262 c 0
 198 264 200 274 185 274 c 0
 179 274 169 269 167 267 c 1
 167 238 l 1x301e0020
 168 238 169 238 170 238 c 0
117 220 m 0x311e06
 118 220 117 221 118 221 c 0
 119 221 120 221 120 220 c 2
 120 218 l 2
 120 216 120 216 114 204 c 1
 114 202 l 2
 114 201 113 201 113 201 c 2
 112 200 111 200 111 200 c 0
 109 206 103 219 103 219 c 2
 103 220 l 2
 103 221 105 221 106 221 c 0
 106 221 107 220 112 217 c 0
 113 217 113 218 114 218 c 0
 116 218 115 220 117 220 c 0x311e06
173 193 m 2x371e0084
 169 198 l 2
 169 200 l 1
 170 200 l 1
 175 202 179 203 183 204 c 1
 183 178 l 1
 278 178 l 1
 278 178 280 179 282 179 c 0
 284 179 284 178 284 178 c 2
 284 177 283 176 281 170 c 1
 278 171 276 171 274 171 c 0
 269 172 266 172 263 171 c 0
 261 171 250 167 250 158 c 2
 250 153 l 2
 250 153 252 129 281 134 c 1
 281 129 l 1
 278 129 276 126 274 126 c 0
 270 125 266 126 263 126 c 0
 240 126 233 157 246 170 c 1
 231 170 l 1
 231 141 l 1
 227 127 210 126 210 126 c 0
 196 126 194 138 194 142 c 2
 194 170 l 1
 183 170 l 1
 183 103 l 1
 180 101 177 100 173 99 c 1
 173 170 l 1
 162 170 l 1
 162 128 l 1
 159 126 157 126 153 125 c 1
 153 170 l 1
 142 170 l 1
 142 137 l 1
 144 135 144 133 144 133 c 2
 145 131 146 131 146 130 c 2
 145 129 l 1
 145 128 l 1
 142 126 138 126 134 125 c 1
 134 126 133 126 133 127 c 2
 133 129 l 1
 130 127 119 125 114 125 c 0
 99 125 98 142 98 144 c 2
 98 170 l 1
 87 170 l 1
 87 141 l 1
 83 127 66 126 66 126 c 0
 57 124 50 132 50 142 c 2
 50 170 l 1
 31 170 l 2
 29 171 l 0
 29 174 29 175 42 186 c 1
 44 184 46 181 48 178 c 1
 132 178 l 1
 132 193 l 1x371e08c680
 127 198 127 197 127 198 c 0x371e01
 128 200 128 201 140 203 c 0
 141 203 141 204 141 204 c 1
 142 204 l 1
 142 178 l 1
 173 178 l 1
 173 193 l 2x371e0084
322 191 m 1x301e000008
 322 112 l 1
 305 112 l 1
 305 191 l 1
 322 191 l 1x301e000008
69 134 m 0x361e
 74 134 78 136 78 143 c 2
 78 170 l 1
 60 170 l 1
 60 161 60 154 60 145 c 0
 60 134 68 134 69 134 c 0x361e
108 170 m 1x361e0880
 108 146 l 2
 108 144 111 136 114 134 c 0
 116 133 119 134 123 134 c 2
 126 134 l 1
 128 135 130 136 132 138 c 1
 132 170 l 1
 108 170 l 1x361e0880
213 134 m 0
 216 134 222 134 222 143 c 2
 222 170 l 1
 204 170 l 1
 204 147 l 2x361e000280
 204 143 204 134 213 134 c 0
151 118 m 2
 151 118 152 117 158 114 c 1x301e0020
 158 114 160 115 163 117 c 0
 164 117 l 0
 164 118 l 0
 165 118 166 118 166 117 c 2
 166 114 l 1x301e0010
 161 104 160 104 159 101 c 1
 159 99 l 2
 159 98 158 98 158 98 c 2
 157 97 157 97 157 98 c 0
 156 100 155 102 149 116 c 1
 149 117 l 2
 149 118 150 118 151 118 c 2
322 95 m 1x301e000008
 322 14 l 1
 305 14 l 1
 305 95 l 1
 322 95 l 1x301e000008
322 -4 m 1
 322 -81 l 1
 305 -81 l 1
 305 -4 l 1
 322 -4 l 1
322 -98 m 1
 322 -188 l 1xb01e000020
 250 -188 l 1
 250 -171 l 1x701e000020
 305 -171 l 1x701e000008
 305 -98 l 1
 322 -98 l 1
83 -171 m 1x701e10
 154 -171 l 1
 154 -188 l 1
 83 -188 l 1
 83 -171 l 1x701e10
167 -171 m 1x701e0008
 238 -171 l 1
 238 -188 l 1
 167 -188 l 1
 167 -171 l 1x701e0008
EndSplineSet
EndChar

StartChar: B
Encoding: 66 66 2
Width: 321
VWidth: 800
Flags: HW
HStem: -188 86<0 17 305 322> -188 17<17 70 83 154 167 238 250 305> -85 77<0 17 305 322> 14 82<0 17 305 322> 108 79<0 17 305 322> 126 8<62 76 115 132 206 220> 170 8<45 50 60 78 87 98 108 132 142 153 162 173 183 194 204 222 231 246 253 278 278 281> 204 86<0 17 305 322> 228 9<113 131> 248 9<268 288> 274 8<62 75 102 114 146 158 172 196 226 238 247 258> 306 77<0 17 305 322> 405 81<0 17 305 322> 498 17G<0 17 305 322> 570 18<17 70 83 154 167 238 250 305>
VStem: 0 70<-188 -171 570 588> 0 17<-171 -102 -85 -8 10 90 108 187 204 290 306 383 401 481 498 570> 53 10<134 170 229 274> 75 10<134 170 205 273> 83 71<-188 -171 570 588> 98 10<136 170> 103 10<207 214> 117 10<250 272> 127 14<193 202> 132 10<126 129 134 170 178 198 229 236 239 274> 153 10<126 170> 158 10<204 231 238 270> 164 2<117 118> 167 70<-188 -171 570 588> 173 10<101 170 178 200> 194 10<135 170> 216 10<204 274> 222 10<135 170> 238 10<230 274> 250 71<-188 -171 570 588> 258 10<204 249 256 274> 305 17<-171 -98 -81 -4 14 95 112 191 209 294 311 387 405 486 502 570>
LayerCount: 2
Fore
SplineSet
0 481 m 1x301e80
 17 482 l 1
 17 401 l 1
 0 400 l 1
 0 481 l 1x301e80
0 383 m 1
 17 383 l 1
 17 306 l 1
 0 306 l 1
 0 383 l 1
0 290 m 1x311e80
 17 290 l 1
 17 204 l 1
 0 204 l 1
 0 290 l 1x311e80
0 187 m 1x381e80
 17 187 l 1
 17 108 l 1
 0 108 l 1
 0 187 l 1x381e80
0 90 m 1
 17 91 l 1
 17 10 l 1
 0 10 l 1
 0 90 l 1
0 -8 m 1
 17 -8 l 1
 17 -85 l 1
 0 -85 l 1
 0 -8 l 1
0 -102 m 1xb01e80
 17 -102 l 1xb01e80
 17 -171 l 1x701e80
 70 -171 l 1
 70 -188 l 1x701f
 0 -188 l 1xb01f
 0 -102 l 1xb01e80
0 588 m 1x301f
 70 588 l 1
 70 570 l 1x301f
 17 570 l 1
 17 498 l 1
 0 498 l 1x301e80
 0 528 0 558 0 588 c 1x301f
83 588 m 1x301e10
 154 588 l 1
 154 570 l 1
 83 570 l 1
 83 588 l 1x301e10
167 588 m 1x301e0008
 238 588 l 1
 238 570 l 1
 167 570 l 1
 167 588 l 1x301e0008
250 588 m 1x301e000020
 322 588 l 1x301e000020
 322 502 l 1
 305 502 l 1
 305 570 l 1x301e000008
 250 570 l 1
 250 588 l 1x301e000020
322 486 m 1x301e000008
 322 405 l 1
 305 405 l 1
 305 486 l 1
 322 486 l 1x301e000008
322 387 m 1
 322 311 l 1
 305 310 l 1
 305 387 l 1
 322 387 l 1
322 294 m 1
 322 209 l 1
 305 208 l 1
 305 294 l 1
 322 294 l 1
132 280 m 2x30be0aa0
 133 281 133 280 144 286 c 1
 144 287 l 1
 146 285 146 286 147 282 c 1
 156 282 l 1
 158 283 158 283 168 285 c 1
 168 276 l 1
 174 278 180 280 186 282 c 1
 191 282 l 2
 212 282 217 249 184 235 c 0
 180 234 167 229 167 229 c 2
 167 206 l 1
 160 203 161 203 158 202 c 1
 158 274 l 1
 146 274 l 1
 146 231 l 1
 143 229 140 229 137 228 c 1
 137 236 l 1
 135 235 134 234 132 233 c 0
 127 231 123 230 118 228 c 0
 112 228 97 228 91 240 c 1
 91 243 l 1
 99 245 100 246 100 246 c 0
 112 246 117 254 117 262 c 0
 117 267 115 275 102 275 c 1
 102 280 l 1
 105 280 107 282 108 282 c 2
 110 282 l 2
 112 282 127 282 127 262 c 0
 127 247 114 242 106 239 c 1
 113 237 113 237 114 237 c 0
 123 235 134 242 137 250 c 1
 137 273 l 2
 137 273 132 278 132 279 c 2
 132 280 l 2x30be0aa0
48 280 m 2
 49 281 49 280 60 286 c 0
 63 282 l 2
 74 282 l 1
 76 283 76 283 86 285 c 1
 85 282 85 278 85 273 c 2
 85 206 l 1
 78 203 78 203 75 202 c 1
 75 274 l 1
 62 274 l 1
 62 231 l 1
 59 229 56 229 53 228 c 1
 53 273 l 1x30be60
 50 278 48 277 48 279 c 2
 48 280 l 2
211 281 m 0
 214 283 222 286 222 286 c 0
 224 284 224 285 226 282 c 1
 257 282 l 1
 259 283 259 283 269 285 c 1
 269 283 268 280 268 276 c 2
 268 256 l 1
 270 256 l 2
 275 256 280 257 284 257 c 2
 289 257 l 1
 289 256 288 253 286 247 c 0
 285 247 284 248 282 248 c 0
 280 248 275 249 268 249 c 1
 268 206 l 1
 261 203 261 203 258 202 c 1
 258 274 l 1
 247 274 l 1
 247 231 l 1
 240 228 241 228 238 227 c 1
 238 274 l 1
 226 274 l 1
 226 206 l 1
 219 203 219 203 216 202 c 1
 216 273 l 1x307e000150
 211 278 211 277 211 279 c 0
 211 280 211 280 211 281 c 0
170 238 m 0
 195 242 197 262 197 262 c 0
 198 264 200 274 185 274 c 0
 179 274 169 269 167 267 c 1
 167 238 l 1x301e0020
 168 238 169 238 170 238 c 0
117 220 m 0x311e06
 118 220 117 221 118 221 c 0
 119 221 120 221 120 220 c 2
 120 218 l 2
 120 216 120 216 114 204 c 1
 114 202 l 2
 114 201 113 201 113 201 c 2
 112 200 111 200 111 200 c 0
 109 206 103 219 103 219 c 2
 103 220 l 2
 103 221 105 221 106 221 c 0
 106 221 107 220 112 217 c 0
 113 217 113 218 114 218 c 0
 116 218 115 220 117 220 c 0x311e06
173 193 m 2x371e0084
 169 198 l 2
 169 200 l 1
 170 200 l 1
 175 202 179 203 183 204 c 1
 183 178 l 1
 278 178 l 1
 278 178 280 179 282 179 c 0
 284 179 284 178 284 178 c 2
 284 177 283 176 281 170 c 1
 278 171 276 171 274 171 c 0
 269 172 266 172 263 171 c 0
 261 171 250 167 250 158 c 2
 250 153 l 2
 250 153 252 129 281 134 c 1
 281 129 l 1
 278 129 276 126 274 126 c 0
 270 125 266 126 263 126 c 0
 240 126 233 157 246 170 c 1
 231 170 l 1
 231 141 l 1
 227 127 210 126 210 126 c 0
 196 126 194 138 194 142 c 2
 194 170 l 1
 183 170 l 1
 183 103 l 1
 180 101 177 100 173 99 c 1
 173 170 l 1
 162 170 l 1
 162 128 l 1
 159 126 157 126 153 125 c 1
 153 170 l 1
 142 170 l 1
 142 137 l 1
 144 135 144 133 144 133 c 2
 145 131 146 131 146 130 c 2
 145 129 l 1
 145 128 l 1
 142 126 138 126 134 125 c 1
 134 126 133 126 133 127 c 2
 133 129 l 1
 130 127 119 125 114 125 c 0
 99 125 98 142 98 144 c 2
 98 170 l 1
 87 170 l 1
 87 141 l 1
 83 127 66 126 66 126 c 0
 57 124 50 132 50 142 c 2
 50 170 l 1
 31 170 l 2
 29 171 l 0
 29 174 29 175 42 186 c 1
 44 184 46 181 48 178 c 1
 132 178 l 1
 132 193 l 1x371e08c680
 127 198 127 197 127 198 c 0x371e01
 128 200 128 201 140 203 c 0
 141 203 141 204 141 204 c 1
 142 204 l 1
 142 178 l 1
 173 178 l 1
 173 193 l 2x371e0084
322 191 m 1x301e000008
 322 112 l 1
 305 112 l 1
 305 191 l 1
 322 191 l 1x301e000008
69 134 m 0x361e
 74 134 78 136 78 143 c 2
 78 170 l 1
 60 170 l 1
 60 161 60 154 60 145 c 0
 60 134 68 134 69 134 c 0x361e
108 170 m 1x361e0880
 108 146 l 2
 108 144 111 136 114 134 c 0
 116 133 119 134 123 134 c 2
 126 134 l 1
 128 135 130 136 132 138 c 1
 132 170 l 1
 108 170 l 1x361e0880
213 134 m 0
 216 134 222 134 222 143 c 2
 222 170 l 1
 204 170 l 1
 204 147 l 2x361e000280
 204 143 204 134 213 134 c 0
151 118 m 2
 151 118 152 117 158 114 c 1x301e0020
 158 114 160 115 163 117 c 0
 164 117 l 0
 164 118 l 0
 165 118 166 118 166 117 c 2
 166 114 l 1x301e0010
 161 104 160 104 159 101 c 1
 159 99 l 2
 159 98 158 98 158 98 c 2
 157 97 157 97 157 98 c 0
 156 100 155 102 149 116 c 1
 149 117 l 2
 149 118 150 118 151 118 c 2
322 95 m 1x301e000008
 322 14 l 1
 305 14 l 1
 305 95 l 1
 322 95 l 1x301e000008
322 -4 m 1
 322 -81 l 1
 305 -81 l 1
 305 -4 l 1
 322 -4 l 1
322 -98 m 1
 322 -188 l 1xb01e000020
 250 -188 l 1
 250 -171 l 1x701e000020
 305 -171 l 1x701e000008
 305 -98 l 1
 322 -98 l 1
83 -171 m 1x701e10
 154 -171 l 1
 154 -188 l 1
 83 -188 l 1
 83 -171 l 1x701e10
167 -171 m 1x701e0008
 238 -171 l 1
 238 -188 l 1
 167 -188 l 1
 167 -171 l 1x701e0008
EndSplineSet
EndChar

StartChar: C
Encoding: 67 67 3
Width: 321
VWidth: 800
Flags: HW
HStem: -188 86<0 17 305 322> -188 17<17 70 83 154 167 238 250 305> -85 77<0 17 305 322> 14 82<0 17 305 322> 108 79<0 17 305 322> 126 8<62 76 115 132 206 220> 170 8<45 50 60 78 87 98 108 132 142 153 162 173 183 194 204 222 231 246 253 278 278 281> 204 86<0 17 305 322> 228 9<113 131> 248 9<268 288> 274 8<62 75 102 114 146 158 172 196 226 238 247 258> 306 77<0 17 305 322> 405 81<0 17 305 322> 498 17G<0 17 305 322> 570 18<17 70 83 154 167 238 250 305>
VStem: 0 70<-188 -171 570 588> 0 17<-171 -102 -85 -8 10 90 108 187 204 290 306 383 401 481 498 570> 53 10<134 170 229 274> 75 10<134 170 205 273> 83 71<-188 -171 570 588> 98 10<136 170> 103 10<207 214> 117 10<250 272> 127 14<193 202> 132 10<126 129 134 170 178 198 229 236 239 274> 153 10<126 170> 158 10<204 231 238 270> 164 2<117 118> 167 70<-188 -171 570 588> 173 10<101 170 178 200> 194 10<135 170> 216 10<204 274> 222 10<135 170> 238 10<230 274> 250 71<-188 -171 570 588> 258 10<204 249 256 274> 305 17<-171 -98 -81 -4 14 95 112 191 209 294 311 387 405 486 502 570>
LayerCount: 2
Fore
SplineSet
0 481 m 1x301e80
 17 482 l 1
 17 401 l 1
 0 400 l 1
 0 481 l 1x301e80
0 383 m 1
 17 383 l 1
 17 306 l 1
 0 306 l 1
 0 383 l 1
0 290 m 1x311e80
 17 290 l 1
 17 204 l 1
 0 204 l 1
 0 290 l 1x311e80
0 187 m 1x381e80
 17 187 l 1
 17 108 l 1
 0 108 l 1
 0 187 l 1x381e80
0 90 m 1
 17 91 l 1
 17 10 l 1
 0 10 l 1
 0 90 l 1
0 -8 m 1
 17 -8 l 1
 17 -85 l 1
 0 -85 l 1
 0 -8 l 1
0 -102 m 1xb01e80
 17 -102 l 1xb01e80
 17 -171 l 1x701e80
 70 -171 l 1
 70 -188 l 1x701f
 0 -188 l 1xb01f
 0 -102 l 1xb01e80
0 588 m 1x301f
 70 588 l 1
 70 570 l 1x301f
 17 570 l 1
 17 498 l 1
 0 498 l 1x301e80
 0 528 0 558 0 588 c 1x301f
83 588 m 1x301e10
 154 588 l 1
 154 570 l 1
 83 570 l 1
 83 588 l 1x301e10
167 588 m 1x301e0008
 238 588 l 1
 238 570 l 1
 167 570 l 1
 167 588 l 1x301e0008
250 588 m 1x301e000020
 322 588 l 1x301e000020
 322 502 l 1
 305 502 l 1
 305 570 l 1x301e000008
 250 570 l 1
 250 588 l 1x301e000020
322 486 m 1x301e000008
 322 405 l 1
 305 405 l 1
 305 486 l 1
 322 486 l 1x301e000008
322 387 m 1
 322 311 l 1
 305 310 l 1
 305 387 l 1
 322 387 l 1
322 294 m 1
 322 209 l 1
 305 208 l 1
 305 294 l 1
 322 294 l 1
132 280 m 2x30be0aa0
 133 281 133 280 144 286 c 1
 144 287 l 1
 146 285 146 286 147 282 c 1
 156 282 l 1
 158 283 158 283 168 285 c 1
 168 276 l 1
 174 278 180 280 186 282 c 1
 191 282 l 2
 212 282 217 249 184 235 c 0
 180 234 167 229 167 229 c 2
 167 206 l 1
 160 203 161 203 158 202 c 1
 158 274 l 1
 146 274 l 1
 146 231 l 1
 143 229 140 229 137 228 c 1
 137 236 l 1
 135 235 134 234 132 233 c 0
 127 231 123 230 118 228 c 0
 112 228 97 228 91 240 c 1
 91 243 l 1
 99 245 100 246 100 246 c 0
 112 246 117 254 117 262 c 0
 117 267 115 275 102 275 c 1
 102 280 l 1
 105 280 107 282 108 282 c 2
 110 282 l 2
 112 282 127 282 127 262 c 0
 127 247 114 242 106 239 c 1
 113 237 113 237 114 237 c 0
 123 235 134 242 137 250 c 1
 137 273 l 2
 137 273 132 278 132 279 c 2
 132 280 l 2x30be0aa0
48 280 m 2
 49 281 49 280 60 286 c 0
 63 282 l 2
 74 282 l 1
 76 283 76 283 86 285 c 1
 85 282 85 278 85 273 c 2
 85 206 l 1
 78 203 78 203 75 202 c 1
 75 274 l 1
 62 274 l 1
 62 231 l 1
 59 229 56 229 53 228 c 1
 53 273 l 1x30be60
 50 278 48 277 48 279 c 2
 48 280 l 2
211 281 m 0
 214 283 222 286 222 286 c 0
 224 284 224 285 226 282 c 1
 257 282 l 1
 259 283 259 283 269 285 c 1
 269 283 268 280 268 276 c 2
 268 256 l 1
 270 256 l 2
 275 256 280 257 284 257 c 2
 289 257 l 1
 289 256 288 253 286 247 c 0
 285 247 284 248 282 248 c 0
 280 248 275 249 268 249 c 1
 268 206 l 1
 261 203 261 203 258 202 c 1
 258 274 l 1
 247 274 l 1
 247 231 l 1
 240 228 241 228 238 227 c 1
 238 274 l 1
 226 274 l 1
 226 206 l 1
 219 203 219 203 216 202 c 1
 216 273 l 1x307e000150
 211 278 211 277 211 279 c 0
 211 280 211 280 211 281 c 0
170 238 m 0
 195 242 197 262 197 262 c 0
 198 264 200 274 185 274 c 0
 179 274 169 269 167 267 c 1
 167 238 l 1x301e0020
 168 238 169 238 170 238 c 0
117 220 m 0x311e06
 118 220 117 221 118 221 c 0
 119 221 120 221 120 220 c 2
 120 218 l 2
 120 216 120 216 114 204 c 1
 114 202 l 2
 114 201 113 201 113 201 c 2
 112 200 111 200 111 200 c 0
 109 206 103 219 103 219 c 2
 103 220 l 2
 103 221 105 221 106 221 c 0
 106 221 107 220 112 217 c 0
 113 217 113 218 114 218 c 0
 116 218 115 220 117 220 c 0x311e06
173 193 m 2x371e0084
 169 198 l 2
 169 200 l 1
 170 200 l 1
 175 202 179 203 183 204 c 1
 183 178 l 1
 278 178 l 1
 278 178 280 179 282 179 c 0
 284 179 284 178 284 178 c 2
 284 177 283 176 281 170 c 1
 278 171 276 171 274 171 c 0
 269 172 266 172 263 171 c 0
 261 171 250 167 250 158 c 2
 250 153 l 2
 250 153 252 129 281 134 c 1
 281 129 l 1
 278 129 276 126 274 126 c 0
 270 125 266 126 263 126 c 0
 240 126 233 157 246 170 c 1
 231 170 l 1
 231 141 l 1
 227 127 210 126 210 126 c 0
 196 126 194 138 194 142 c 2
 194 170 l 1
 183 170 l 1
 183 103 l 1
 180 101 177 100 173 99 c 1
 173 170 l 1
 162 170 l 1
 162 128 l 1
 159 126 157 126 153 125 c 1
 153 170 l 1
 142 170 l 1
 142 137 l 1
 144 135 144 133 144 133 c 2
 145 131 146 131 146 130 c 2
 145 129 l 1
 145 128 l 1
 142 126 138 126 134 125 c 1
 134 126 133 126 133 127 c 2
 133 129 l 1
 130 127 119 125 114 125 c 0
 99 125 98 142 98 144 c 2
 98 170 l 1
 87 170 l 1
 87 141 l 1
 83 127 66 126 66 126 c 0
 57 124 50 132 50 142 c 2
 50 170 l 1
 31 170 l 2
 29 171 l 0
 29 174 29 175 42 186 c 1
 44 184 46 181 48 178 c 1
 132 178 l 1
 132 193 l 1x371e08c680
 127 198 127 197 127 198 c 0x371e01
 128 200 128 201 140 203 c 0
 141 203 141 204 141 204 c 1
 142 204 l 1
 142 178 l 1
 173 178 l 1
 173 193 l 2x371e0084
322 191 m 1x301e000008
 322 112 l 1
 305 112 l 1
 305 191 l 1
 322 191 l 1x301e000008
69 134 m 0x361e
 74 134 78 136 78 143 c 2
 78 170 l 1
 60 170 l 1
 60 161 60 154 60 145 c 0
 60 134 68 134 69 134 c 0x361e
108 170 m 1x361e0880
 108 146 l 2
 108 144 111 136 114 134 c 0
 116 133 119 134 123 134 c 2
 126 134 l 1
 128 135 130 136 132 138 c 1
 132 170 l 1
 108 170 l 1x361e0880
213 134 m 0
 216 134 222 134 222 143 c 2
 222 170 l 1
 204 170 l 1
 204 147 l 2x361e000280
 204 143 204 134 213 134 c 0
151 118 m 2
 151 118 152 117 158 114 c 1x301e0020
 158 114 160 115 163 117 c 0
 164 117 l 0
 164 118 l 0
 165 118 166 118 166 117 c 2
 166 114 l 1x301e0010
 161 104 160 104 159 101 c 1
 159 99 l 2
 159 98 158 98 158 98 c 2
 157 97 157 97 157 98 c 0
 156 100 155 102 149 116 c 1
 149 117 l 2
 149 118 150 118 151 118 c 2
322 95 m 1x301e000008
 322 14 l 1
 305 14 l 1
 305 95 l 1
 322 95 l 1x301e000008
322 -4 m 1
 322 -81 l 1
 305 -81 l 1
 305 -4 l 1
 322 -4 l 1
322 -98 m 1
 322 -188 l 1xb01e000020
 250 -188 l 1
 250 -171 l 1x701e000020
 305 -171 l 1x701e000008
 305 -98 l 1
 322 -98 l 1
83 -171 m 1x701e10
 154 -171 l 1
 154 -188 l 1
 83 -188 l 1
 83 -171 l 1x701e10
167 -171 m 1x701e0008
 238 -171 l 1
 238 -188 l 1
 167 -188 l 1
 167 -171 l 1x701e0008
EndSplineSet
EndChar

StartChar: D
Encoding: 68 68 4
Width: 321
VWidth: 800
Flags: HW
HStem: -188 86<0 17 305 322> -188 17<17 70 83 154 167 238 250 305> -85 77<0 17 305 322> 14 82<0 17 305 322> 108 79<0 17 305 322> 126 8<62 76 115 132 206 220> 170 8<45 50 60 78 87 98 108 132 142 153 162 173 183 194 204 222 231 246 253 278 278 281> 204 86<0 17 305 322> 228 9<113 131> 248 9<268 288> 274 8<62 75 102 114 146 158 172 196 226 238 247 258> 306 77<0 17 305 322> 405 81<0 17 305 322> 498 17G<0 17 305 322> 570 18<17 70 83 154 167 238 250 305>
VStem: 0 70<-188 -171 570 588> 0 17<-171 -102 -85 -8 10 90 108 187 204 290 306 383 401 481 498 570> 53 10<134 170 229 274> 75 10<134 170 205 273> 83 71<-188 -171 570 588> 98 10<136 170> 103 10<207 214> 117 10<250 272> 127 14<193 202> 132 10<126 129 134 170 178 198 229 236 239 274> 153 10<126 170> 158 10<204 231 238 270> 164 2<117 118> 167 70<-188 -171 570 588> 173 10<101 170 178 200> 194 10<135 170> 216 10<204 274> 222 10<135 170> 238 10<230 274> 250 71<-188 -171 570 588> 258 10<204 249 256 274> 305 17<-171 -98 -81 -4 14 95 112 191 209 294 311 387 405 486 502 570>
LayerCount: 2
Fore
SplineSet
0 481 m 1x301e80
 17 482 l 1
 17 401 l 1
 0 400 l 1
 0 481 l 1x301e80
0 383 m 1
 17 383 l 1
 17 306 l 1
 0 306 l 1
 0 383 l 1
0 290 m 1x311e80
 17 290 l 1
 17 204 l 1
 0 204 l 1
 0 290 l 1x311e80
0 187 m 1x381e80
 17 187 l 1
 17 108 l 1
 0 108 l 1
 0 187 l 1x381e80
0 90 m 1
 17 91 l 1
 17 10 l 1
 0 10 l 1
 0 90 l 1
0 -8 m 1
 17 -8 l 1
 17 -85 l 1
 0 -85 l 1
 0 -8 l 1
0 -102 m 1xb01e80
 17 -102 l 1xb01e80
 17 -171 l 1x701e80
 70 -171 l 1
 70 -188 l 1x701f
 0 -188 l 1xb01f
 0 -102 l 1xb01e80
0 588 m 1x301f
 70 588 l 1
 70 570 l 1x301f
 17 570 l 1
 17 498 l 1
 0 498 l 1x301e80
 0 528 0 558 0 588 c 1x301f
83 588 m 1x301e10
 154 588 l 1
 154 570 l 1
 83 570 l 1
 83 588 l 1x301e10
167 588 m 1x301e0008
 238 588 l 1
 238 570 l 1
 167 570 l 1
 167 588 l 1x301e0008
250 588 m 1x301e000020
 322 588 l 1x301e000020
 322 502 l 1
 305 502 l 1
 305 570 l 1x301e000008
 250 570 l 1
 250 588 l 1x301e000020
322 486 m 1x301e000008
 322 405 l 1
 305 405 l 1
 305 486 l 1
 322 486 l 1x301e000008
322 387 m 1
 322 311 l 1
 305 310 l 1
 305 387 l 1
 322 387 l 1
322 294 m 1
 322 209 l 1
 305 208 l 1
 305 294 l 1
 322 294 l 1
132 280 m 2x30be0aa0
 133 281 133 280 144 286 c 1
 144 287 l 1
 146 285 146 286 147 282 c 1
 156 282 l 1
 158 283 158 283 168 285 c 1
 168 276 l 1
 174 278 180 280 186 282 c 1
 191 282 l 2
 212 282 217 249 184 235 c 0
 180 234 167 229 167 229 c 2
 167 206 l 1
 160 203 161 203 158 202 c 1
 158 274 l 1
 146 274 l 1
 146 231 l 1
 143 229 140 229 137 228 c 1
 137 236 l 1
 135 235 134 234 132 233 c 0
 127 231 123 230 118 228 c 0
 112 228 97 228 91 240 c 1
 91 243 l 1
 99 245 100 246 100 246 c 0
 112 246 117 254 117 262 c 0
 117 267 115 275 102 275 c 1
 102 280 l 1
 105 280 107 282 108 282 c 2
 110 282 l 2
 112 282 127 282 127 262 c 0
 127 247 114 242 106 239 c 1
 113 237 113 237 114 237 c 0
 123 235 134 242 137 250 c 1
 137 273 l 2
 137 273 132 278 132 279 c 2
 132 280 l 2x30be0aa0
48 280 m 2
 49 281 49 280 60 286 c 0
 63 282 l 2
 74 282 l 1
 76 283 76 283 86 285 c 1
 85 282 85 278 85 273 c 2
 85 206 l 1
 78 203 78 203 75 202 c 1
 75 274 l 1
 62 274 l 1
 62 231 l 1
 59 229 56 229 53 228 c 1
 53 273 l 1x30be60
 50 278 48 277 48 279 c 2
 48 280 l 2
211 281 m 0
 214 283 222 286 222 286 c 0
 224 284 224 285 226 282 c 1
 257 282 l 1
 259 283 259 283 269 285 c 1
 269 283 268 280 268 276 c 2
 268 256 l 1
 270 256 l 2
 275 256 280 257 284 257 c 2
 289 257 l 1
 289 256 288 253 286 247 c 0
 285 247 284 248 282 248 c 0
 280 248 275 249 268 249 c 1
 268 206 l 1
 261 203 261 203 258 202 c 1
 258 274 l 1
 247 274 l 1
 247 231 l 1
 240 228 241 228 238 227 c 1
 238 274 l 1
 226 274 l 1
 226 206 l 1
 219 203 219 203 216 202 c 1
 216 273 l 1x307e000150
 211 278 211 277 211 279 c 0
 211 280 211 280 211 281 c 0
170 238 m 0
 195 242 197 262 197 262 c 0
 198 264 200 274 185 274 c 0
 179 274 169 269 167 267 c 1
 167 238 l 1x301e0020
 168 238 169 238 170 238 c 0
117 220 m 0x311e06
 118 220 117 221 118 221 c 0
 119 221 120 221 120 220 c 2
 120 218 l 2
 120 216 120 216 114 204 c 1
 114 202 l 2
 114 201 113 201 113 201 c 2
 112 200 111 200 111 200 c 0
 109 206 103 219 103 219 c 2
 103 220 l 2
 103 221 105 221 106 221 c 0
 106 221 107 220 112 217 c 0
 113 217 113 218 114 218 c 0
 116 218 115 220 117 220 c 0x311e06
173 193 m 2x371e0084
 169 198 l 2
 169 200 l 1
 170 200 l 1
 175 202 179 203 183 204 c 1
 183 178 l 1
 278 178 l 1
 278 178 280 179 282 179 c 0
 284 179 284 178 284 178 c 2
 284 177 283 176 281 170 c 1
 278 171 276 171 274 171 c 0
 269 172 266 172 263 171 c 0
 261 171 250 167 250 158 c 2
 250 153 l 2
 250 153 252 129 281 134 c 1
 281 129 l 1
 278 129 276 126 274 126 c 0
 270 125 266 126 263 126 c 0
 240 126 233 157 246 170 c 1
 231 170 l 1
 231 141 l 1
 227 127 210 126 210 126 c 0
 196 126 194 138 194 142 c 2
 194 170 l 1
 183 170 l 1
 183 103 l 1
 180 101 177 100 173 99 c 1
 173 170 l 1
 162 170 l 1
 162 128 l 1
 159 126 157 126 153 125 c 1
 153 170 l 1
 142 170 l 1
 142 137 l 1
 144 135 144 133 144 133 c 2
 145 131 146 131 146 130 c 2
 145 129 l 1
 145 128 l 1
 142 126 138 126 134 125 c 1
 134 126 133 126 133 127 c 2
 133 129 l 1
 130 127 119 125 114 125 c 0
 99 125 98 142 98 144 c 2
 98 170 l 1
 87 170 l 1
 87 141 l 1
 83 127 66 126 66 126 c 0
 57 124 50 132 50 142 c 2
 50 170 l 1
 31 170 l 2
 29 171 l 0
 29 174 29 175 42 186 c 1
 44 184 46 181 48 178 c 1
 132 178 l 1
 132 193 l 1x371e08c680
 127 198 127 197 127 198 c 0x371e01
 128 200 128 201 140 203 c 0
 141 203 141 204 141 204 c 1
 142 204 l 1
 142 178 l 1
 173 178 l 1
 173 193 l 2x371e0084
322 191 m 1x301e000008
 322 112 l 1
 305 112 l 1
 305 191 l 1
 322 191 l 1x301e000008
69 134 m 0x361e
 74 134 78 136 78 143 c 2
 78 170 l 1
 60 170 l 1
 60 161 60 154 60 145 c 0
 60 134 68 134 69 134 c 0x361e
108 170 m 1x361e0880
 108 146 l 2
 108 144 111 136 114 134 c 0
 116 133 119 134 123 134 c 2
 126 134 l 1
 128 135 130 136 132 138 c 1
 132 170 l 1
 108 170 l 1x361e0880
213 134 m 0
 216 134 222 134 222 143 c 2
 222 170 l 1
 204 170 l 1
 204 147 l 2x361e000280
 204 143 204 134 213 134 c 0
151 118 m 2
 151 118 152 117 158 114 c 1x301e0020
 158 114 160 115 163 117 c 0
 164 117 l 0
 164 118 l 0
 165 118 166 118 166 117 c 2
 166 114 l 1x301e0010
 161 104 160 104 159 101 c 1
 159 99 l 2
 159 98 158 98 158 98 c 2
 157 97 157 97 157 98 c 0
 156 100 155 102 149 116 c 1
 149 117 l 2
 149 118 150 118 151 118 c 2
322 95 m 1x301e000008
 322 14 l 1
 305 14 l 1
 305 95 l 1
 322 95 l 1x301e000008
322 -4 m 1
 322 -81 l 1
 305 -81 l 1
 305 -4 l 1
 322 -4 l 1
322 -98 m 1
 322 -188 l 1xb01e000020
 250 -188 l 1
 250 -171 l 1x701e000020
 305 -171 l 1x701e000008
 305 -98 l 1
 322 -98 l 1
83 -171 m 1x701e10
 154 -171 l 1
 154 -188 l 1
 83 -188 l 1
 83 -171 l 1x701e10
167 -171 m 1x701e0008
 238 -171 l 1
 238 -188 l 1
 167 -188 l 1
 167 -171 l 1x701e0008
EndSplineSet
EndChar

StartChar: E
Encoding: 69 69 5
Width: 321
VWidth: 800
Flags: HW
HStem: -188 86<0 17 305 322> -188 17<17 70 83 154 167 238 250 305> -85 77<0 17 305 322> 14 82<0 17 305 322> 108 79<0 17 305 322> 126 8<62 76 115 132 206 220> 170 8<45 50 60 78 87 98 108 132 142 153 162 173 183 194 204 222 231 246 253 278 278 281> 204 86<0 17 305 322> 228 9<113 131> 248 9<268 288> 274 8<62 75 102 114 146 158 172 196 226 238 247 258> 306 77<0 17 305 322> 405 81<0 17 305 322> 498 17G<0 17 305 322> 570 18<17 70 83 154 167 238 250 305>
VStem: 0 70<-188 -171 570 588> 0 17<-171 -102 -85 -8 10 90 108 187 204 290 306 383 401 481 498 570> 53 10<134 170 229 274> 75 10<134 170 205 273> 83 71<-188 -171 570 588> 98 10<136 170> 103 10<207 214> 117 10<250 272> 127 14<193 202> 132 10<126 129 134 170 178 198 229 236 239 274> 153 10<126 170> 158 10<204 231 238 270> 164 2<117 118> 167 70<-188 -171 570 588> 173 10<101 170 178 200> 194 10<135 170> 216 10<204 274> 222 10<135 170> 238 10<230 274> 250 71<-188 -171 570 588> 258 10<204 249 256 274> 305 17<-171 -98 -81 -4 14 95 112 191 209 294 311 387 405 486 502 570>
LayerCount: 2
Fore
SplineSet
0 481 m 1x301e80
 17 482 l 1
 17 401 l 1
 0 400 l 1
 0 481 l 1x301e80
0 383 m 1
 17 383 l 1
 17 306 l 1
 0 306 l 1
 0 383 l 1
0 290 m 1x311e80
 17 290 l 1
 17 204 l 1
 0 204 l 1
 0 290 l 1x311e80
0 187 m 1x381e80
 17 187 l 1
 17 108 l 1
 0 108 l 1
 0 187 l 1x381e80
0 90 m 1
 17 91 l 1
 17 10 l 1
 0 10 l 1
 0 90 l 1
0 -8 m 1
 17 -8 l 1
 17 -85 l 1
 0 -85 l 1
 0 -8 l 1
0 -102 m 1xb01e80
 17 -102 l 1xb01e80
 17 -171 l 1x701e80
 70 -171 l 1
 70 -188 l 1x701f
 0 -188 l 1xb01f
 0 -102 l 1xb01e80
0 588 m 1x301f
 70 588 l 1
 70 570 l 1x301f
 17 570 l 1
 17 498 l 1
 0 498 l 1x301e80
 0 528 0 558 0 588 c 1x301f
83 588 m 1x301e10
 154 588 l 1
 154 570 l 1
 83 570 l 1
 83 588 l 1x301e10
167 588 m 1x301e0008
 238 588 l 1
 238 570 l 1
 167 570 l 1
 167 588 l 1x301e0008
250 588 m 1x301e000020
 322 588 l 1x301e000020
 322 502 l 1
 305 502 l 1
 305 570 l 1x301e000008
 250 570 l 1
 250 588 l 1x301e000020
322 486 m 1x301e000008
 322 405 l 1
 305 405 l 1
 305 486 l 1
 322 486 l 1x301e000008
322 387 m 1
 322 311 l 1
 305 310 l 1
 305 387 l 1
 322 387 l 1
322 294 m 1
 322 209 l 1
 305 208 l 1
 305 294 l 1
 322 294 l 1
132 280 m 2x30be0aa0
 133 281 133 280 144 286 c 1
 144 287 l 1
 146 285 146 286 147 282 c 1
 156 282 l 1
 158 283 158 283 168 285 c 1
 168 276 l 1
 174 278 180 280 186 282 c 1
 191 282 l 2
 212 282 217 249 184 235 c 0
 180 234 167 229 167 229 c 2
 167 206 l 1
 160 203 161 203 158 202 c 1
 158 274 l 1
 146 274 l 1
 146 231 l 1
 143 229 140 229 137 228 c 1
 137 236 l 1
 135 235 134 234 132 233 c 0
 127 231 123 230 118 228 c 0
 112 228 97 228 91 240 c 1
 91 243 l 1
 99 245 100 246 100 246 c 0
 112 246 117 254 117 262 c 0
 117 267 115 275 102 275 c 1
 102 280 l 1
 105 280 107 282 108 282 c 2
 110 282 l 2
 112 282 127 282 127 262 c 0
 127 247 114 242 106 239 c 1
 113 237 113 237 114 237 c 0
 123 235 134 242 137 250 c 1
 137 273 l 2
 137 273 132 278 132 279 c 2
 132 280 l 2x30be0aa0
48 280 m 2
 49 281 49 280 60 286 c 0
 63 282 l 2
 74 282 l 1
 76 283 76 283 86 285 c 1
 85 282 85 278 85 273 c 2
 85 206 l 1
 78 203 78 203 75 202 c 1
 75 274 l 1
 62 274 l 1
 62 231 l 1
 59 229 56 229 53 228 c 1
 53 273 l 1x30be60
 50 278 48 277 48 279 c 2
 48 280 l 2
211 281 m 0
 214 283 222 286 222 286 c 0
 224 284 224 285 226 282 c 1
 257 282 l 1
 259 283 259 283 269 285 c 1
 269 283 268 280 268 276 c 2
 268 256 l 1
 270 256 l 2
 275 256 280 257 284 257 c 2
 289 257 l 1
 289 256 288 253 286 247 c 0
 285 247 284 248 282 248 c 0
 280 248 275 249 268 249 c 1
 268 206 l 1
 261 203 261 203 258 202 c 1
 258 274 l 1
 247 274 l 1
 247 231 l 1
 240 228 241 228 238 227 c 1
 238 274 l 1
 226 274 l 1
 226 206 l 1
 219 203 219 203 216 202 c 1
 216 273 l 1x307e000150
 211 278 211 277 211 279 c 0
 211 280 211 280 211 281 c 0
170 238 m 0
 195 242 197 262 197 262 c 0
 198 264 200 274 185 274 c 0
 179 274 169 269 167 267 c 1
 167 238 l 1x301e0020
 168 238 169 238 170 238 c 0
117 220 m 0x311e06
 118 220 117 221 118 221 c 0
 119 221 120 221 120 220 c 2
 120 218 l 2
 120 216 120 216 114 204 c 1
 114 202 l 2
 114 201 113 201 113 201 c 2
 112 200 111 200 111 200 c 0
 109 206 103 219 103 219 c 2
 103 220 l 2
 103 221 105 221 106 221 c 0
 106 221 107 220 112 217 c 0
 113 217 113 218 114 218 c 0
 116 218 115 220 117 220 c 0x311e06
173 193 m 2x371e0084
 169 198 l 2
 169 200 l 1
 170 200 l 1
 175 202 179 203 183 204 c 1
 183 178 l 1
 278 178 l 1
 278 178 280 179 282 179 c 0
 284 179 284 178 284 178 c 2
 284 177 283 176 281 170 c 1
 278 171 276 171 274 171 c 0
 269 172 266 172 263 171 c 0
 261 171 250 167 250 158 c 2
 250 153 l 2
 250 153 252 129 281 134 c 1
 281 129 l 1
 278 129 276 126 274 126 c 0
 270 125 266 126 263 126 c 0
 240 126 233 157 246 170 c 1
 231 170 l 1
 231 141 l 1
 227 127 210 126 210 126 c 0
 196 126 194 138 194 142 c 2
 194 170 l 1
 183 170 l 1
 183 103 l 1
 180 101 177 100 173 99 c 1
 173 170 l 1
 162 170 l 1
 162 128 l 1
 159 126 157 126 153 125 c 1
 153 170 l 1
 142 170 l 1
 142 137 l 1
 144 135 144 133 144 133 c 2
 145 131 146 131 146 130 c 2
 145 129 l 1
 145 128 l 1
 142 126 138 126 134 125 c 1
 134 126 133 126 133 127 c 2
 133 129 l 1
 130 127 119 125 114 125 c 0
 99 125 98 142 98 144 c 2
 98 170 l 1
 87 170 l 1
 87 141 l 1
 83 127 66 126 66 126 c 0
 57 124 50 132 50 142 c 2
 50 170 l 1
 31 170 l 2
 29 171 l 0
 29 174 29 175 42 186 c 1
 44 184 46 181 48 178 c 1
 132 178 l 1
 132 193 l 1x371e08c680
 127 198 127 197 127 198 c 0x371e01
 128 200 128 201 140 203 c 0
 141 203 141 204 141 204 c 1
 142 204 l 1
 142 178 l 1
 173 178 l 1
 173 193 l 2x371e0084
322 191 m 1x301e000008
 322 112 l 1
 305 112 l 1
 305 191 l 1
 322 191 l 1x301e000008
69 134 m 0x361e
 74 134 78 136 78 143 c 2
 78 170 l 1
 60 170 l 1
 60 161 60 154 60 145 c 0
 60 134 68 134 69 134 c 0x361e
108 170 m 1x361e0880
 108 146 l 2
 108 144 111 136 114 134 c 0
 116 133 119 134 123 134 c 2
 126 134 l 1
 128 135 130 136 132 138 c 1
 132 170 l 1
 108 170 l 1x361e0880
213 134 m 0
 216 134 222 134 222 143 c 2
 222 170 l 1
 204 170 l 1
 204 147 l 2x361e000280
 204 143 204 134 213 134 c 0
151 118 m 2
 151 118 152 117 158 114 c 1x301e0020
 158 114 160 115 163 117 c 0
 164 117 l 0
 164 118 l 0
 165 118 166 118 166 117 c 2
 166 114 l 1x301e0010
 161 104 160 104 159 101 c 1
 159 99 l 2
 159 98 158 98 158 98 c 2
 157 97 157 97 157 98 c 0
 156 100 155 102 149 116 c 1
 149 117 l 2
 149 118 150 118 151 118 c 2
322 95 m 1x301e000008
 322 14 l 1
 305 14 l 1
 305 95 l 1
 322 95 l 1x301e000008
322 -4 m 1
 322 -81 l 1
 305 -81 l 1
 305 -4 l 1
 322 -4 l 1
322 -98 m 1
 322 -188 l 1xb01e000020
 250 -188 l 1
 250 -171 l 1x701e000020
 305 -171 l 1x701e000008
 305 -98 l 1
 322 -98 l 1
83 -171 m 1x701e10
 154 -171 l 1
 154 -188 l 1
 83 -188 l 1
 83 -171 l 1x701e10
167 -171 m 1x701e0008
 238 -171 l 1
 238 -188 l 1
 167 -188 l 1
 167 -171 l 1x701e0008
EndSplineSet
EndChar

StartChar: F
Encoding: 70 70 6
Width: 321
VWidth: 800
Flags: HW
HStem: -188 86<0 17 305 322> -188 17<17 70 83 154 167 238 250 305> -85 77<0 17 305 322> 14 82<0 17 305 322> 108 79<0 17 305 322> 126 8<62 76 115 132 206 220> 170 8<45 50 60 78 87 98 108 132 142 153 162 173 183 194 204 222 231 246 253 278 278 281> 204 86<0 17 305 322> 228 9<113 131> 248 9<268 288> 274 8<62 75 102 114 146 158 172 196 226 238 247 258> 306 77<0 17 305 322> 405 81<0 17 305 322> 498 17G<0 17 305 322> 570 18<17 70 83 154 167 238 250 305>
VStem: 0 70<-188 -171 570 588> 0 17<-171 -102 -85 -8 10 90 108 187 204 290 306 383 401 481 498 570> 53 10<134 170 229 274> 75 10<134 170 205 273> 83 71<-188 -171 570 588> 98 10<136 170> 103 10<207 214> 117 10<250 272> 127 14<193 202> 132 10<126 129 134 170 178 198 229 236 239 274> 153 10<126 170> 158 10<204 231 238 270> 164 2<117 118> 167 70<-188 -171 570 588> 173 10<101 170 178 200> 194 10<135 170> 216 10<204 274> 222 10<135 170> 238 10<230 274> 250 71<-188 -171 570 588> 258 10<204 249 256 274> 305 17<-171 -98 -81 -4 14 95 112 191 209 294 311 387 405 486 502 570>
LayerCount: 2
Fore
SplineSet
0 481 m 1x301e80
 17 482 l 1
 17 401 l 1
 0 400 l 1
 0 481 l 1x301e80
0 383 m 1
 17 383 l 1
 17 306 l 1
 0 306 l 1
 0 383 l 1
0 290 m 1x311e80
 17 290 l 1
 17 204 l 1
 0 204 l 1
 0 290 l 1x311e80
0 187 m 1x381e80
 17 187 l 1
 17 108 l 1
 0 108 l 1
 0 187 l 1x381e80
0 90 m 1
 17 91 l 1
 17 10 l 1
 0 10 l 1
 0 90 l 1
0 -8 m 1
 17 -8 l 1
 17 -85 l 1
 0 -85 l 1
 0 -8 l 1
0 -102 m 1xb01e80
 17 -102 l 1xb01e80
 17 -171 l 1x701e80
 70 -171 l 1
 70 -188 l 1x701f
 0 -188 l 1xb01f
 0 -102 l 1xb01e80
0 588 m 1x301f
 70 588 l 1
 70 570 l 1x301f
 17 570 l 1
 17 498 l 1
 0 498 l 1x301e80
 0 528 0 558 0 588 c 1x301f
83 588 m 1x301e10
 154 588 l 1
 154 570 l 1
 83 570 l 1
 83 588 l 1x301e10
167 588 m 1x301e0008
 238 588 l 1
 238 570 l 1
 167 570 l 1
 167 588 l 1x301e0008
250 588 m 1x301e000020
 322 588 l 1x301e000020
 322 502 l 1
 305 502 l 1
 305 570 l 1x301e000008
 250 570 l 1
 250 588 l 1x301e000020
322 486 m 1x301e000008
 322 405 l 1
 305 405 l 1
 305 486 l 1
 322 486 l 1x301e000008
322 387 m 1
 322 311 l 1
 305 310 l 1
 305 387 l 1
 322 387 l 1
322 294 m 1
 322 209 l 1
 305 208 l 1
 305 294 l 1
 322 294 l 1
132 280 m 2x30be0aa0
 133 281 133 280 144 286 c 1
 144 287 l 1
 146 285 146 286 147 282 c 1
 156 282 l 1
 158 283 158 283 168 285 c 1
 168 276 l 1
 174 278 180 280 186 282 c 1
 191 282 l 2
 212 282 217 249 184 235 c 0
 180 234 167 229 167 229 c 2
 167 206 l 1
 160 203 161 203 158 202 c 1
 158 274 l 1
 146 274 l 1
 146 231 l 1
 143 229 140 229 137 228 c 1
 137 236 l 1
 135 235 134 234 132 233 c 0
 127 231 123 230 118 228 c 0
 112 228 97 228 91 240 c 1
 91 243 l 1
 99 245 100 246 100 246 c 0
 112 246 117 254 117 262 c 0
 117 267 115 275 102 275 c 1
 102 280 l 1
 105 280 107 282 108 282 c 2
 110 282 l 2
 112 282 127 282 127 262 c 0
 127 247 114 242 106 239 c 1
 113 237 113 237 114 237 c 0
 123 235 134 242 137 250 c 1
 137 273 l 2
 137 273 132 278 132 279 c 2
 132 280 l 2x30be0aa0
48 280 m 2
 49 281 49 280 60 286 c 0
 63 282 l 2
 74 282 l 1
 76 283 76 283 86 285 c 1
 85 282 85 278 85 273 c 2
 85 206 l 1
 78 203 78 203 75 202 c 1
 75 274 l 1
 62 274 l 1
 62 231 l 1
 59 229 56 229 53 228 c 1
 53 273 l 1x30be60
 50 278 48 277 48 279 c 2
 48 280 l 2
211 281 m 0
 214 283 222 286 222 286 c 0
 224 284 224 285 226 282 c 1
 257 282 l 1
 259 283 259 283 269 285 c 1
 269 283 268 280 268 276 c 2
 268 256 l 1
 270 256 l 2
 275 256 280 257 284 257 c 2
 289 257 l 1
 289 256 288 253 286 247 c 0
 285 247 284 248 282 248 c 0
 280 248 275 249 268 249 c 1
 268 206 l 1
 261 203 261 203 258 202 c 1
 258 274 l 1
 247 274 l 1
 247 231 l 1
 240 228 241 228 238 227 c 1
 238 274 l 1
 226 274 l 1
 226 206 l 1
 219 203 219 203 216 202 c 1
 216 273 l 1x307e000150
 211 278 211 277 211 279 c 0
 211 280 211 280 211 281 c 0
170 238 m 0
 195 242 197 262 197 262 c 0
 198 264 200 274 185 274 c 0
 179 274 169 269 167 267 c 1
 167 238 l 1x301e0020
 168 238 169 238 170 238 c 0
117 220 m 0x311e06
 118 220 117 221 118 221 c 0
 119 221 120 221 120 220 c 2
 120 218 l 2
 120 216 120 216 114 204 c 1
 114 202 l 2
 114 201 113 201 113 201 c 2
 112 200 111 200 111 200 c 0
 109 206 103 219 103 219 c 2
 103 220 l 2
 103 221 105 221 106 221 c 0
 106 221 107 220 112 217 c 0
 113 217 113 218 114 218 c 0
 116 218 115 220 117 220 c 0x311e06
173 193 m 2x371e0084
 169 198 l 2
 169 200 l 1
 170 200 l 1
 175 202 179 203 183 204 c 1
 183 178 l 1
 278 178 l 1
 278 178 280 179 282 179 c 0
 284 179 284 178 284 178 c 2
 284 177 283 176 281 170 c 1
 278 171 276 171 274 171 c 0
 269 172 266 172 263 171 c 0
 261 171 250 167 250 158 c 2
 250 153 l 2
 250 153 252 129 281 134 c 1
 281 129 l 1
 278 129 276 126 274 126 c 0
 270 125 266 126 263 126 c 0
 240 126 233 157 246 170 c 1
 231 170 l 1
 231 141 l 1
 227 127 210 126 210 126 c 0
 196 126 194 138 194 142 c 2
 194 170 l 1
 183 170 l 1
 183 103 l 1
 180 101 177 100 173 99 c 1
 173 170 l 1
 162 170 l 1
 162 128 l 1
 159 126 157 126 153 125 c 1
 153 170 l 1
 142 170 l 1
 142 137 l 1
 144 135 144 133 144 133 c 2
 145 131 146 131 146 130 c 2
 145 129 l 1
 145 128 l 1
 142 126 138 126 134 125 c 1
 134 126 133 126 133 127 c 2
 133 129 l 1
 130 127 119 125 114 125 c 0
 99 125 98 142 98 144 c 2
 98 170 l 1
 87 170 l 1
 87 141 l 1
 83 127 66 126 66 126 c 0
 57 124 50 132 50 142 c 2
 50 170 l 1
 31 170 l 2
 29 171 l 0
 29 174 29 175 42 186 c 1
 44 184 46 181 48 178 c 1
 132 178 l 1
 132 193 l 1x371e08c680
 127 198 127 197 127 198 c 0x371e01
 128 200 128 201 140 203 c 0
 141 203 141 204 141 204 c 1
 142 204 l 1
 142 178 l 1
 173 178 l 1
 173 193 l 2x371e0084
322 191 m 1x301e000008
 322 112 l 1
 305 112 l 1
 305 191 l 1
 322 191 l 1x301e000008
69 134 m 0x361e
 74 134 78 136 78 143 c 2
 78 170 l 1
 60 170 l 1
 60 161 60 154 60 145 c 0
 60 134 68 134 69 134 c 0x361e
108 170 m 1x361e0880
 108 146 l 2
 108 144 111 136 114 134 c 0
 116 133 119 134 123 134 c 2
 126 134 l 1
 128 135 130 136 132 138 c 1
 132 170 l 1
 108 170 l 1x361e0880
213 134 m 0
 216 134 222 134 222 143 c 2
 222 170 l 1
 204 170 l 1
 204 147 l 2x361e000280
 204 143 204 134 213 134 c 0
151 118 m 2
 151 118 152 117 158 114 c 1x301e0020
 158 114 160 115 163 117 c 0
 164 117 l 0
 164 118 l 0
 165 118 166 118 166 117 c 2
 166 114 l 1x301e0010
 161 104 160 104 159 101 c 1
 159 99 l 2
 159 98 158 98 158 98 c 2
 157 97 157 97 157 98 c 0
 156 100 155 102 149 116 c 1
 149 117 l 2
 149 118 150 118 151 118 c 2
322 95 m 1x301e000008
 322 14 l 1
 305 14 l 1
 305 95 l 1
 322 95 l 1x301e000008
322 -4 m 1
 322 -81 l 1
 305 -81 l 1
 305 -4 l 1
 322 -4 l 1
322 -98 m 1
 322 -188 l 1xb01e000020
 250 -188 l 1
 250 -171 l 1x701e000020
 305 -171 l 1x701e000008
 305 -98 l 1
 322 -98 l 1
83 -171 m 1x701e10
 154 -171 l 1
 154 -188 l 1
 83 -188 l 1
 83 -171 l 1x701e10
167 -171 m 1x701e0008
 238 -171 l 1
 238 -188 l 1
 167 -188 l 1
 167 -171 l 1x701e0008
EndSplineSet
EndChar

StartChar: G
Encoding: 71 71 7
Width: 321
VWidth: 800
Flags: HW
HStem: -188 86<0 17 305 322> -188 17<17 70 83 154 167 238 250 305> -85 77<0 17 305 322> 14 82<0 17 305 322> 108 79<0 17 305 322> 126 8<62 76 115 132 206 220> 170 8<45 50 60 78 87 98 108 132 142 153 162 173 183 194 204 222 231 246 253 278 278 281> 204 86<0 17 305 322> 228 9<113 131> 248 9<268 288> 274 8<62 75 102 114 146 158 172 196 226 238 247 258> 306 77<0 17 305 322> 405 81<0 17 305 322> 498 17G<0 17 305 322> 570 18<17 70 83 154 167 238 250 305>
VStem: 0 70<-188 -171 570 588> 0 17<-171 -102 -85 -8 10 90 108 187 204 290 306 383 401 481 498 570> 53 10<134 170 229 274> 75 10<134 170 205 273> 83 71<-188 -171 570 588> 98 10<136 170> 103 10<207 214> 117 10<250 272> 127 14<193 202> 132 10<126 129 134 170 178 198 229 236 239 274> 153 10<126 170> 158 10<204 231 238 270> 164 2<117 118> 167 70<-188 -171 570 588> 173 10<101 170 178 200> 194 10<135 170> 216 10<204 274> 222 10<135 170> 238 10<230 274> 250 71<-188 -171 570 588> 258 10<204 249 256 274> 305 17<-171 -98 -81 -4 14 95 112 191 209 294 311 387 405 486 502 570>
LayerCount: 2
Fore
SplineSet
0 481 m 1x301e80
 17 482 l 1
 17 401 l 1
 0 400 l 1
 0 481 l 1x301e80
0 383 m 1
 17 383 l 1
 17 306 l 1
 0 306 l 1
 0 383 l 1
0 290 m 1x311e80
 17 290 l 1
 17 204 l 1
 0 204 l 1
 0 290 l 1x311e80
0 187 m 1x381e80
 17 187 l 1
 17 108 l 1
 0 108 l 1
 0 187 l 1x381e80
0 90 m 1
 17 91 l 1
 17 10 l 1
 0 10 l 1
 0 90 l 1
0 -8 m 1
 17 -8 l 1
 17 -85 l 1
 0 -85 l 1
 0 -8 l 1
0 -102 m 1xb01e80
 17 -102 l 1xb01e80
 17 -171 l 1x701e80
 70 -171 l 1
 70 -188 l 1x701f
 0 -188 l 1xb01f
 0 -102 l 1xb01e80
0 588 m 1x301f
 70 588 l 1
 70 570 l 1x301f
 17 570 l 1
 17 498 l 1
 0 498 l 1x301e80
 0 528 0 558 0 588 c 1x301f
83 588 m 1x301e10
 154 588 l 1
 154 570 l 1
 83 570 l 1
 83 588 l 1x301e10
167 588 m 1x301e0008
 238 588 l 1
 238 570 l 1
 167 570 l 1
 167 588 l 1x301e0008
250 588 m 1x301e000020
 322 588 l 1x301e000020
 322 502 l 1
 305 502 l 1
 305 570 l 1x301e000008
 250 570 l 1
 250 588 l 1x301e000020
322 486 m 1x301e000008
 322 405 l 1
 305 405 l 1
 305 486 l 1
 322 486 l 1x301e000008
322 387 m 1
 322 311 l 1
 305 310 l 1
 305 387 l 1
 322 387 l 1
322 294 m 1
 322 209 l 1
 305 208 l 1
 305 294 l 1
 322 294 l 1
132 280 m 2x30be0aa0
 133 281 133 280 144 286 c 1
 144 287 l 1
 146 285 146 286 147 282 c 1
 156 282 l 1
 158 283 158 283 168 285 c 1
 168 276 l 1
 174 278 180 280 186 282 c 1
 191 282 l 2
 212 282 217 249 184 235 c 0
 180 234 167 229 167 229 c 2
 167 206 l 1
 160 203 161 203 158 202 c 1
 158 274 l 1
 146 274 l 1
 146 231 l 1
 143 229 140 229 137 228 c 1
 137 236 l 1
 135 235 134 234 132 233 c 0
 127 231 123 230 118 228 c 0
 112 228 97 228 91 240 c 1
 91 243 l 1
 99 245 100 246 100 246 c 0
 112 246 117 254 117 262 c 0
 117 267 115 275 102 275 c 1
 102 280 l 1
 105 280 107 282 108 282 c 2
 110 282 l 2
 112 282 127 282 127 262 c 0
 127 247 114 242 106 239 c 1
 113 237 113 237 114 237 c 0
 123 235 134 242 137 250 c 1
 137 273 l 2
 137 273 132 278 132 279 c 2
 132 280 l 2x30be0aa0
48 280 m 2
 49 281 49 280 60 286 c 0
 63 282 l 2
 74 282 l 1
 76 283 76 283 86 285 c 1
 85 282 85 278 85 273 c 2
 85 206 l 1
 78 203 78 203 75 202 c 1
 75 274 l 1
 62 274 l 1
 62 231 l 1
 59 229 56 229 53 228 c 1
 53 273 l 1x30be60
 50 278 48 277 48 279 c 2
 48 280 l 2
211 281 m 0
 214 283 222 286 222 286 c 0
 224 284 224 285 226 282 c 1
 257 282 l 1
 259 283 259 283 269 285 c 1
 269 283 268 280 268 276 c 2
 268 256 l 1
 270 256 l 2
 275 256 280 257 284 257 c 2
 289 257 l 1
 289 256 288 253 286 247 c 0
 285 247 284 248 282 248 c 0
 280 248 275 249 268 249 c 1
 268 206 l 1
 261 203 261 203 258 202 c 1
 258 274 l 1
 247 274 l 1
 247 231 l 1
 240 228 241 228 238 227 c 1
 238 274 l 1
 226 274 l 1
 226 206 l 1
 219 203 219 203 216 202 c 1
 216 273 l 1x307e000150
 211 278 211 277 211 279 c 0
 211 280 211 280 211 281 c 0
170 238 m 0
 195 242 197 262 197 262 c 0
 198 264 200 274 185 274 c 0
 179 274 169 269 167 267 c 1
 167 238 l 1x301e0020
 168 238 169 238 170 238 c 0
117 220 m 0x311e06
 118 220 117 221 118 221 c 0
 119 221 120 221 120 220 c 2
 120 218 l 2
 120 216 120 216 114 204 c 1
 114 202 l 2
 114 201 113 201 113 201 c 2
 112 200 111 200 111 200 c 0
 109 206 103 219 103 219 c 2
 103 220 l 2
 103 221 105 221 106 221 c 0
 106 221 107 220 112 217 c 0
 113 217 113 218 114 218 c 0
 116 218 115 220 117 220 c 0x311e06
173 193 m 2x371e0084
 169 198 l 2
 169 200 l 1
 170 200 l 1
 175 202 179 203 183 204 c 1
 183 178 l 1
 278 178 l 1
 278 178 280 179 282 179 c 0
 284 179 284 178 284 178 c 2
 284 177 283 176 281 170 c 1
 278 171 276 171 274 171 c 0
 269 172 266 172 263 171 c 0
 261 171 250 167 250 158 c 2
 250 153 l 2
 250 153 252 129 281 134 c 1
 281 129 l 1
 278 129 276 126 274 126 c 0
 270 125 266 126 263 126 c 0
 240 126 233 157 246 170 c 1
 231 170 l 1
 231 141 l 1
 227 127 210 126 210 126 c 0
 196 126 194 138 194 142 c 2
 194 170 l 1
 183 170 l 1
 183 103 l 1
 180 101 177 100 173 99 c 1
 173 170 l 1
 162 170 l 1
 162 128 l 1
 159 126 157 126 153 125 c 1
 153 170 l 1
 142 170 l 1
 142 137 l 1
 144 135 144 133 144 133 c 2
 145 131 146 131 146 130 c 2
 145 129 l 1
 145 128 l 1
 142 126 138 126 134 125 c 1
 134 126 133 126 133 127 c 2
 133 129 l 1
 130 127 119 125 114 125 c 0
 99 125 98 142 98 144 c 2
 98 170 l 1
 87 170 l 1
 87 141 l 1
 83 127 66 126 66 126 c 0
 57 124 50 132 50 142 c 2
 50 170 l 1
 31 170 l 2
 29 171 l 0
 29 174 29 175 42 186 c 1
 44 184 46 181 48 178 c 1
 132 178 l 1
 132 193 l 1x371e08c680
 127 198 127 197 127 198 c 0x371e01
 128 200 128 201 140 203 c 0
 141 203 141 204 141 204 c 1
 142 204 l 1
 142 178 l 1
 173 178 l 1
 173 193 l 2x371e0084
322 191 m 1x301e000008
 322 112 l 1
 305 112 l 1
 305 191 l 1
 322 191 l 1x301e000008
69 134 m 0x361e
 74 134 78 136 78 143 c 2
 78 170 l 1
 60 170 l 1
 60 161 60 154 60 145 c 0
 60 134 68 134 69 134 c 0x361e
108 170 m 1x361e0880
 108 146 l 2
 108 144 111 136 114 134 c 0
 116 133 119 134 123 134 c 2
 126 134 l 1
 128 135 130 136 132 138 c 1
 132 170 l 1
 108 170 l 1x361e0880
213 134 m 0
 216 134 222 134 222 143 c 2
 222 170 l 1
 204 170 l 1
 204 147 l 2x361e000280
 204 143 204 134 213 134 c 0
151 118 m 2
 151 118 152 117 158 114 c 1x301e0020
 158 114 160 115 163 117 c 0
 164 117 l 0
 164 118 l 0
 165 118 166 118 166 117 c 2
 166 114 l 1x301e0010
 161 104 160 104 159 101 c 1
 159 99 l 2
 159 98 158 98 158 98 c 2
 157 97 157 97 157 98 c 0
 156 100 155 102 149 116 c 1
 149 117 l 2
 149 118 150 118 151 118 c 2
322 95 m 1x301e000008
 322 14 l 1
 305 14 l 1
 305 95 l 1
 322 95 l 1x301e000008
322 -4 m 1
 322 -81 l 1
 305 -81 l 1
 305 -4 l 1
 322 -4 l 1
322 -98 m 1
 322 -188 l 1xb01e000020
 250 -188 l 1
 250 -171 l 1x701e000020
 305 -171 l 1x701e000008
 305 -98 l 1
 322 -98 l 1
83 -171 m 1x701e10
 154 -171 l 1
 154 -188 l 1
 83 -188 l 1
 83 -171 l 1x701e10
167 -171 m 1x701e0008
 238 -171 l 1
 238 -188 l 1
 167 -188 l 1
 167 -171 l 1x701e0008
EndSplineSet
EndChar

StartChar: I
Encoding: 73 73 8
Width: 321
VWidth: 800
Flags: HW
HStem: -188 86<0 17 305 322> -188 17<17 70 83 154 167 238 250 305> -85 77<0 17 305 322> 14 82<0 17 305 322> 108 79<0 17 305 322> 126 8<62 76 115 132 206 220> 170 8<45 50 60 78 87 98 108 132 142 153 162 173 183 194 204 222 231 246 253 278 278 281> 204 86<0 17 305 322> 228 9<113 131> 248 9<268 288> 274 8<62 75 102 114 146 158 172 196 226 238 247 258> 306 77<0 17 305 322> 405 81<0 17 305 322> 498 17G<0 17 305 322> 570 18<17 70 83 154 167 238 250 305>
VStem: 0 70<-188 -171 570 588> 0 17<-171 -102 -85 -8 10 90 108 187 204 290 306 383 401 481 498 570> 53 10<134 170 229 274> 75 10<134 170 205 273> 83 71<-188 -171 570 588> 98 10<136 170> 103 10<207 214> 117 10<250 272> 127 14<193 202> 132 10<126 129 134 170 178 198 229 236 239 274> 153 10<126 170> 158 10<204 231 238 270> 164 2<117 118> 167 70<-188 -171 570 588> 173 10<101 170 178 200> 194 10<135 170> 216 10<204 274> 222 10<135 170> 238 10<230 274> 250 71<-188 -171 570 588> 258 10<204 249 256 274> 305 17<-171 -98 -81 -4 14 95 112 191 209 294 311 387 405 486 502 570>
LayerCount: 2
Fore
SplineSet
0 481 m 1x301e80
 17 482 l 1
 17 401 l 1
 0 400 l 1
 0 481 l 1x301e80
0 383 m 1
 17 383 l 1
 17 306 l 1
 0 306 l 1
 0 383 l 1
0 290 m 1x311e80
 17 290 l 1
 17 204 l 1
 0 204 l 1
 0 290 l 1x311e80
0 187 m 1x381e80
 17 187 l 1
 17 108 l 1
 0 108 l 1
 0 187 l 1x381e80
0 90 m 1
 17 91 l 1
 17 10 l 1
 0 10 l 1
 0 90 l 1
0 -8 m 1
 17 -8 l 1
 17 -85 l 1
 0 -85 l 1
 0 -8 l 1
0 -102 m 1xb01e80
 17 -102 l 1xb01e80
 17 -171 l 1x701e80
 70 -171 l 1
 70 -188 l 1x701f
 0 -188 l 1xb01f
 0 -102 l 1xb01e80
0 588 m 1x301f
 70 588 l 1
 70 570 l 1x301f
 17 570 l 1
 17 498 l 1
 0 498 l 1x301e80
 0 528 0 558 0 588 c 1x301f
83 588 m 1x301e10
 154 588 l 1
 154 570 l 1
 83 570 l 1
 83 588 l 1x301e10
167 588 m 1x301e0008
 238 588 l 1
 238 570 l 1
 167 570 l 1
 167 588 l 1x301e0008
250 588 m 1x301e000020
 322 588 l 1x301e000020
 322 502 l 1
 305 502 l 1
 305 570 l 1x301e000008
 250 570 l 1
 250 588 l 1x301e000020
322 486 m 1x301e000008
 322 405 l 1
 305 405 l 1
 305 486 l 1
 322 486 l 1x301e000008
322 387 m 1
 322 311 l 1
 305 310 l 1
 305 387 l 1
 322 387 l 1
322 294 m 1
 322 209 l 1
 305 208 l 1
 305 294 l 1
 322 294 l 1
132 280 m 2x30be0aa0
 133 281 133 280 144 286 c 1
 144 287 l 1
 146 285 146 286 147 282 c 1
 156 282 l 1
 158 283 158 283 168 285 c 1
 168 276 l 1
 174 278 180 280 186 282 c 1
 191 282 l 2
 212 282 217 249 184 235 c 0
 180 234 167 229 167 229 c 2
 167 206 l 1
 160 203 161 203 158 202 c 1
 158 274 l 1
 146 274 l 1
 146 231 l 1
 143 229 140 229 137 228 c 1
 137 236 l 1
 135 235 134 234 132 233 c 0
 127 231 123 230 118 228 c 0
 112 228 97 228 91 240 c 1
 91 243 l 1
 99 245 100 246 100 246 c 0
 112 246 117 254 117 262 c 0
 117 267 115 275 102 275 c 1
 102 280 l 1
 105 280 107 282 108 282 c 2
 110 282 l 2
 112 282 127 282 127 262 c 0
 127 247 114 242 106 239 c 1
 113 237 113 237 114 237 c 0
 123 235 134 242 137 250 c 1
 137 273 l 2
 137 273 132 278 132 279 c 2
 132 280 l 2x30be0aa0
48 280 m 2
 49 281 49 280 60 286 c 0
 63 282 l 2
 74 282 l 1
 76 283 76 283 86 285 c 1
 85 282 85 278 85 273 c 2
 85 206 l 1
 78 203 78 203 75 202 c 1
 75 274 l 1
 62 274 l 1
 62 231 l 1
 59 229 56 229 53 228 c 1
 53 273 l 1x30be60
 50 278 48 277 48 279 c 2
 48 280 l 2
211 281 m 0
 214 283 222 286 222 286 c 0
 224 284 224 285 226 282 c 1
 257 282 l 1
 259 283 259 283 269 285 c 1
 269 283 268 280 268 276 c 2
 268 256 l 1
 270 256 l 2
 275 256 280 257 284 257 c 2
 289 257 l 1
 289 256 288 253 286 247 c 0
 285 247 284 248 282 248 c 0
 280 248 275 249 268 249 c 1
 268 206 l 1
 261 203 261 203 258 202 c 1
 258 274 l 1
 247 274 l 1
 247 231 l 1
 240 228 241 228 238 227 c 1
 238 274 l 1
 226 274 l 1
 226 206 l 1
 219 203 219 203 216 202 c 1
 216 273 l 1x307e000150
 211 278 211 277 211 279 c 0
 211 280 211 280 211 281 c 0
170 238 m 0
 195 242 197 262 197 262 c 0
 198 264 200 274 185 274 c 0
 179 274 169 269 167 267 c 1
 167 238 l 1x301e0020
 168 238 169 238 170 238 c 0
117 220 m 0x311e06
 118 220 117 221 118 221 c 0
 119 221 120 221 120 220 c 2
 120 218 l 2
 120 216 120 216 114 204 c 1
 114 202 l 2
 114 201 113 201 113 201 c 2
 112 200 111 200 111 200 c 0
 109 206 103 219 103 219 c 2
 103 220 l 2
 103 221 105 221 106 221 c 0
 106 221 107 220 112 217 c 0
 113 217 113 218 114 218 c 0
 116 218 115 220 117 220 c 0x311e06
173 193 m 2x371e0084
 169 198 l 2
 169 200 l 1
 170 200 l 1
 175 202 179 203 183 204 c 1
 183 178 l 1
 278 178 l 1
 278 178 280 179 282 179 c 0
 284 179 284 178 284 178 c 2
 284 177 283 176 281 170 c 1
 278 171 276 171 274 171 c 0
 269 172 266 172 263 171 c 0
 261 171 250 167 250 158 c 2
 250 153 l 2
 250 153 252 129 281 134 c 1
 281 129 l 1
 278 129 276 126 274 126 c 0
 270 125 266 126 263 126 c 0
 240 126 233 157 246 170 c 1
 231 170 l 1
 231 141 l 1
 227 127 210 126 210 126 c 0
 196 126 194 138 194 142 c 2
 194 170 l 1
 183 170 l 1
 183 103 l 1
 180 101 177 100 173 99 c 1
 173 170 l 1
 162 170 l 1
 162 128 l 1
 159 126 157 126 153 125 c 1
 153 170 l 1
 142 170 l 1
 142 137 l 1
 144 135 144 133 144 133 c 2
 145 131 146 131 146 130 c 2
 145 129 l 1
 145 128 l 1
 142 126 138 126 134 125 c 1
 134 126 133 126 133 127 c 2
 133 129 l 1
 130 127 119 125 114 125 c 0
 99 125 98 142 98 144 c 2
 98 170 l 1
 87 170 l 1
 87 141 l 1
 83 127 66 126 66 126 c 0
 57 124 50 132 50 142 c 2
 50 170 l 1
 31 170 l 2
 29 171 l 0
 29 174 29 175 42 186 c 1
 44 184 46 181 48 178 c 1
 132 178 l 1
 132 193 l 1x371e08c680
 127 198 127 197 127 198 c 0x371e01
 128 200 128 201 140 203 c 0
 141 203 141 204 141 204 c 1
 142 204 l 1
 142 178 l 1
 173 178 l 1
 173 193 l 2x371e0084
322 191 m 1x301e000008
 322 112 l 1
 305 112 l 1
 305 191 l 1
 322 191 l 1x301e000008
69 134 m 0x361e
 74 134 78 136 78 143 c 2
 78 170 l 1
 60 170 l 1
 60 161 60 154 60 145 c 0
 60 134 68 134 69 134 c 0x361e
108 170 m 1x361e0880
 108 146 l 2
 108 144 111 136 114 134 c 0
 116 133 119 134 123 134 c 2
 126 134 l 1
 128 135 130 136 132 138 c 1
 132 170 l 1
 108 170 l 1x361e0880
213 134 m 0
 216 134 222 134 222 143 c 2
 222 170 l 1
 204 170 l 1
 204 147 l 2x361e000280
 204 143 204 134 213 134 c 0
151 118 m 2
 151 118 152 117 158 114 c 1x301e0020
 158 114 160 115 163 117 c 0
 164 117 l 0
 164 118 l 0
 165 118 166 118 166 117 c 2
 166 114 l 1x301e0010
 161 104 160 104 159 101 c 1
 159 99 l 2
 159 98 158 98 158 98 c 2
 157 97 157 97 157 98 c 0
 156 100 155 102 149 116 c 1
 149 117 l 2
 149 118 150 118 151 118 c 2
322 95 m 1x301e000008
 322 14 l 1
 305 14 l 1
 305 95 l 1
 322 95 l 1x301e000008
322 -4 m 1
 322 -81 l 1
 305 -81 l 1
 305 -4 l 1
 322 -4 l 1
322 -98 m 1
 322 -188 l 1xb01e000020
 250 -188 l 1
 250 -171 l 1x701e000020
 305 -171 l 1x701e000008
 305 -98 l 1
 322 -98 l 1
83 -171 m 1x701e10
 154 -171 l 1
 154 -188 l 1
 83 -188 l 1
 83 -171 l 1x701e10
167 -171 m 1x701e0008
 238 -171 l 1
 238 -188 l 1
 167 -188 l 1
 167 -171 l 1x701e0008
EndSplineSet
EndChar

StartChar: J
Encoding: 74 74 9
Width: 321
VWidth: 800
Flags: HW
HStem: -188 86<0 17 305 322> -188 17<17 70 83 154 167 238 250 305> -85 77<0 17 305 322> 14 82<0 17 305 322> 108 79<0 17 305 322> 126 8<62 76 115 132 206 220> 170 8<45 50 60 78 87 98 108 132 142 153 162 173 183 194 204 222 231 246 253 278 278 281> 204 86<0 17 305 322> 228 9<113 131> 248 9<268 288> 274 8<62 75 102 114 146 158 172 196 226 238 247 258> 306 77<0 17 305 322> 405 81<0 17 305 322> 498 17G<0 17 305 322> 570 18<17 70 83 154 167 238 250 305>
VStem: 0 70<-188 -171 570 588> 0 17<-171 -102 -85 -8 10 90 108 187 204 290 306 383 401 481 498 570> 53 10<134 170 229 274> 75 10<134 170 205 273> 83 71<-188 -171 570 588> 98 10<136 170> 103 10<207 214> 117 10<250 272> 127 14<193 202> 132 10<126 129 134 170 178 198 229 236 239 274> 153 10<126 170> 158 10<204 231 238 270> 164 2<117 118> 167 70<-188 -171 570 588> 173 10<101 170 178 200> 194 10<135 170> 216 10<204 274> 222 10<135 170> 238 10<230 274> 250 71<-188 -171 570 588> 258 10<204 249 256 274> 305 17<-171 -98 -81 -4 14 95 112 191 209 294 311 387 405 486 502 570>
LayerCount: 2
Fore
SplineSet
0 481 m 1x301e80
 17 482 l 1
 17 401 l 1
 0 400 l 1
 0 481 l 1x301e80
0 383 m 1
 17 383 l 1
 17 306 l 1
 0 306 l 1
 0 383 l 1
0 290 m 1x311e80
 17 290 l 1
 17 204 l 1
 0 204 l 1
 0 290 l 1x311e80
0 187 m 1x381e80
 17 187 l 1
 17 108 l 1
 0 108 l 1
 0 187 l 1x381e80
0 90 m 1
 17 91 l 1
 17 10 l 1
 0 10 l 1
 0 90 l 1
0 -8 m 1
 17 -8 l 1
 17 -85 l 1
 0 -85 l 1
 0 -8 l 1
0 -102 m 1xb01e80
 17 -102 l 1xb01e80
 17 -171 l 1x701e80
 70 -171 l 1
 70 -188 l 1x701f
 0 -188 l 1xb01f
 0 -102 l 1xb01e80
0 588 m 1x301f
 70 588 l 1
 70 570 l 1x301f
 17 570 l 1
 17 498 l 1
 0 498 l 1x301e80
 0 528 0 558 0 588 c 1x301f
83 588 m 1x301e10
 154 588 l 1
 154 570 l 1
 83 570 l 1
 83 588 l 1x301e10
167 588 m 1x301e0008
 238 588 l 1
 238 570 l 1
 167 570 l 1
 167 588 l 1x301e0008
250 588 m 1x301e000020
 322 588 l 1x301e000020
 322 502 l 1
 305 502 l 1
 305 570 l 1x301e000008
 250 570 l 1
 250 588 l 1x301e000020
322 486 m 1x301e000008
 322 405 l 1
 305 405 l 1
 305 486 l 1
 322 486 l 1x301e000008
322 387 m 1
 322 311 l 1
 305 310 l 1
 305 387 l 1
 322 387 l 1
322 294 m 1
 322 209 l 1
 305 208 l 1
 305 294 l 1
 322 294 l 1
132 280 m 2x30be0aa0
 133 281 133 280 144 286 c 1
 144 287 l 1
 146 285 146 286 147 282 c 1
 156 282 l 1
 158 283 158 283 168 285 c 1
 168 276 l 1
 174 278 180 280 186 282 c 1
 191 282 l 2
 212 282 217 249 184 235 c 0
 180 234 167 229 167 229 c 2
 167 206 l 1
 160 203 161 203 158 202 c 1
 158 274 l 1
 146 274 l 1
 146 231 l 1
 143 229 140 229 137 228 c 1
 137 236 l 1
 135 235 134 234 132 233 c 0
 127 231 123 230 118 228 c 0
 112 228 97 228 91 240 c 1
 91 243 l 1
 99 245 100 246 100 246 c 0
 112 246 117 254 117 262 c 0
 117 267 115 275 102 275 c 1
 102 280 l 1
 105 280 107 282 108 282 c 2
 110 282 l 2
 112 282 127 282 127 262 c 0
 127 247 114 242 106 239 c 1
 113 237 113 237 114 237 c 0
 123 235 134 242 137 250 c 1
 137 273 l 2
 137 273 132 278 132 279 c 2
 132 280 l 2x30be0aa0
48 280 m 2
 49 281 49 280 60 286 c 0
 63 282 l 2
 74 282 l 1
 76 283 76 283 86 285 c 1
 85 282 85 278 85 273 c 2
 85 206 l 1
 78 203 78 203 75 202 c 1
 75 274 l 1
 62 274 l 1
 62 231 l 1
 59 229 56 229 53 228 c 1
 53 273 l 1x30be60
 50 278 48 277 48 279 c 2
 48 280 l 2
211 281 m 0
 214 283 222 286 222 286 c 0
 224 284 224 285 226 282 c 1
 257 282 l 1
 259 283 259 283 269 285 c 1
 269 283 268 280 268 276 c 2
 268 256 l 1
 270 256 l 2
 275 256 280 257 284 257 c 2
 289 257 l 1
 289 256 288 253 286 247 c 0
 285 247 284 248 282 248 c 0
 280 248 275 249 268 249 c 1
 268 206 l 1
 261 203 261 203 258 202 c 1
 258 274 l 1
 247 274 l 1
 247 231 l 1
 240 228 241 228 238 227 c 1
 238 274 l 1
 226 274 l 1
 226 206 l 1
 219 203 219 203 216 202 c 1
 216 273 l 1x307e000150
 211 278 211 277 211 279 c 0
 211 280 211 280 211 281 c 0
170 238 m 0
 195 242 197 262 197 262 c 0
 198 264 200 274 185 274 c 0
 179 274 169 269 167 267 c 1
 167 238 l 1x301e0020
 168 238 169 238 170 238 c 0
117 220 m 0x311e06
 118 220 117 221 118 221 c 0
 119 221 120 221 120 220 c 2
 120 218 l 2
 120 216 120 216 114 204 c 1
 114 202 l 2
 114 201 113 201 113 201 c 2
 112 200 111 200 111 200 c 0
 109 206 103 219 103 219 c 2
 103 220 l 2
 103 221 105 221 106 221 c 0
 106 221 107 220 112 217 c 0
 113 217 113 218 114 218 c 0
 116 218 115 220 117 220 c 0x311e06
173 193 m 2x371e0084
 169 198 l 2
 169 200 l 1
 170 200 l 1
 175 202 179 203 183 204 c 1
 183 178 l 1
 278 178 l 1
 278 178 280 179 282 179 c 0
 284 179 284 178 284 178 c 2
 284 177 283 176 281 170 c 1
 278 171 276 171 274 171 c 0
 269 172 266 172 263 171 c 0
 261 171 250 167 250 158 c 2
 250 153 l 2
 250 153 252 129 281 134 c 1
 281 129 l 1
 278 129 276 126 274 126 c 0
 270 125 266 126 263 126 c 0
 240 126 233 157 246 170 c 1
 231 170 l 1
 231 141 l 1
 227 127 210 126 210 126 c 0
 196 126 194 138 194 142 c 2
 194 170 l 1
 183 170 l 1
 183 103 l 1
 180 101 177 100 173 99 c 1
 173 170 l 1
 162 170 l 1
 162 128 l 1
 159 126 157 126 153 125 c 1
 153 170 l 1
 142 170 l 1
 142 137 l 1
 144 135 144 133 144 133 c 2
 145 131 146 131 146 130 c 2
 145 129 l 1
 145 128 l 1
 142 126 138 126 134 125 c 1
 134 126 133 126 133 127 c 2
 133 129 l 1
 130 127 119 125 114 125 c 0
 99 125 98 142 98 144 c 2
 98 170 l 1
 87 170 l 1
 87 141 l 1
 83 127 66 126 66 126 c 0
 57 124 50 132 50 142 c 2
 50 170 l 1
 31 170 l 2
 29 171 l 0
 29 174 29 175 42 186 c 1
 44 184 46 181 48 178 c 1
 132 178 l 1
 132 193 l 1x371e08c680
 127 198 127 197 127 198 c 0x371e01
 128 200 128 201 140 203 c 0
 141 203 141 204 141 204 c 1
 142 204 l 1
 142 178 l 1
 173 178 l 1
 173 193 l 2x371e0084
322 191 m 1x301e000008
 322 112 l 1
 305 112 l 1
 305 191 l 1
 322 191 l 1x301e000008
69 134 m 0x361e
 74 134 78 136 78 143 c 2
 78 170 l 1
 60 170 l 1
 60 161 60 154 60 145 c 0
 60 134 68 134 69 134 c 0x361e
108 170 m 1x361e0880
 108 146 l 2
 108 144 111 136 114 134 c 0
 116 133 119 134 123 134 c 2
 126 134 l 1
 128 135 130 136 132 138 c 1
 132 170 l 1
 108 170 l 1x361e0880
213 134 m 0
 216 134 222 134 222 143 c 2
 222 170 l 1
 204 170 l 1
 204 147 l 2x361e000280
 204 143 204 134 213 134 c 0
151 118 m 2
 151 118 152 117 158 114 c 1x301e0020
 158 114 160 115 163 117 c 0
 164 117 l 0
 164 118 l 0
 165 118 166 118 166 117 c 2
 166 114 l 1x301e0010
 161 104 160 104 159 101 c 1
 159 99 l 2
 159 98 158 98 158 98 c 2
 157 97 157 97 157 98 c 0
 156 100 155 102 149 116 c 1
 149 117 l 2
 149 118 150 118 151 118 c 2
322 95 m 1x301e000008
 322 14 l 1
 305 14 l 1
 305 95 l 1
 322 95 l 1x301e000008
322 -4 m 1
 322 -81 l 1
 305 -81 l 1
 305 -4 l 1
 322 -4 l 1
322 -98 m 1
 322 -188 l 1xb01e000020
 250 -188 l 1
 250 -171 l 1x701e000020
 305 -171 l 1x701e000008
 305 -98 l 1
 322 -98 l 1
83 -171 m 1x701e10
 154 -171 l 1
 154 -188 l 1
 83 -188 l 1
 83 -171 l 1x701e10
167 -171 m 1x701e0008
 238 -171 l 1
 238 -188 l 1
 167 -188 l 1
 167 -171 l 1x701e0008
EndSplineSet
EndChar

StartChar: K
Encoding: 75 75 10
Width: 321
VWidth: 800
Flags: HW
HStem: -188 86<0 17 305 322> -188 17<17 70 83 154 167 238 250 305> -85 77<0 17 305 322> 14 82<0 17 305 322> 108 79<0 17 305 322> 126 8<62 76 115 132 206 220> 170 8<45 50 60 78 87 98 108 132 142 153 162 173 183 194 204 222 231 246 253 278 278 281> 204 86<0 17 305 322> 228 9<113 131> 248 9<268 288> 274 8<62 75 102 114 146 158 172 196 226 238 247 258> 306 77<0 17 305 322> 405 81<0 17 305 322> 498 17G<0 17 305 322> 570 18<17 70 83 154 167 238 250 305>
VStem: 0 70<-188 -171 570 588> 0 17<-171 -102 -85 -8 10 90 108 187 204 290 306 383 401 481 498 570> 53 10<134 170 229 274> 75 10<134 170 205 273> 83 71<-188 -171 570 588> 98 10<136 170> 103 10<207 214> 117 10<250 272> 127 14<193 202> 132 10<126 129 134 170 178 198 229 236 239 274> 153 10<126 170> 158 10<204 231 238 270> 164 2<117 118> 167 70<-188 -171 570 588> 173 10<101 170 178 200> 194 10<135 170> 216 10<204 274> 222 10<135 170> 238 10<230 274> 250 71<-188 -171 570 588> 258 10<204 249 256 274> 305 17<-171 -98 -81 -4 14 95 112 191 209 294 311 387 405 486 502 570>
LayerCount: 2
Fore
SplineSet
0 481 m 1x301e80
 17 482 l 1
 17 401 l 1
 0 400 l 1
 0 481 l 1x301e80
0 383 m 1
 17 383 l 1
 17 306 l 1
 0 306 l 1
 0 383 l 1
0 290 m 1x311e80
 17 290 l 1
 17 204 l 1
 0 204 l 1
 0 290 l 1x311e80
0 187 m 1x381e80
 17 187 l 1
 17 108 l 1
 0 108 l 1
 0 187 l 1x381e80
0 90 m 1
 17 91 l 1
 17 10 l 1
 0 10 l 1
 0 90 l 1
0 -8 m 1
 17 -8 l 1
 17 -85 l 1
 0 -85 l 1
 0 -8 l 1
0 -102 m 1xb01e80
 17 -102 l 1xb01e80
 17 -171 l 1x701e80
 70 -171 l 1
 70 -188 l 1x701f
 0 -188 l 1xb01f
 0 -102 l 1xb01e80
0 588 m 1x301f
 70 588 l 1
 70 570 l 1x301f
 17 570 l 1
 17 498 l 1
 0 498 l 1x301e80
 0 528 0 558 0 588 c 1x301f
83 588 m 1x301e10
 154 588 l 1
 154 570 l 1
 83 570 l 1
 83 588 l 1x301e10
167 588 m 1x301e0008
 238 588 l 1
 238 570 l 1
 167 570 l 1
 167 588 l 1x301e0008
250 588 m 1x301e000020
 322 588 l 1x301e000020
 322 502 l 1
 305 502 l 1
 305 570 l 1x301e000008
 250 570 l 1
 250 588 l 1x301e000020
322 486 m 1x301e000008
 322 405 l 1
 305 405 l 1
 305 486 l 1
 322 486 l 1x301e000008
322 387 m 1
 322 311 l 1
 305 310 l 1
 305 387 l 1
 322 387 l 1
322 294 m 1
 322 209 l 1
 305 208 l 1
 305 294 l 1
 322 294 l 1
132 280 m 2x30be0aa0
 133 281 133 280 144 286 c 1
 144 287 l 1
 146 285 146 286 147 282 c 1
 156 282 l 1
 158 283 158 283 168 285 c 1
 168 276 l 1
 174 278 180 280 186 282 c 1
 191 282 l 2
 212 282 217 249 184 235 c 0
 180 234 167 229 167 229 c 2
 167 206 l 1
 160 203 161 203 158 202 c 1
 158 274 l 1
 146 274 l 1
 146 231 l 1
 143 229 140 229 137 228 c 1
 137 236 l 1
 135 235 134 234 132 233 c 0
 127 231 123 230 118 228 c 0
 112 228 97 228 91 240 c 1
 91 243 l 1
 99 245 100 246 100 246 c 0
 112 246 117 254 117 262 c 0
 117 267 115 275 102 275 c 1
 102 280 l 1
 105 280 107 282 108 282 c 2
 110 282 l 2
 112 282 127 282 127 262 c 0
 127 247 114 242 106 239 c 1
 113 237 113 237 114 237 c 0
 123 235 134 242 137 250 c 1
 137 273 l 2
 137 273 132 278 132 279 c 2
 132 280 l 2x30be0aa0
48 280 m 2
 49 281 49 280 60 286 c 0
 63 282 l 2
 74 282 l 1
 76 283 76 283 86 285 c 1
 85 282 85 278 85 273 c 2
 85 206 l 1
 78 203 78 203 75 202 c 1
 75 274 l 1
 62 274 l 1
 62 231 l 1
 59 229 56 229 53 228 c 1
 53 273 l 1x30be60
 50 278 48 277 48 279 c 2
 48 280 l 2
211 281 m 0
 214 283 222 286 222 286 c 0
 224 284 224 285 226 282 c 1
 257 282 l 1
 259 283 259 283 269 285 c 1
 269 283 268 280 268 276 c 2
 268 256 l 1
 270 256 l 2
 275 256 280 257 284 257 c 2
 289 257 l 1
 289 256 288 253 286 247 c 0
 285 247 284 248 282 248 c 0
 280 248 275 249 268 249 c 1
 268 206 l 1
 261 203 261 203 258 202 c 1
 258 274 l 1
 247 274 l 1
 247 231 l 1
 240 228 241 228 238 227 c 1
 238 274 l 1
 226 274 l 1
 226 206 l 1
 219 203 219 203 216 202 c 1
 216 273 l 1x307e000150
 211 278 211 277 211 279 c 0
 211 280 211 280 211 281 c 0
170 238 m 0
 195 242 197 262 197 262 c 0
 198 264 200 274 185 274 c 0
 179 274 169 269 167 267 c 1
 167 238 l 1x301e0020
 168 238 169 238 170 238 c 0
117 220 m 0x311e06
 118 220 117 221 118 221 c 0
 119 221 120 221 120 220 c 2
 120 218 l 2
 120 216 120 216 114 204 c 1
 114 202 l 2
 114 201 113 201 113 201 c 2
 112 200 111 200 111 200 c 0
 109 206 103 219 103 219 c 2
 103 220 l 2
 103 221 105 221 106 221 c 0
 106 221 107 220 112 217 c 0
 113 217 113 218 114 218 c 0
 116 218 115 220 117 220 c 0x311e06
173 193 m 2x371e0084
 169 198 l 2
 169 200 l 1
 170 200 l 1
 175 202 179 203 183 204 c 1
 183 178 l 1
 278 178 l 1
 278 178 280 179 282 179 c 0
 284 179 284 178 284 178 c 2
 284 177 283 176 281 170 c 1
 278 171 276 171 274 171 c 0
 269 172 266 172 263 171 c 0
 261 171 250 167 250 158 c 2
 250 153 l 2
 250 153 252 129 281 134 c 1
 281 129 l 1
 278 129 276 126 274 126 c 0
 270 125 266 126 263 126 c 0
 240 126 233 157 246 170 c 1
 231 170 l 1
 231 141 l 1
 227 127 210 126 210 126 c 0
 196 126 194 138 194 142 c 2
 194 170 l 1
 183 170 l 1
 183 103 l 1
 180 101 177 100 173 99 c 1
 173 170 l 1
 162 170 l 1
 162 128 l 1
 159 126 157 126 153 125 c 1
 153 170 l 1
 142 170 l 1
 142 137 l 1
 144 135 144 133 144 133 c 2
 145 131 146 131 146 130 c 2
 145 129 l 1
 145 128 l 1
 142 126 138 126 134 125 c 1
 134 126 133 126 133 127 c 2
 133 129 l 1
 130 127 119 125 114 125 c 0
 99 125 98 142 98 144 c 2
 98 170 l 1
 87 170 l 1
 87 141 l 1
 83 127 66 126 66 126 c 0
 57 124 50 132 50 142 c 2
 50 170 l 1
 31 170 l 2
 29 171 l 0
 29 174 29 175 42 186 c 1
 44 184 46 181 48 178 c 1
 132 178 l 1
 132 193 l 1x371e08c680
 127 198 127 197 127 198 c 0x371e01
 128 200 128 201 140 203 c 0
 141 203 141 204 141 204 c 1
 142 204 l 1
 142 178 l 1
 173 178 l 1
 173 193 l 2x371e0084
322 191 m 1x301e000008
 322 112 l 1
 305 112 l 1
 305 191 l 1
 322 191 l 1x301e000008
69 134 m 0x361e
 74 134 78 136 78 143 c 2
 78 170 l 1
 60 170 l 1
 60 161 60 154 60 145 c 0
 60 134 68 134 69 134 c 0x361e
108 170 m 1x361e0880
 108 146 l 2
 108 144 111 136 114 134 c 0
 116 133 119 134 123 134 c 2
 126 134 l 1
 128 135 130 136 132 138 c 1
 132 170 l 1
 108 170 l 1x361e0880
213 134 m 0
 216 134 222 134 222 143 c 2
 222 170 l 1
 204 170 l 1
 204 147 l 2x361e000280
 204 143 204 134 213 134 c 0
151 118 m 2
 151 118 152 117 158 114 c 1x301e0020
 158 114 160 115 163 117 c 0
 164 117 l 0
 164 118 l 0
 165 118 166 118 166 117 c 2
 166 114 l 1x301e0010
 161 104 160 104 159 101 c 1
 159 99 l 2
 159 98 158 98 158 98 c 2
 157 97 157 97 157 98 c 0
 156 100 155 102 149 116 c 1
 149 117 l 2
 149 118 150 118 151 118 c 2
322 95 m 1x301e000008
 322 14 l 1
 305 14 l 1
 305 95 l 1
 322 95 l 1x301e000008
322 -4 m 1
 322 -81 l 1
 305 -81 l 1
 305 -4 l 1
 322 -4 l 1
322 -98 m 1
 322 -188 l 1xb01e000020
 250 -188 l 1
 250 -171 l 1x701e000020
 305 -171 l 1x701e000008
 305 -98 l 1
 322 -98 l 1
83 -171 m 1x701e10
 154 -171 l 1
 154 -188 l 1
 83 -188 l 1
 83 -171 l 1x701e10
167 -171 m 1x701e0008
 238 -171 l 1
 238 -188 l 1
 167 -188 l 1
 167 -171 l 1x701e0008
EndSplineSet
EndChar

StartChar: L
Encoding: 76 76 11
Width: 321
VWidth: 800
Flags: HW
HStem: -188 86<0 17 305 322> -188 17<17 70 83 154 167 238 250 305> -85 77<0 17 305 322> 14 82<0 17 305 322> 108 79<0 17 305 322> 126 8<62 76 115 132 206 220> 170 8<45 50 60 78 87 98 108 132 142 153 162 173 183 194 204 222 231 246 253 278 278 281> 204 86<0 17 305 322> 228 9<113 131> 248 9<268 288> 274 8<62 75 102 114 146 158 172 196 226 238 247 258> 306 77<0 17 305 322> 405 81<0 17 305 322> 498 17G<0 17 305 322> 570 18<17 70 83 154 167 238 250 305>
VStem: 0 70<-188 -171 570 588> 0 17<-171 -102 -85 -8 10 90 108 187 204 290 306 383 401 481 498 570> 53 10<134 170 229 274> 75 10<134 170 205 273> 83 71<-188 -171 570 588> 98 10<136 170> 103 10<207 214> 117 10<250 272> 127 14<193 202> 132 10<126 129 134 170 178 198 229 236 239 274> 153 10<126 170> 158 10<204 231 238 270> 164 2<117 118> 167 70<-188 -171 570 588> 173 10<101 170 178 200> 194 10<135 170> 216 10<204 274> 222 10<135 170> 238 10<230 274> 250 71<-188 -171 570 588> 258 10<204 249 256 274> 305 17<-171 -98 -81 -4 14 95 112 191 209 294 311 387 405 486 502 570>
LayerCount: 2
Fore
SplineSet
0 481 m 1x301e80
 17 482 l 1
 17 401 l 1
 0 400 l 1
 0 481 l 1x301e80
0 383 m 1
 17 383 l 1
 17 306 l 1
 0 306 l 1
 0 383 l 1
0 290 m 1x311e80
 17 290 l 1
 17 204 l 1
 0 204 l 1
 0 290 l 1x311e80
0 187 m 1x381e80
 17 187 l 1
 17 108 l 1
 0 108 l 1
 0 187 l 1x381e80
0 90 m 1
 17 91 l 1
 17 10 l 1
 0 10 l 1
 0 90 l 1
0 -8 m 1
 17 -8 l 1
 17 -85 l 1
 0 -85 l 1
 0 -8 l 1
0 -102 m 1xb01e80
 17 -102 l 1xb01e80
 17 -171 l 1x701e80
 70 -171 l 1
 70 -188 l 1x701f
 0 -188 l 1xb01f
 0 -102 l 1xb01e80
0 588 m 1x301f
 70 588 l 1
 70 570 l 1x301f
 17 570 l 1
 17 498 l 1
 0 498 l 1x301e80
 0 528 0 558 0 588 c 1x301f
83 588 m 1x301e10
 154 588 l 1
 154 570 l 1
 83 570 l 1
 83 588 l 1x301e10
167 588 m 1x301e0008
 238 588 l 1
 238 570 l 1
 167 570 l 1
 167 588 l 1x301e0008
250 588 m 1x301e000020
 322 588 l 1x301e000020
 322 502 l 1
 305 502 l 1
 305 570 l 1x301e000008
 250 570 l 1
 250 588 l 1x301e000020
322 486 m 1x301e000008
 322 405 l 1
 305 405 l 1
 305 486 l 1
 322 486 l 1x301e000008
322 387 m 1
 322 311 l 1
 305 310 l 1
 305 387 l 1
 322 387 l 1
322 294 m 1
 322 209 l 1
 305 208 l 1
 305 294 l 1
 322 294 l 1
132 280 m 2x30be0aa0
 133 281 133 280 144 286 c 1
 144 287 l 1
 146 285 146 286 147 282 c 1
 156 282 l 1
 158 283 158 283 168 285 c 1
 168 276 l 1
 174 278 180 280 186 282 c 1
 191 282 l 2
 212 282 217 249 184 235 c 0
 180 234 167 229 167 229 c 2
 167 206 l 1
 160 203 161 203 158 202 c 1
 158 274 l 1
 146 274 l 1
 146 231 l 1
 143 229 140 229 137 228 c 1
 137 236 l 1
 135 235 134 234 132 233 c 0
 127 231 123 230 118 228 c 0
 112 228 97 228 91 240 c 1
 91 243 l 1
 99 245 100 246 100 246 c 0
 112 246 117 254 117 262 c 0
 117 267 115 275 102 275 c 1
 102 280 l 1
 105 280 107 282 108 282 c 2
 110 282 l 2
 112 282 127 282 127 262 c 0
 127 247 114 242 106 239 c 1
 113 237 113 237 114 237 c 0
 123 235 134 242 137 250 c 1
 137 273 l 2
 137 273 132 278 132 279 c 2
 132 280 l 2x30be0aa0
48 280 m 2
 49 281 49 280 60 286 c 0
 63 282 l 2
 74 282 l 1
 76 283 76 283 86 285 c 1
 85 282 85 278 85 273 c 2
 85 206 l 1
 78 203 78 203 75 202 c 1
 75 274 l 1
 62 274 l 1
 62 231 l 1
 59 229 56 229 53 228 c 1
 53 273 l 1x30be60
 50 278 48 277 48 279 c 2
 48 280 l 2
211 281 m 0
 214 283 222 286 222 286 c 0
 224 284 224 285 226 282 c 1
 257 282 l 1
 259 283 259 283 269 285 c 1
 269 283 268 280 268 276 c 2
 268 256 l 1
 270 256 l 2
 275 256 280 257 284 257 c 2
 289 257 l 1
 289 256 288 253 286 247 c 0
 285 247 284 248 282 248 c 0
 280 248 275 249 268 249 c 1
 268 206 l 1
 261 203 261 203 258 202 c 1
 258 274 l 1
 247 274 l 1
 247 231 l 1
 240 228 241 228 238 227 c 1
 238 274 l 1
 226 274 l 1
 226 206 l 1
 219 203 219 203 216 202 c 1
 216 273 l 1x307e000150
 211 278 211 277 211 279 c 0
 211 280 211 280 211 281 c 0
170 238 m 0
 195 242 197 262 197 262 c 0
 198 264 200 274 185 274 c 0
 179 274 169 269 167 267 c 1
 167 238 l 1x301e0020
 168 238 169 238 170 238 c 0
117 220 m 0x311e06
 118 220 117 221 118 221 c 0
 119 221 120 221 120 220 c 2
 120 218 l 2
 120 216 120 216 114 204 c 1
 114 202 l 2
 114 201 113 201 113 201 c 2
 112 200 111 200 111 200 c 0
 109 206 103 219 103 219 c 2
 103 220 l 2
 103 221 105 221 106 221 c 0
 106 221 107 220 112 217 c 0
 113 217 113 218 114 218 c 0
 116 218 115 220 117 220 c 0x311e06
173 193 m 2x371e0084
 169 198 l 2
 169 200 l 1
 170 200 l 1
 175 202 179 203 183 204 c 1
 183 178 l 1
 278 178 l 1
 278 178 280 179 282 179 c 0
 284 179 284 178 284 178 c 2
 284 177 283 176 281 170 c 1
 278 171 276 171 274 171 c 0
 269 172 266 172 263 171 c 0
 261 171 250 167 250 158 c 2
 250 153 l 2
 250 153 252 129 281 134 c 1
 281 129 l 1
 278 129 276 126 274 126 c 0
 270 125 266 126 263 126 c 0
 240 126 233 157 246 170 c 1
 231 170 l 1
 231 141 l 1
 227 127 210 126 210 126 c 0
 196 126 194 138 194 142 c 2
 194 170 l 1
 183 170 l 1
 183 103 l 1
 180 101 177 100 173 99 c 1
 173 170 l 1
 162 170 l 1
 162 128 l 1
 159 126 157 126 153 125 c 1
 153 170 l 1
 142 170 l 1
 142 137 l 1
 144 135 144 133 144 133 c 2
 145 131 146 131 146 130 c 2
 145 129 l 1
 145 128 l 1
 142 126 138 126 134 125 c 1
 134 126 133 126 133 127 c 2
 133 129 l 1
 130 127 119 125 114 125 c 0
 99 125 98 142 98 144 c 2
 98 170 l 1
 87 170 l 1
 87 141 l 1
 83 127 66 126 66 126 c 0
 57 124 50 132 50 142 c 2
 50 170 l 1
 31 170 l 2
 29 171 l 0
 29 174 29 175 42 186 c 1
 44 184 46 181 48 178 c 1
 132 178 l 1
 132 193 l 1x371e08c680
 127 198 127 197 127 198 c 0x371e01
 128 200 128 201 140 203 c 0
 141 203 141 204 141 204 c 1
 142 204 l 1
 142 178 l 1
 173 178 l 1
 173 193 l 2x371e0084
322 191 m 1x301e000008
 322 112 l 1
 305 112 l 1
 305 191 l 1
 322 191 l 1x301e000008
69 134 m 0x361e
 74 134 78 136 78 143 c 2
 78 170 l 1
 60 170 l 1
 60 161 60 154 60 145 c 0
 60 134 68 134 69 134 c 0x361e
108 170 m 1x361e0880
 108 146 l 2
 108 144 111 136 114 134 c 0
 116 133 119 134 123 134 c 2
 126 134 l 1
 128 135 130 136 132 138 c 1
 132 170 l 1
 108 170 l 1x361e0880
213 134 m 0
 216 134 222 134 222 143 c 2
 222 170 l 1
 204 170 l 1
 204 147 l 2x361e000280
 204 143 204 134 213 134 c 0
151 118 m 2
 151 118 152 117 158 114 c 1x301e0020
 158 114 160 115 163 117 c 0
 164 117 l 0
 164 118 l 0
 165 118 166 118 166 117 c 2
 166 114 l 1x301e0010
 161 104 160 104 159 101 c 1
 159 99 l 2
 159 98 158 98 158 98 c 2
 157 97 157 97 157 98 c 0
 156 100 155 102 149 116 c 1
 149 117 l 2
 149 118 150 118 151 118 c 2
322 95 m 1x301e000008
 322 14 l 1
 305 14 l 1
 305 95 l 1
 322 95 l 1x301e000008
322 -4 m 1
 322 -81 l 1
 305 -81 l 1
 305 -4 l 1
 322 -4 l 1
322 -98 m 1
 322 -188 l 1xb01e000020
 250 -188 l 1
 250 -171 l 1x701e000020
 305 -171 l 1x701e000008
 305 -98 l 1
 322 -98 l 1
83 -171 m 1x701e10
 154 -171 l 1
 154 -188 l 1
 83 -188 l 1
 83 -171 l 1x701e10
167 -171 m 1x701e0008
 238 -171 l 1
 238 -188 l 1
 167 -188 l 1
 167 -171 l 1x701e0008
EndSplineSet
EndChar

StartChar: M
Encoding: 77 77 12
Width: 321
VWidth: 800
Flags: HW
HStem: -188 86<0 17 305 322> -188 17<17 70 83 154 167 238 250 305> -85 77<0 17 305 322> 14 82<0 17 305 322> 108 79<0 17 305 322> 126 8<62 76 115 132 206 220> 170 8<45 50 60 78 87 98 108 132 142 153 162 173 183 194 204 222 231 246 253 278 278 281> 204 86<0 17 305 322> 228 9<113 131> 248 9<268 288> 274 8<62 75 102 114 146 158 172 196 226 238 247 258> 306 77<0 17 305 322> 405 81<0 17 305 322> 498 17G<0 17 305 322> 570 18<17 70 83 154 167 238 250 305>
VStem: 0 70<-188 -171 570 588> 0 17<-171 -102 -85 -8 10 90 108 187 204 290 306 383 401 481 498 570> 53 10<134 170 229 274> 75 10<134 170 205 273> 83 71<-188 -171 570 588> 98 10<136 170> 103 10<207 214> 117 10<250 272> 127 14<193 202> 132 10<126 129 134 170 178 198 229 236 239 274> 153 10<126 170> 158 10<204 231 238 270> 164 2<117 118> 167 70<-188 -171 570 588> 173 10<101 170 178 200> 194 10<135 170> 216 10<204 274> 222 10<135 170> 238 10<230 274> 250 71<-188 -171 570 588> 258 10<204 249 256 274> 305 17<-171 -98 -81 -4 14 95 112 191 209 294 311 387 405 486 502 570>
LayerCount: 2
Fore
SplineSet
0 481 m 1x301e80
 17 482 l 1
 17 401 l 1
 0 400 l 1
 0 481 l 1x301e80
0 383 m 1
 17 383 l 1
 17 306 l 1
 0 306 l 1
 0 383 l 1
0 290 m 1x311e80
 17 290 l 1
 17 204 l 1
 0 204 l 1
 0 290 l 1x311e80
0 187 m 1x381e80
 17 187 l 1
 17 108 l 1
 0 108 l 1
 0 187 l 1x381e80
0 90 m 1
 17 91 l 1
 17 10 l 1
 0 10 l 1
 0 90 l 1
0 -8 m 1
 17 -8 l 1
 17 -85 l 1
 0 -85 l 1
 0 -8 l 1
0 -102 m 1xb01e80
 17 -102 l 1xb01e80
 17 -171 l 1x701e80
 70 -171 l 1
 70 -188 l 1x701f
 0 -188 l 1xb01f
 0 -102 l 1xb01e80
0 588 m 1x301f
 70 588 l 1
 70 570 l 1x301f
 17 570 l 1
 17 498 l 1
 0 498 l 1x301e80
 0 528 0 558 0 588 c 1x301f
83 588 m 1x301e10
 154 588 l 1
 154 570 l 1
 83 570 l 1
 83 588 l 1x301e10
167 588 m 1x301e0008
 238 588 l 1
 238 570 l 1
 167 570 l 1
 167 588 l 1x301e0008
250 588 m 1x301e000020
 322 588 l 1x301e000020
 322 502 l 1
 305 502 l 1
 305 570 l 1x301e000008
 250 570 l 1
 250 588 l 1x301e000020
322 486 m 1x301e000008
 322 405 l 1
 305 405 l 1
 305 486 l 1
 322 486 l 1x301e000008
322 387 m 1
 322 311 l 1
 305 310 l 1
 305 387 l 1
 322 387 l 1
322 294 m 1
 322 209 l 1
 305 208 l 1
 305 294 l 1
 322 294 l 1
132 280 m 2x30be0aa0
 133 281 133 280 144 286 c 1
 144 287 l 1
 146 285 146 286 147 282 c 1
 156 282 l 1
 158 283 158 283 168 285 c 1
 168 276 l 1
 174 278 180 280 186 282 c 1
 191 282 l 2
 212 282 217 249 184 235 c 0
 180 234 167 229 167 229 c 2
 167 206 l 1
 160 203 161 203 158 202 c 1
 158 274 l 1
 146 274 l 1
 146 231 l 1
 143 229 140 229 137 228 c 1
 137 236 l 1
 135 235 134 234 132 233 c 0
 127 231 123 230 118 228 c 0
 112 228 97 228 91 240 c 1
 91 243 l 1
 99 245 100 246 100 246 c 0
 112 246 117 254 117 262 c 0
 117 267 115 275 102 275 c 1
 102 280 l 1
 105 280 107 282 108 282 c 2
 110 282 l 2
 112 282 127 282 127 262 c 0
 127 247 114 242 106 239 c 1
 113 237 113 237 114 237 c 0
 123 235 134 242 137 250 c 1
 137 273 l 2
 137 273 132 278 132 279 c 2
 132 280 l 2x30be0aa0
48 280 m 2
 49 281 49 280 60 286 c 0
 63 282 l 2
 74 282 l 1
 76 283 76 283 86 285 c 1
 85 282 85 278 85 273 c 2
 85 206 l 1
 78 203 78 203 75 202 c 1
 75 274 l 1
 62 274 l 1
 62 231 l 1
 59 229 56 229 53 228 c 1
 53 273 l 1x30be60
 50 278 48 277 48 279 c 2
 48 280 l 2
211 281 m 0
 214 283 222 286 222 286 c 0
 224 284 224 285 226 282 c 1
 257 282 l 1
 259 283 259 283 269 285 c 1
 269 283 268 280 268 276 c 2
 268 256 l 1
 270 256 l 2
 275 256 280 257 284 257 c 2
 289 257 l 1
 289 256 288 253 286 247 c 0
 285 247 284 248 282 248 c 0
 280 248 275 249 268 249 c 1
 268 206 l 1
 261 203 261 203 258 202 c 1
 258 274 l 1
 247 274 l 1
 247 231 l 1
 240 228 241 228 238 227 c 1
 238 274 l 1
 226 274 l 1
 226 206 l 1
 219 203 219 203 216 202 c 1
 216 273 l 1x307e000150
 211 278 211 277 211 279 c 0
 211 280 211 280 211 281 c 0
170 238 m 0
 195 242 197 262 197 262 c 0
 198 264 200 274 185 274 c 0
 179 274 169 269 167 267 c 1
 167 238 l 1x301e0020
 168 238 169 238 170 238 c 0
117 220 m 0x311e06
 118 220 117 221 118 221 c 0
 119 221 120 221 120 220 c 2
 120 218 l 2
 120 216 120 216 114 204 c 1
 114 202 l 2
 114 201 113 201 113 201 c 2
 112 200 111 200 111 200 c 0
 109 206 103 219 103 219 c 2
 103 220 l 2
 103 221 105 221 106 221 c 0
 106 221 107 220 112 217 c 0
 113 217 113 218 114 218 c 0
 116 218 115 220 117 220 c 0x311e06
173 193 m 2x371e0084
 169 198 l 2
 169 200 l 1
 170 200 l 1
 175 202 179 203 183 204 c 1
 183 178 l 1
 278 178 l 1
 278 178 280 179 282 179 c 0
 284 179 284 178 284 178 c 2
 284 177 283 176 281 170 c 1
 278 171 276 171 274 171 c 0
 269 172 266 172 263 171 c 0
 261 171 250 167 250 158 c 2
 250 153 l 2
 250 153 252 129 281 134 c 1
 281 129 l 1
 278 129 276 126 274 126 c 0
 270 125 266 126 263 126 c 0
 240 126 233 157 246 170 c 1
 231 170 l 1
 231 141 l 1
 227 127 210 126 210 126 c 0
 196 126 194 138 194 142 c 2
 194 170 l 1
 183 170 l 1
 183 103 l 1
 180 101 177 100 173 99 c 1
 173 170 l 1
 162 170 l 1
 162 128 l 1
 159 126 157 126 153 125 c 1
 153 170 l 1
 142 170 l 1
 142 137 l 1
 144 135 144 133 144 133 c 2
 145 131 146 131 146 130 c 2
 145 129 l 1
 145 128 l 1
 142 126 138 126 134 125 c 1
 134 126 133 126 133 127 c 2
 133 129 l 1
 130 127 119 125 114 125 c 0
 99 125 98 142 98 144 c 2
 98 170 l 1
 87 170 l 1
 87 141 l 1
 83 127 66 126 66 126 c 0
 57 124 50 132 50 142 c 2
 50 170 l 1
 31 170 l 2
 29 171 l 0
 29 174 29 175 42 186 c 1
 44 184 46 181 48 178 c 1
 132 178 l 1
 132 193 l 1x371e08c680
 127 198 127 197 127 198 c 0x371e01
 128 200 128 201 140 203 c 0
 141 203 141 204 141 204 c 1
 142 204 l 1
 142 178 l 1
 173 178 l 1
 173 193 l 2x371e0084
322 191 m 1x301e000008
 322 112 l 1
 305 112 l 1
 305 191 l 1
 322 191 l 1x301e000008
69 134 m 0x361e
 74 134 78 136 78 143 c 2
 78 170 l 1
 60 170 l 1
 60 161 60 154 60 145 c 0
 60 134 68 134 69 134 c 0x361e
108 170 m 1x361e0880
 108 146 l 2
 108 144 111 136 114 134 c 0
 116 133 119 134 123 134 c 2
 126 134 l 1
 128 135 130 136 132 138 c 1
 132 170 l 1
 108 170 l 1x361e0880
213 134 m 0
 216 134 222 134 222 143 c 2
 222 170 l 1
 204 170 l 1
 204 147 l 2x361e000280
 204 143 204 134 213 134 c 0
151 118 m 2
 151 118 152 117 158 114 c 1x301e0020
 158 114 160 115 163 117 c 0
 164 117 l 0
 164 118 l 0
 165 118 166 118 166 117 c 2
 166 114 l 1x301e0010
 161 104 160 104 159 101 c 1
 159 99 l 2
 159 98 158 98 158 98 c 2
 157 97 157 97 157 98 c 0
 156 100 155 102 149 116 c 1
 149 117 l 2
 149 118 150 118 151 118 c 2
322 95 m 1x301e000008
 322 14 l 1
 305 14 l 1
 305 95 l 1
 322 95 l 1x301e000008
322 -4 m 1
 322 -81 l 1
 305 -81 l 1
 305 -4 l 1
 322 -4 l 1
322 -98 m 1
 322 -188 l 1xb01e000020
 250 -188 l 1
 250 -171 l 1x701e000020
 305 -171 l 1x701e000008
 305 -98 l 1
 322 -98 l 1
83 -171 m 1x701e10
 154 -171 l 1
 154 -188 l 1
 83 -188 l 1
 83 -171 l 1x701e10
167 -171 m 1x701e0008
 238 -171 l 1
 238 -188 l 1
 167 -188 l 1
 167 -171 l 1x701e0008
EndSplineSet
EndChar

StartChar: N
Encoding: 78 78 13
Width: 321
VWidth: 800
Flags: HW
HStem: -188 86<0 17 305 322> -188 17<17 70 83 154 167 238 250 305> -85 77<0 17 305 322> 14 82<0 17 305 322> 108 79<0 17 305 322> 126 8<62 76 115 132 206 220> 170 8<45 50 60 78 87 98 108 132 142 153 162 173 183 194 204 222 231 246 253 278 278 281> 204 86<0 17 305 322> 228 9<113 131> 248 9<268 288> 274 8<62 75 102 114 146 158 172 196 226 238 247 258> 306 77<0 17 305 322> 405 81<0 17 305 322> 498 21G<0 17 305 322> 570 18<17 70 83 154 167 238 250 305>
VStem: 0 70<-188 -171 570 588> 0 17<-171 -102 -85 -8 10 90 108 187 204 290 306 383 401 481 498 570> 53 10<134 170 229 274> 75 10<134 170 205 273> 83 71<-188 -171 570 588> 98 10<136 170> 103 10<207 214> 117 10<250 272> 132 10<126 129 134 170 178 198> 137 10<229 236 243 274> 153 10<126 170> 158 10<204 231 238 270> 164 2<117 118> 167 70<-188 -171 570 588> 173 10<101 170 178 200> 194 10<135 170> 216 10<204 274> 222 10<135 170> 238 10<230 274> 250 71<-188 -171 570 588> 258 10<204 249 256 274> 305 17<-171 -98 -81 -4 14 95 112 191 209 294 311 387 405 486 502 570>
LayerCount: 2
Fore
SplineSet
167 -171 m 1x701e0008
 238 -171 l 1
 238 -188 l 1
 167 -188 l 1
 167 -171 l 1x701e0008
83 -171 m 1x701e10
 154 -171 l 1
 154 -188 l 1
 83 -188 l 1
 83 -171 l 1x701e10
322 -98 m 1x701e000008
 322 -188 l 1xb01e000020
 250 -188 l 1
 250 -171 l 1x701e000020
 305 -171 l 1
 305 -98 l 1
 322 -98 l 1x701e000008
322 -4 m 1x301e000008
 322 -81 l 1
 305 -81 l 1
 305 -4 l 1
 322 -4 l 1x301e000008
322 95 m 1
 322 14 l 1
 305 14 l 1
 305 95 l 1
 322 95 l 1
151 118 m 2
 151 118 152 117 158 114 c 1x301e0020
 158 114 160 115 163 117 c 0
 164 117 l 0
 164 118 l 0
 165 118 166 118 166 117 c 2
 166 114 l 1x301e0010
 161 104 160 104 159 101 c 1
 159 99 l 2
 159 98 158 98 158 98 c 2
 157 97 157 97 157 98 c 0
 156 100 155 102 149 116 c 1
 149 117 l 2
 149 118 150 118 151 118 c 2
213 134 m 0x361e000280
 216 134 222 134 222 143 c 2
 222 170 l 1
 204 170 l 1
 204 147 l 2
 204 143 204 134 213 134 c 0x361e000280
108 170 m 1x361e09
 108 146 l 2
 108 144 111 136 114 134 c 0
 116 133 119 134 123 134 c 2
 126 134 l 1
 128 135 130 136 132 138 c 1
 132 170 l 1
 108 170 l 1x361e09
69 134 m 0
 74 134 78 136 78 143 c 2
 78 170 l 1
 60 170 l 1
 60 161 60 154 60 145 c 0
 60 134 68 134 69 134 c 0
322 191 m 1x301e000008
 322 112 l 1
 305 112 l 1
 305 191 l 1
 322 191 l 1x301e000008
173 193 m 2x371e0b4680
 169 198 l 2
 169 200 l 1
 170 200 l 1
 175 202 179 203 183 204 c 1
 183 178 l 1
 278 178 l 1
 278 178 280 179 282 179 c 0
 284 179 284 178 284 178 c 2
 284 177 283 176 281 170 c 1
 278 171 276 171 274 171 c 0
 269 172 266 172 263 171 c 0
 261 171 250 167 250 158 c 2
 250 153 l 2
 250 153 252 129 281 134 c 1
 281 129 l 1
 278 129 276 126 274 126 c 0
 270 125 266 126 263 126 c 0
 240 126 233 157 246 170 c 1
 231 170 l 1
 231 141 l 1
 227 127 210 126 210 126 c 0
 196 126 194 138 194 142 c 2
 194 170 l 1
 183 170 l 1
 183 103 l 1
 180 101 177 100 173 99 c 1
 173 170 l 1
 162 170 l 1
 162 128 l 1
 159 126 157 126 153 125 c 1
 153 170 l 1
 142 170 l 1
 142 137 l 1
 144 135 144 133 144 133 c 2
 145 131 146 131 146 130 c 2
 145 129 l 1
 145 128 l 1
 142 126 138 126 134 125 c 1
 134 126 133 126 133 127 c 2
 133 129 l 1
 130 127 119 125 114 125 c 0
 99 125 98 142 98 144 c 2
 98 170 l 1
 87 170 l 1
 87 141 l 1
 83 127 66 126 66 126 c 0
 57 124 50 132 50 142 c 2
 50 170 l 1
 31 170 l 2
 29 171 l 0
 29 174 29 175 42 186 c 1
 44 184 46 181 48 178 c 1
 132 178 l 1
 132 193 l 1
 127 198 127 197 127 198 c 0
 128 200 128 201 140 203 c 0
 141 203 141 204 141 204 c 1
 142 204 l 1
 142 178 l 1
 173 178 l 1
 173 193 l 2x371e0b4680
117 220 m 0
 118 220 117 221 118 221 c 0
 119 221 120 221 120 220 c 2
 120 218 l 2
 120 216 120 216 114 204 c 1
 114 202 l 2
 114 201 113 201 113 201 c 2
 112 200 111 200 111 200 c 0
 109 206 103 219 103 219 c 2
 103 220 l 2
 103 221 105 221 106 221 c 0
 106 221 107 220 112 217 c 0
 113 217 113 218 114 218 c 0x311e06
 116 218 115 220 117 220 c 0
170 238 m 0
 195 242 197 262 197 262 c 0
 198 264 200 274 185 274 c 0
 179 274 169 269 167 267 c 1
 167 238 l 1x301e0020
 168 238 169 238 170 238 c 0
211 281 m 0
 214 283 222 286 222 286 c 0
 224 284 224 285 226 282 c 1
 257 282 l 1
 259 283 259 283 269 285 c 1
 269 283 268 280 268 276 c 2
 268 256 l 1
 270 256 l 2
 275 256 280 257 284 257 c 2
 289 257 l 1
 289 256 288 253 286 247 c 0
 285 247 284 248 282 248 c 0
 280 248 275 249 268 249 c 1
 268 206 l 1
 261 203 261 203 258 202 c 1
 258 274 l 1
 247 274 l 1
 247 231 l 1
 240 228 241 228 238 227 c 1
 238 274 l 1
 226 274 l 1
 226 206 l 1
 219 203 219 203 216 202 c 1
 216 273 l 1x307e000150
 211 278 211 277 211 279 c 0
 211 280 211 280 211 281 c 0
48 280 m 2
 49 281 49 280 60 286 c 0
 63 282 l 2
 74 282 l 1
 76 283 76 283 86 285 c 1
 85 282 85 278 85 273 c 2
 85 206 l 1
 78 203 78 203 75 202 c 1
 75 274 l 1
 62 274 l 1
 62 231 l 1
 59 229 56 229 53 228 c 1
 53 273 l 1x30be60
 50 278 48 277 48 279 c 2
 48 280 l 2
132 280 m 2x30be01
 133 281 133 280 144 286 c 1
 144 287 l 1
 146 285 146 286 147 282 c 1
 156 282 l 1
 158 283 158 283 168 285 c 1
 168 276 l 1
 174 278 180 280 186 282 c 1
 191 282 l 2
 212 282 217 249 184 235 c 0
 180 234 167 229 167 229 c 2
 167 206 l 1
 160 203 161 203 158 202 c 1
 158 274 l 1
 146 274 l 1
 146 231 l 1
 143 229 140 229 137 228 c 1
 137 236 l 1x30be00a0
 135 235 134 234 132 233 c 0x30be01
 127 231 123 230 118 228 c 0
 112 228 97 228 91 240 c 1
 91 243 l 1
 99 245 100 246 100 246 c 0
 112 246 117 254 117 262 c 0
 117 267 115 275 102 275 c 1
 102 280 l 1
 105 280 107 282 108 282 c 2
 110 282 l 2
 112 282 127 282 127 262 c 0
 127 247 114 242 106 239 c 1
 113 237 113 237 114 237 c 0
 123 235 134 242 137 250 c 1
 137 273 l 2x30be0a80
 137 273 132 278 132 279 c 2
 132 280 l 2x30be01
322 294 m 1x301e000008
 322 209 l 1
 305 208 l 1
 305 294 l 1
 322 294 l 1x301e000008
322 387 m 1
 322 311 l 1
 305 310 l 1
 305 387 l 1
 322 387 l 1
322 486 m 1
 322 405 l 1
 305 405 l 1
 305 486 l 1
 322 486 l 1
250 588 m 1x301e000020
 322 588 l 1x301e000020
 322 502 l 1
 305 502 l 1
 305 570 l 1x301e000008
 250 570 l 1
 250 588 l 1x301e000020
167 588 m 1x301e0008
 238 588 l 1
 238 570 l 1
 167 570 l 1
 167 588 l 1x301e0008
83 588 m 1x301e10
 154 588 l 1
 154 570 l 1
 83 570 l 1
 83 588 l 1x301e10
0 588 m 1x301f
 70 588 l 1
 70 570 l 1x301f
 17 570 l 1
 17 498 l 1
 0 498 l 1x301e80
 0 528 0 558 0 588 c 1x301f
0 -102 m 1xb01e80
 17 -102 l 1xb01e80
 17 -171 l 1x701e80
 70 -171 l 1
 70 -188 l 1x701f
 0 -188 l 1xb01f
 0 -102 l 1xb01e80
0 -8 m 1
 17 -8 l 1
 17 -85 l 1
 0 -85 l 1
 0 -8 l 1
0 90 m 1
 17 91 l 1
 17 10 l 1
 0 10 l 1
 0 90 l 1
0 187 m 1x381e80
 17 187 l 1
 17 108 l 1
 0 108 l 1
 0 187 l 1x381e80
0 290 m 1x311e80
 17 290 l 1
 17 204 l 1
 0 204 l 1
 0 290 l 1x311e80
0 383 m 1
 17 383 l 1
 17 306 l 1
 0 306 l 1
 0 383 l 1
0 481 m 1
 17 482 l 1
 17 401 l 1
 0 400 l 1
 0 481 l 1
EndSplineSet
EndChar

StartChar: O
Encoding: 79 79 14
Width: 321
VWidth: 800
Flags: HW
HStem: -188 86<0 17 305 322> -188 17<17 70 83 154 167 238 250 305> -85 77<0 17 305 322> 14 82<0 17 305 322> 108 79<0 17 305 322> 126 8<62 76 115 132 206 220> 170 8<45 50 60 78 87 98 108 132 142 153 162 173 183 194 204 222 231 246 253 278 278 281> 204 86<0 17 305 322> 228 9<113 131> 248 9<268 288> 274 8<62 75 102 114 146 158 172 196 226 238 247 258> 306 77<0 17 305 322> 405 81<0 17 305 322> 498 17G<0 17 305 322> 570 18<17 70 83 154 167 238 250 305>
VStem: 0 70<-188 -171 570 588> 0 17<-171 -102 -85 -8 10 90 108 187 204 290 306 383 401 481 498 570> 53 10<134 170 229 274> 75 10<134 170 205 273> 83 71<-188 -171 570 588> 98 10<136 170> 103 10<207 214> 117 10<250 272> 127 14<193 202> 132 10<126 129 134 170 178 198 229 236 239 274> 153 10<126 170> 158 10<204 231 238 270> 164 2<117 118> 167 70<-188 -171 570 588> 173 10<101 170 178 200> 194 10<135 170> 216 10<204 274> 222 10<135 170> 238 10<230 274> 250 71<-188 -171 570 588> 258 10<204 249 256 274> 305 17<-171 -98 -81 -4 14 95 112 191 209 294 311 387 405 486 502 570>
LayerCount: 2
Fore
SplineSet
0 481 m 1x301e80
 17 482 l 1
 17 401 l 1
 0 400 l 1
 0 481 l 1x301e80
0 383 m 1
 17 383 l 1
 17 306 l 1
 0 306 l 1
 0 383 l 1
0 290 m 1x311e80
 17 290 l 1
 17 204 l 1
 0 204 l 1
 0 290 l 1x311e80
0 187 m 1x381e80
 17 187 l 1
 17 108 l 1
 0 108 l 1
 0 187 l 1x381e80
0 90 m 1
 17 91 l 1
 17 10 l 1
 0 10 l 1
 0 90 l 1
0 -8 m 1
 17 -8 l 1
 17 -85 l 1
 0 -85 l 1
 0 -8 l 1
0 -102 m 1xb01e80
 17 -102 l 1xb01e80
 17 -171 l 1x701e80
 70 -171 l 1
 70 -188 l 1x701f
 0 -188 l 1xb01f
 0 -102 l 1xb01e80
0 588 m 1x301f
 70 588 l 1
 70 570 l 1x301f
 17 570 l 1
 17 498 l 1
 0 498 l 1x301e80
 0 528 0 558 0 588 c 1x301f
83 588 m 1x301e10
 154 588 l 1
 154 570 l 1
 83 570 l 1
 83 588 l 1x301e10
167 588 m 1x301e0008
 238 588 l 1
 238 570 l 1
 167 570 l 1
 167 588 l 1x301e0008
250 588 m 1x301e000020
 322 588 l 1x301e000020
 322 502 l 1
 305 502 l 1
 305 570 l 1x301e000008
 250 570 l 1
 250 588 l 1x301e000020
322 486 m 1x301e000008
 322 405 l 1
 305 405 l 1
 305 486 l 1
 322 486 l 1x301e000008
322 387 m 1
 322 311 l 1
 305 310 l 1
 305 387 l 1
 322 387 l 1
322 294 m 1
 322 209 l 1
 305 208 l 1
 305 294 l 1
 322 294 l 1
132 280 m 2x30be0aa0
 133 281 133 280 144 286 c 1
 144 287 l 1
 146 285 146 286 147 282 c 1
 156 282 l 1
 158 283 158 283 168 285 c 1
 168 276 l 1
 174 278 180 280 186 282 c 1
 191 282 l 2
 212 282 217 249 184 235 c 0
 180 234 167 229 167 229 c 2
 167 206 l 1
 160 203 161 203 158 202 c 1
 158 274 l 1
 146 274 l 1
 146 231 l 1
 143 229 140 229 137 228 c 1
 137 236 l 1
 135 235 134 234 132 233 c 0
 127 231 123 230 118 228 c 0
 112 228 97 228 91 240 c 1
 91 243 l 1
 99 245 100 246 100 246 c 0
 112 246 117 254 117 262 c 0
 117 267 115 275 102 275 c 1
 102 280 l 1
 105 280 107 282 108 282 c 2
 110 282 l 2
 112 282 127 282 127 262 c 0
 127 247 114 242 106 239 c 1
 113 237 113 237 114 237 c 0
 123 235 134 242 137 250 c 1
 137 273 l 2
 137 273 132 278 132 279 c 2
 132 280 l 2x30be0aa0
48 280 m 2
 49 281 49 280 60 286 c 0
 63 282 l 2
 74 282 l 1
 76 283 76 283 86 285 c 1
 85 282 85 278 85 273 c 2
 85 206 l 1
 78 203 78 203 75 202 c 1
 75 274 l 1
 62 274 l 1
 62 231 l 1
 59 229 56 229 53 228 c 1
 53 273 l 1x30be60
 50 278 48 277 48 279 c 2
 48 280 l 2
211 281 m 0
 214 283 222 286 222 286 c 0
 224 284 224 285 226 282 c 1
 257 282 l 1
 259 283 259 283 269 285 c 1
 269 283 268 280 268 276 c 2
 268 256 l 1
 270 256 l 2
 275 256 280 257 284 257 c 2
 289 257 l 1
 289 256 288 253 286 247 c 0
 285 247 284 248 282 248 c 0
 280 248 275 249 268 249 c 1
 268 206 l 1
 261 203 261 203 258 202 c 1
 258 274 l 1
 247 274 l 1
 247 231 l 1
 240 228 241 228 238 227 c 1
 238 274 l 1
 226 274 l 1
 226 206 l 1
 219 203 219 203 216 202 c 1
 216 273 l 1x307e000150
 211 278 211 277 211 279 c 0
 211 280 211 280 211 281 c 0
170 238 m 0
 195 242 197 262 197 262 c 0
 198 264 200 274 185 274 c 0
 179 274 169 269 167 267 c 1
 167 238 l 1x301e0020
 168 238 169 238 170 238 c 0
117 220 m 0x311e06
 118 220 117 221 118 221 c 0
 119 221 120 221 120 220 c 2
 120 218 l 2
 120 216 120 216 114 204 c 1
 114 202 l 2
 114 201 113 201 113 201 c 2
 112 200 111 200 111 200 c 0
 109 206 103 219 103 219 c 2
 103 220 l 2
 103 221 105 221 106 221 c 0
 106 221 107 220 112 217 c 0
 113 217 113 218 114 218 c 0
 116 218 115 220 117 220 c 0x311e06
173 193 m 2x371e0084
 169 198 l 2
 169 200 l 1
 170 200 l 1
 175 202 179 203 183 204 c 1
 183 178 l 1
 278 178 l 1
 278 178 280 179 282 179 c 0
 284 179 284 178 284 178 c 2
 284 177 283 176 281 170 c 1
 278 171 276 171 274 171 c 0
 269 172 266 172 263 171 c 0
 261 171 250 167 250 158 c 2
 250 153 l 2
 250 153 252 129 281 134 c 1
 281 129 l 1
 278 129 276 126 274 126 c 0
 270 125 266 126 263 126 c 0
 240 126 233 157 246 170 c 1
 231 170 l 1
 231 141 l 1
 227 127 210 126 210 126 c 0
 196 126 194 138 194 142 c 2
 194 170 l 1
 183 170 l 1
 183 103 l 1
 180 101 177 100 173 99 c 1
 173 170 l 1
 162 170 l 1
 162 128 l 1
 159 126 157 126 153 125 c 1
 153 170 l 1
 142 170 l 1
 142 137 l 1
 144 135 144 133 144 133 c 2
 145 131 146 131 146 130 c 2
 145 129 l 1
 145 128 l 1
 142 126 138 126 134 125 c 1
 134 126 133 126 133 127 c 2
 133 129 l 1
 130 127 119 125 114 125 c 0
 99 125 98 142 98 144 c 2
 98 170 l 1
 87 170 l 1
 87 141 l 1
 83 127 66 126 66 126 c 0
 57 124 50 132 50 142 c 2
 50 170 l 1
 31 170 l 2
 29 171 l 0
 29 174 29 175 42 186 c 1
 44 184 46 181 48 178 c 1
 132 178 l 1
 132 193 l 1x371e08c680
 127 198 127 197 127 198 c 0x371e01
 128 200 128 201 140 203 c 0
 141 203 141 204 141 204 c 1
 142 204 l 1
 142 178 l 1
 173 178 l 1
 173 193 l 2x371e0084
322 191 m 1x301e000008
 322 112 l 1
 305 112 l 1
 305 191 l 1
 322 191 l 1x301e000008
69 134 m 0x361e
 74 134 78 136 78 143 c 2
 78 170 l 1
 60 170 l 1
 60 161 60 154 60 145 c 0
 60 134 68 134 69 134 c 0x361e
108 170 m 1x361e0880
 108 146 l 2
 108 144 111 136 114 134 c 0
 116 133 119 134 123 134 c 2
 126 134 l 1
 128 135 130 136 132 138 c 1
 132 170 l 1
 108 170 l 1x361e0880
213 134 m 0
 216 134 222 134 222 143 c 2
 222 170 l 1
 204 170 l 1
 204 147 l 2x361e000280
 204 143 204 134 213 134 c 0
151 118 m 2
 151 118 152 117 158 114 c 1x301e0020
 158 114 160 115 163 117 c 0
 164 117 l 0
 164 118 l 0
 165 118 166 118 166 117 c 2
 166 114 l 1x301e0010
 161 104 160 104 159 101 c 1
 159 99 l 2
 159 98 158 98 158 98 c 2
 157 97 157 97 157 98 c 0
 156 100 155 102 149 116 c 1
 149 117 l 2
 149 118 150 118 151 118 c 2
322 95 m 1x301e000008
 322 14 l 1
 305 14 l 1
 305 95 l 1
 322 95 l 1x301e000008
322 -4 m 1
 322 -81 l 1
 305 -81 l 1
 305 -4 l 1
 322 -4 l 1
322 -98 m 1
 322 -188 l 1xb01e000020
 250 -188 l 1
 250 -171 l 1x701e000020
 305 -171 l 1x701e000008
 305 -98 l 1
 322 -98 l 1
83 -171 m 1x701e10
 154 -171 l 1
 154 -188 l 1
 83 -188 l 1
 83 -171 l 1x701e10
167 -171 m 1x701e0008
 238 -171 l 1
 238 -188 l 1
 167 -188 l 1
 167 -171 l 1x701e0008
EndSplineSet
EndChar

StartChar: P
Encoding: 80 80 15
Width: 321
VWidth: 800
Flags: HW
HStem: -188 86<0 17 305 322> -188 17<17 70 83 154 167 238 250 305> -85 77<0 17 305 322> 14 82<0 17 305 322> 108 79<0 17 305 322> 126 8<62 76 115 132 206 220> 170 8<45 50 60 78 87 98 108 132 142 153 162 173 183 194 204 222 231 246 253 278 278 281> 204 86<0 17 305 322> 228 9<113 131> 248 9<268 288> 274 8<62 75 102 114 146 158 172 196 226 238 247 258> 306 77<0 17 305 322> 405 81<0 17 305 322> 498 17G<0 17 305 322> 570 18<17 70 83 154 167 238 250 305>
VStem: 0 70<-188 -171 570 588> 0 17<-171 -102 -85 -8 10 90 108 187 204 290 306 383 401 481 498 570> 53 10<134 170 229 274> 75 10<134 170 205 273> 83 71<-188 -171 570 588> 98 10<136 170> 103 10<207 214> 117 10<250 272> 127 14<193 202> 132 10<126 129 134 170 178 198 229 236 239 274> 153 10<126 170> 158 10<204 231 238 270> 164 2<117 118> 167 70<-188 -171 570 588> 173 10<101 170 178 200> 194 10<135 170> 216 10<204 274> 222 10<135 170> 238 10<230 274> 250 71<-188 -171 570 588> 258 10<204 249 256 274> 305 17<-171 -98 -81 -4 14 95 112 191 209 294 311 387 405 486 502 570>
LayerCount: 2
Fore
SplineSet
0 481 m 1x301e80
 17 482 l 1
 17 401 l 1
 0 400 l 1
 0 481 l 1x301e80
0 383 m 1
 17 383 l 1
 17 306 l 1
 0 306 l 1
 0 383 l 1
0 290 m 1x311e80
 17 290 l 1
 17 204 l 1
 0 204 l 1
 0 290 l 1x311e80
0 187 m 1x381e80
 17 187 l 1
 17 108 l 1
 0 108 l 1
 0 187 l 1x381e80
0 90 m 1
 17 91 l 1
 17 10 l 1
 0 10 l 1
 0 90 l 1
0 -8 m 1
 17 -8 l 1
 17 -85 l 1
 0 -85 l 1
 0 -8 l 1
0 -102 m 1xb01e80
 17 -102 l 1xb01e80
 17 -171 l 1x701e80
 70 -171 l 1
 70 -188 l 1x701f
 0 -188 l 1xb01f
 0 -102 l 1xb01e80
0 588 m 1x301f
 70 588 l 1
 70 570 l 1x301f
 17 570 l 1
 17 498 l 1
 0 498 l 1x301e80
 0 528 0 558 0 588 c 1x301f
83 588 m 1x301e10
 154 588 l 1
 154 570 l 1
 83 570 l 1
 83 588 l 1x301e10
167 588 m 1x301e0008
 238 588 l 1
 238 570 l 1
 167 570 l 1
 167 588 l 1x301e0008
250 588 m 1x301e000020
 322 588 l 1x301e000020
 322 502 l 1
 305 502 l 1
 305 570 l 1x301e000008
 250 570 l 1
 250 588 l 1x301e000020
322 486 m 1x301e000008
 322 405 l 1
 305 405 l 1
 305 486 l 1
 322 486 l 1x301e000008
322 387 m 1
 322 311 l 1
 305 310 l 1
 305 387 l 1
 322 387 l 1
322 294 m 1
 322 209 l 1
 305 208 l 1
 305 294 l 1
 322 294 l 1
132 280 m 2x30be0aa0
 133 281 133 280 144 286 c 1
 144 287 l 1
 146 285 146 286 147 282 c 1
 156 282 l 1
 158 283 158 283 168 285 c 1
 168 276 l 1
 174 278 180 280 186 282 c 1
 191 282 l 2
 212 282 217 249 184 235 c 0
 180 234 167 229 167 229 c 2
 167 206 l 1
 160 203 161 203 158 202 c 1
 158 274 l 1
 146 274 l 1
 146 231 l 1
 143 229 140 229 137 228 c 1
 137 236 l 1
 135 235 134 234 132 233 c 0
 127 231 123 230 118 228 c 0
 112 228 97 228 91 240 c 1
 91 243 l 1
 99 245 100 246 100 246 c 0
 112 246 117 254 117 262 c 0
 117 267 115 275 102 275 c 1
 102 280 l 1
 105 280 107 282 108 282 c 2
 110 282 l 2
 112 282 127 282 127 262 c 0
 127 247 114 242 106 239 c 1
 113 237 113 237 114 237 c 0
 123 235 134 242 137 250 c 1
 137 273 l 2
 137 273 132 278 132 279 c 2
 132 280 l 2x30be0aa0
48 280 m 2
 49 281 49 280 60 286 c 0
 63 282 l 2
 74 282 l 1
 76 283 76 283 86 285 c 1
 85 282 85 278 85 273 c 2
 85 206 l 1
 78 203 78 203 75 202 c 1
 75 274 l 1
 62 274 l 1
 62 231 l 1
 59 229 56 229 53 228 c 1
 53 273 l 1x30be60
 50 278 48 277 48 279 c 2
 48 280 l 2
211 281 m 0
 214 283 222 286 222 286 c 0
 224 284 224 285 226 282 c 1
 257 282 l 1
 259 283 259 283 269 285 c 1
 269 283 268 280 268 276 c 2
 268 256 l 1
 270 256 l 2
 275 256 280 257 284 257 c 2
 289 257 l 1
 289 256 288 253 286 247 c 0
 285 247 284 248 282 248 c 0
 280 248 275 249 268 249 c 1
 268 206 l 1
 261 203 261 203 258 202 c 1
 258 274 l 1
 247 274 l 1
 247 231 l 1
 240 228 241 228 238 227 c 1
 238 274 l 1
 226 274 l 1
 226 206 l 1
 219 203 219 203 216 202 c 1
 216 273 l 1x307e000150
 211 278 211 277 211 279 c 0
 211 280 211 280 211 281 c 0
170 238 m 0
 195 242 197 262 197 262 c 0
 198 264 200 274 185 274 c 0
 179 274 169 269 167 267 c 1
 167 238 l 1x301e0020
 168 238 169 238 170 238 c 0
117 220 m 0x311e06
 118 220 117 221 118 221 c 0
 119 221 120 221 120 220 c 2
 120 218 l 2
 120 216 120 216 114 204 c 1
 114 202 l 2
 114 201 113 201 113 201 c 2
 112 200 111 200 111 200 c 0
 109 206 103 219 103 219 c 2
 103 220 l 2
 103 221 105 221 106 221 c 0
 106 221 107 220 112 217 c 0
 113 217 113 218 114 218 c 0
 116 218 115 220 117 220 c 0x311e06
173 193 m 2x371e0084
 169 198 l 2
 169 200 l 1
 170 200 l 1
 175 202 179 203 183 204 c 1
 183 178 l 1
 278 178 l 1
 278 178 280 179 282 179 c 0
 284 179 284 178 284 178 c 2
 284 177 283 176 281 170 c 1
 278 171 276 171 274 171 c 0
 269 172 266 172 263 171 c 0
 261 171 250 167 250 158 c 2
 250 153 l 2
 250 153 252 129 281 134 c 1
 281 129 l 1
 278 129 276 126 274 126 c 0
 270 125 266 126 263 126 c 0
 240 126 233 157 246 170 c 1
 231 170 l 1
 231 141 l 1
 227 127 210 126 210 126 c 0
 196 126 194 138 194 142 c 2
 194 170 l 1
 183 170 l 1
 183 103 l 1
 180 101 177 100 173 99 c 1
 173 170 l 1
 162 170 l 1
 162 128 l 1
 159 126 157 126 153 125 c 1
 153 170 l 1
 142 170 l 1
 142 137 l 1
 144 135 144 133 144 133 c 2
 145 131 146 131 146 130 c 2
 145 129 l 1
 145 128 l 1
 142 126 138 126 134 125 c 1
 134 126 133 126 133 127 c 2
 133 129 l 1
 130 127 119 125 114 125 c 0
 99 125 98 142 98 144 c 2
 98 170 l 1
 87 170 l 1
 87 141 l 1
 83 127 66 126 66 126 c 0
 57 124 50 132 50 142 c 2
 50 170 l 1
 31 170 l 2
 29 171 l 0
 29 174 29 175 42 186 c 1
 44 184 46 181 48 178 c 1
 132 178 l 1
 132 193 l 1x371e08c680
 127 198 127 197 127 198 c 0x371e01
 128 200 128 201 140 203 c 0
 141 203 141 204 141 204 c 1
 142 204 l 1
 142 178 l 1
 173 178 l 1
 173 193 l 2x371e0084
322 191 m 1x301e000008
 322 112 l 1
 305 112 l 1
 305 191 l 1
 322 191 l 1x301e000008
69 134 m 0x361e
 74 134 78 136 78 143 c 2
 78 170 l 1
 60 170 l 1
 60 161 60 154 60 145 c 0
 60 134 68 134 69 134 c 0x361e
108 170 m 1x361e0880
 108 146 l 2
 108 144 111 136 114 134 c 0
 116 133 119 134 123 134 c 2
 126 134 l 1
 128 135 130 136 132 138 c 1
 132 170 l 1
 108 170 l 1x361e0880
213 134 m 0
 216 134 222 134 222 143 c 2
 222 170 l 1
 204 170 l 1
 204 147 l 2x361e000280
 204 143 204 134 213 134 c 0
151 118 m 2
 151 118 152 117 158 114 c 1x301e0020
 158 114 160 115 163 117 c 0
 164 117 l 0
 164 118 l 0
 165 118 166 118 166 117 c 2
 166 114 l 1x301e0010
 161 104 160 104 159 101 c 1
 159 99 l 2
 159 98 158 98 158 98 c 2
 157 97 157 97 157 98 c 0
 156 100 155 102 149 116 c 1
 149 117 l 2
 149 118 150 118 151 118 c 2
322 95 m 1x301e000008
 322 14 l 1
 305 14 l 1
 305 95 l 1
 322 95 l 1x301e000008
322 -4 m 1
 322 -81 l 1
 305 -81 l 1
 305 -4 l 1
 322 -4 l 1
322 -98 m 1
 322 -188 l 1xb01e000020
 250 -188 l 1
 250 -171 l 1x701e000020
 305 -171 l 1x701e000008
 305 -98 l 1
 322 -98 l 1
83 -171 m 1x701e10
 154 -171 l 1
 154 -188 l 1
 83 -188 l 1
 83 -171 l 1x701e10
167 -171 m 1x701e0008
 238 -171 l 1
 238 -188 l 1
 167 -188 l 1
 167 -171 l 1x701e0008
EndSplineSet
EndChar

StartChar: Q
Encoding: 81 81 16
Width: 321
VWidth: 800
Flags: HW
HStem: -188 86<0 17 305 322> -188 17<17 70 83 154 167 238 250 305> -85 77<0 17 305 322> 14 82<0 17 305 322> 108 79<0 17 305 322> 126 8<62 76 115 132 206 220> 170 8<45 50 60 78 87 98 108 132 142 153 162 173 183 194 204 222 231 246 253 278 278 281> 204 86<0 17 305 322> 228 9<113 131> 248 9<268 288> 274 8<62 75 102 114 146 158 172 196 226 238 247 258> 306 77<0 17 305 322> 405 81<0 17 305 322> 498 17G<0 17 305 322> 570 18<17 70 83 154 167 238 250 305>
VStem: 0 70<-188 -171 570 588> 0 17<-171 -102 -85 -8 10 90 108 187 204 290 306 383 401 481 498 570> 53 10<134 170 229 274> 75 10<134 170 205 273> 83 71<-188 -171 570 588> 98 10<136 170> 103 10<207 214> 117 10<250 272> 127 14<193 202> 132 10<126 129 134 170 178 198 229 236 239 274> 153 10<126 170> 158 10<204 231 238 270> 164 2<117 118> 167 70<-188 -171 570 588> 173 10<101 170 178 200> 194 10<135 170> 216 10<204 274> 222 10<135 170> 238 10<230 274> 250 71<-188 -171 570 588> 258 10<204 249 256 274> 305 17<-171 -98 -81 -4 14 95 112 191 209 294 311 387 405 486 502 570>
LayerCount: 2
Fore
SplineSet
0 481 m 1x301e80
 17 482 l 1
 17 401 l 1
 0 400 l 1
 0 481 l 1x301e80
0 383 m 1
 17 383 l 1
 17 306 l 1
 0 306 l 1
 0 383 l 1
0 290 m 1x311e80
 17 290 l 1
 17 204 l 1
 0 204 l 1
 0 290 l 1x311e80
0 187 m 1x381e80
 17 187 l 1
 17 108 l 1
 0 108 l 1
 0 187 l 1x381e80
0 90 m 1
 17 91 l 1
 17 10 l 1
 0 10 l 1
 0 90 l 1
0 -8 m 1
 17 -8 l 1
 17 -85 l 1
 0 -85 l 1
 0 -8 l 1
0 -102 m 1xb01e80
 17 -102 l 1xb01e80
 17 -171 l 1x701e80
 70 -171 l 1
 70 -188 l 1x701f
 0 -188 l 1xb01f
 0 -102 l 1xb01e80
0 588 m 1x301f
 70 588 l 1
 70 570 l 1x301f
 17 570 l 1
 17 498 l 1
 0 498 l 1x301e80
 0 528 0 558 0 588 c 1x301f
83 588 m 1x301e10
 154 588 l 1
 154 570 l 1
 83 570 l 1
 83 588 l 1x301e10
167 588 m 1x301e0008
 238 588 l 1
 238 570 l 1
 167 570 l 1
 167 588 l 1x301e0008
250 588 m 1x301e000020
 322 588 l 1x301e000020
 322 502 l 1
 305 502 l 1
 305 570 l 1x301e000008
 250 570 l 1
 250 588 l 1x301e000020
322 486 m 1x301e000008
 322 405 l 1
 305 405 l 1
 305 486 l 1
 322 486 l 1x301e000008
322 387 m 1
 322 311 l 1
 305 310 l 1
 305 387 l 1
 322 387 l 1
322 294 m 1
 322 209 l 1
 305 208 l 1
 305 294 l 1
 322 294 l 1
132 280 m 2x30be0aa0
 133 281 133 280 144 286 c 1
 144 287 l 1
 146 285 146 286 147 282 c 1
 156 282 l 1
 158 283 158 283 168 285 c 1
 168 276 l 1
 174 278 180 280 186 282 c 1
 191 282 l 2
 212 282 217 249 184 235 c 0
 180 234 167 229 167 229 c 2
 167 206 l 1
 160 203 161 203 158 202 c 1
 158 274 l 1
 146 274 l 1
 146 231 l 1
 143 229 140 229 137 228 c 1
 137 236 l 1
 135 235 134 234 132 233 c 0
 127 231 123 230 118 228 c 0
 112 228 97 228 91 240 c 1
 91 243 l 1
 99 245 100 246 100 246 c 0
 112 246 117 254 117 262 c 0
 117 267 115 275 102 275 c 1
 102 280 l 1
 105 280 107 282 108 282 c 2
 110 282 l 2
 112 282 127 282 127 262 c 0
 127 247 114 242 106 239 c 1
 113 237 113 237 114 237 c 0
 123 235 134 242 137 250 c 1
 137 273 l 2
 137 273 132 278 132 279 c 2
 132 280 l 2x30be0aa0
48 280 m 2
 49 281 49 280 60 286 c 0
 63 282 l 2
 74 282 l 1
 76 283 76 283 86 285 c 1
 85 282 85 278 85 273 c 2
 85 206 l 1
 78 203 78 203 75 202 c 1
 75 274 l 1
 62 274 l 1
 62 231 l 1
 59 229 56 229 53 228 c 1
 53 273 l 1x30be60
 50 278 48 277 48 279 c 2
 48 280 l 2
211 281 m 0
 214 283 222 286 222 286 c 0
 224 284 224 285 226 282 c 1
 257 282 l 1
 259 283 259 283 269 285 c 1
 269 283 268 280 268 276 c 2
 268 256 l 1
 270 256 l 2
 275 256 280 257 284 257 c 2
 289 257 l 1
 289 256 288 253 286 247 c 0
 285 247 284 248 282 248 c 0
 280 248 275 249 268 249 c 1
 268 206 l 1
 261 203 261 203 258 202 c 1
 258 274 l 1
 247 274 l 1
 247 231 l 1
 240 228 241 228 238 227 c 1
 238 274 l 1
 226 274 l 1
 226 206 l 1
 219 203 219 203 216 202 c 1
 216 273 l 1x307e000150
 211 278 211 277 211 279 c 0
 211 280 211 280 211 281 c 0
170 238 m 0
 195 242 197 262 197 262 c 0
 198 264 200 274 185 274 c 0
 179 274 169 269 167 267 c 1
 167 238 l 1x301e0020
 168 238 169 238 170 238 c 0
117 220 m 0x311e06
 118 220 117 221 118 221 c 0
 119 221 120 221 120 220 c 2
 120 218 l 2
 120 216 120 216 114 204 c 1
 114 202 l 2
 114 201 113 201 113 201 c 2
 112 200 111 200 111 200 c 0
 109 206 103 219 103 219 c 2
 103 220 l 2
 103 221 105 221 106 221 c 0
 106 221 107 220 112 217 c 0
 113 217 113 218 114 218 c 0
 116 218 115 220 117 220 c 0x311e06
173 193 m 2x371e0084
 169 198 l 2
 169 200 l 1
 170 200 l 1
 175 202 179 203 183 204 c 1
 183 178 l 1
 278 178 l 1
 278 178 280 179 282 179 c 0
 284 179 284 178 284 178 c 2
 284 177 283 176 281 170 c 1
 278 171 276 171 274 171 c 0
 269 172 266 172 263 171 c 0
 261 171 250 167 250 158 c 2
 250 153 l 2
 250 153 252 129 281 134 c 1
 281 129 l 1
 278 129 276 126 274 126 c 0
 270 125 266 126 263 126 c 0
 240 126 233 157 246 170 c 1
 231 170 l 1
 231 141 l 1
 227 127 210 126 210 126 c 0
 196 126 194 138 194 142 c 2
 194 170 l 1
 183 170 l 1
 183 103 l 1
 180 101 177 100 173 99 c 1
 173 170 l 1
 162 170 l 1
 162 128 l 1
 159 126 157 126 153 125 c 1
 153 170 l 1
 142 170 l 1
 142 137 l 1
 144 135 144 133 144 133 c 2
 145 131 146 131 146 130 c 2
 145 129 l 1
 145 128 l 1
 142 126 138 126 134 125 c 1
 134 126 133 126 133 127 c 2
 133 129 l 1
 130 127 119 125 114 125 c 0
 99 125 98 142 98 144 c 2
 98 170 l 1
 87 170 l 1
 87 141 l 1
 83 127 66 126 66 126 c 0
 57 124 50 132 50 142 c 2
 50 170 l 1
 31 170 l 2
 29 171 l 0
 29 174 29 175 42 186 c 1
 44 184 46 181 48 178 c 1
 132 178 l 1
 132 193 l 1x371e08c680
 127 198 127 197 127 198 c 0x371e01
 128 200 128 201 140 203 c 0
 141 203 141 204 141 204 c 1
 142 204 l 1
 142 178 l 1
 173 178 l 1
 173 193 l 2x371e0084
322 191 m 1x301e000008
 322 112 l 1
 305 112 l 1
 305 191 l 1
 322 191 l 1x301e000008
69 134 m 0x361e
 74 134 78 136 78 143 c 2
 78 170 l 1
 60 170 l 1
 60 161 60 154 60 145 c 0
 60 134 68 134 69 134 c 0x361e
108 170 m 1x361e0880
 108 146 l 2
 108 144 111 136 114 134 c 0
 116 133 119 134 123 134 c 2
 126 134 l 1
 128 135 130 136 132 138 c 1
 132 170 l 1
 108 170 l 1x361e0880
213 134 m 0
 216 134 222 134 222 143 c 2
 222 170 l 1
 204 170 l 1
 204 147 l 2x361e000280
 204 143 204 134 213 134 c 0
151 118 m 2
 151 118 152 117 158 114 c 1x301e0020
 158 114 160 115 163 117 c 0
 164 117 l 0
 164 118 l 0
 165 118 166 118 166 117 c 2
 166 114 l 1x301e0010
 161 104 160 104 159 101 c 1
 159 99 l 2
 159 98 158 98 158 98 c 2
 157 97 157 97 157 98 c 0
 156 100 155 102 149 116 c 1
 149 117 l 2
 149 118 150 118 151 118 c 2
322 95 m 1x301e000008
 322 14 l 1
 305 14 l 1
 305 95 l 1
 322 95 l 1x301e000008
322 -4 m 1
 322 -81 l 1
 305 -81 l 1
 305 -4 l 1
 322 -4 l 1
322 -98 m 1
 322 -188 l 1xb01e000020
 250 -188 l 1
 250 -171 l 1x701e000020
 305 -171 l 1x701e000008
 305 -98 l 1
 322 -98 l 1
83 -171 m 1x701e10
 154 -171 l 1
 154 -188 l 1
 83 -188 l 1
 83 -171 l 1x701e10
167 -171 m 1x701e0008
 238 -171 l 1
 238 -188 l 1
 167 -188 l 1
 167 -171 l 1x701e0008
EndSplineSet
EndChar

StartChar: R
Encoding: 82 82 17
Width: 321
VWidth: 800
Flags: HW
HStem: -188 86<0 17 305 322> -188 17<17 70 83 154 167 238 250 305> -85 77<0 17 305 322> 14 82<0 17 305 322> 108 79<0 17 305 322> 126 8<62 76 115 132 206 220> 170 8<45 50 60 78 87 98 108 132 142 153 162 173 183 194 204 222 231 246 253 278 278 281> 204 86<0 17 305 322> 228 9<113 131> 248 9<268 288> 274 8<62 75 102 114 146 158 172 196 226 238 247 258> 306 77<0 17 305 322> 405 81<0 17 305 322> 498 17G<0 17 305 322> 570 18<17 70 83 154 167 238 250 305>
VStem: 0 70<-188 -171 570 588> 0 17<-171 -102 -85 -8 10 90 108 187 204 290 306 383 401 481 498 570> 53 10<134 170 229 274> 75 10<134 170 205 273> 83 71<-188 -171 570 588> 98 10<136 170> 103 10<207 214> 117 10<250 272> 127 14<193 202> 132 10<126 129 134 170 178 198 229 236 239 274> 153 10<126 170> 158 10<204 231 238 270> 164 2<117 118> 167 70<-188 -171 570 588> 173 10<101 170 178 200> 194 10<135 170> 216 10<204 274> 222 10<135 170> 238 10<230 274> 250 71<-188 -171 570 588> 258 10<204 249 256 274> 305 17<-171 -98 -81 -4 14 95 112 191 209 294 311 387 405 486 502 570>
LayerCount: 2
Fore
SplineSet
0 481 m 1x301e80
 17 482 l 1
 17 401 l 1
 0 400 l 1
 0 481 l 1x301e80
0 383 m 1
 17 383 l 1
 17 306 l 1
 0 306 l 1
 0 383 l 1
0 290 m 1x311e80
 17 290 l 1
 17 204 l 1
 0 204 l 1
 0 290 l 1x311e80
0 187 m 1x381e80
 17 187 l 1
 17 108 l 1
 0 108 l 1
 0 187 l 1x381e80
0 90 m 1
 17 91 l 1
 17 10 l 1
 0 10 l 1
 0 90 l 1
0 -8 m 1
 17 -8 l 1
 17 -85 l 1
 0 -85 l 1
 0 -8 l 1
0 -102 m 1xb01e80
 17 -102 l 1xb01e80
 17 -171 l 1x701e80
 70 -171 l 1
 70 -188 l 1x701f
 0 -188 l 1xb01f
 0 -102 l 1xb01e80
0 588 m 1x301f
 70 588 l 1
 70 570 l 1x301f
 17 570 l 1
 17 498 l 1
 0 498 l 1x301e80
 0 528 0 558 0 588 c 1x301f
83 588 m 1x301e10
 154 588 l 1
 154 570 l 1
 83 570 l 1
 83 588 l 1x301e10
167 588 m 1x301e0008
 238 588 l 1
 238 570 l 1
 167 570 l 1
 167 588 l 1x301e0008
250 588 m 1x301e000020
 322 588 l 1x301e000020
 322 502 l 1
 305 502 l 1
 305 570 l 1x301e000008
 250 570 l 1
 250 588 l 1x301e000020
322 486 m 1x301e000008
 322 405 l 1
 305 405 l 1
 305 486 l 1
 322 486 l 1x301e000008
322 387 m 1
 322 311 l 1
 305 310 l 1
 305 387 l 1
 322 387 l 1
322 294 m 1
 322 209 l 1
 305 208 l 1
 305 294 l 1
 322 294 l 1
132 280 m 2x30be0aa0
 133 281 133 280 144 286 c 1
 144 287 l 1
 146 285 146 286 147 282 c 1
 156 282 l 1
 158 283 158 283 168 285 c 1
 168 276 l 1
 174 278 180 280 186 282 c 1
 191 282 l 2
 212 282 217 249 184 235 c 0
 180 234 167 229 167 229 c 2
 167 206 l 1
 160 203 161 203 158 202 c 1
 158 274 l 1
 146 274 l 1
 146 231 l 1
 143 229 140 229 137 228 c 1
 137 236 l 1
 135 235 134 234 132 233 c 0
 127 231 123 230 118 228 c 0
 112 228 97 228 91 240 c 1
 91 243 l 1
 99 245 100 246 100 246 c 0
 112 246 117 254 117 262 c 0
 117 267 115 275 102 275 c 1
 102 280 l 1
 105 280 107 282 108 282 c 2
 110 282 l 2
 112 282 127 282 127 262 c 0
 127 247 114 242 106 239 c 1
 113 237 113 237 114 237 c 0
 123 235 134 242 137 250 c 1
 137 273 l 2
 137 273 132 278 132 279 c 2
 132 280 l 2x30be0aa0
48 280 m 2
 49 281 49 280 60 286 c 0
 63 282 l 2
 74 282 l 1
 76 283 76 283 86 285 c 1
 85 282 85 278 85 273 c 2
 85 206 l 1
 78 203 78 203 75 202 c 1
 75 274 l 1
 62 274 l 1
 62 231 l 1
 59 229 56 229 53 228 c 1
 53 273 l 1x30be60
 50 278 48 277 48 279 c 2
 48 280 l 2
211 281 m 0
 214 283 222 286 222 286 c 0
 224 284 224 285 226 282 c 1
 257 282 l 1
 259 283 259 283 269 285 c 1
 269 283 268 280 268 276 c 2
 268 256 l 1
 270 256 l 2
 275 256 280 257 284 257 c 2
 289 257 l 1
 289 256 288 253 286 247 c 0
 285 247 284 248 282 248 c 0
 280 248 275 249 268 249 c 1
 268 206 l 1
 261 203 261 203 258 202 c 1
 258 274 l 1
 247 274 l 1
 247 231 l 1
 240 228 241 228 238 227 c 1
 238 274 l 1
 226 274 l 1
 226 206 l 1
 219 203 219 203 216 202 c 1
 216 273 l 1x307e000150
 211 278 211 277 211 279 c 0
 211 280 211 280 211 281 c 0
170 238 m 0
 195 242 197 262 197 262 c 0
 198 264 200 274 185 274 c 0
 179 274 169 269 167 267 c 1
 167 238 l 1x301e0020
 168 238 169 238 170 238 c 0
117 220 m 0x311e06
 118 220 117 221 118 221 c 0
 119 221 120 221 120 220 c 2
 120 218 l 2
 120 216 120 216 114 204 c 1
 114 202 l 2
 114 201 113 201 113 201 c 2
 112 200 111 200 111 200 c 0
 109 206 103 219 103 219 c 2
 103 220 l 2
 103 221 105 221 106 221 c 0
 106 221 107 220 112 217 c 0
 113 217 113 218 114 218 c 0
 116 218 115 220 117 220 c 0x311e06
173 193 m 2x371e0084
 169 198 l 2
 169 200 l 1
 170 200 l 1
 175 202 179 203 183 204 c 1
 183 178 l 1
 278 178 l 1
 278 178 280 179 282 179 c 0
 284 179 284 178 284 178 c 2
 284 177 283 176 281 170 c 1
 278 171 276 171 274 171 c 0
 269 172 266 172 263 171 c 0
 261 171 250 167 250 158 c 2
 250 153 l 2
 250 153 252 129 281 134 c 1
 281 129 l 1
 278 129 276 126 274 126 c 0
 270 125 266 126 263 126 c 0
 240 126 233 157 246 170 c 1
 231 170 l 1
 231 141 l 1
 227 127 210 126 210 126 c 0
 196 126 194 138 194 142 c 2
 194 170 l 1
 183 170 l 1
 183 103 l 1
 180 101 177 100 173 99 c 1
 173 170 l 1
 162 170 l 1
 162 128 l 1
 159 126 157 126 153 125 c 1
 153 170 l 1
 142 170 l 1
 142 137 l 1
 144 135 144 133 144 133 c 2
 145 131 146 131 146 130 c 2
 145 129 l 1
 145 128 l 1
 142 126 138 126 134 125 c 1
 134 126 133 126 133 127 c 2
 133 129 l 1
 130 127 119 125 114 125 c 0
 99 125 98 142 98 144 c 2
 98 170 l 1
 87 170 l 1
 87 141 l 1
 83 127 66 126 66 126 c 0
 57 124 50 132 50 142 c 2
 50 170 l 1
 31 170 l 2
 29 171 l 0
 29 174 29 175 42 186 c 1
 44 184 46 181 48 178 c 1
 132 178 l 1
 132 193 l 1x371e08c680
 127 198 127 197 127 198 c 0x371e01
 128 200 128 201 140 203 c 0
 141 203 141 204 141 204 c 1
 142 204 l 1
 142 178 l 1
 173 178 l 1
 173 193 l 2x371e0084
322 191 m 1x301e000008
 322 112 l 1
 305 112 l 1
 305 191 l 1
 322 191 l 1x301e000008
69 134 m 0x361e
 74 134 78 136 78 143 c 2
 78 170 l 1
 60 170 l 1
 60 161 60 154 60 145 c 0
 60 134 68 134 69 134 c 0x361e
108 170 m 1x361e0880
 108 146 l 2
 108 144 111 136 114 134 c 0
 116 133 119 134 123 134 c 2
 126 134 l 1
 128 135 130 136 132 138 c 1
 132 170 l 1
 108 170 l 1x361e0880
213 134 m 0
 216 134 222 134 222 143 c 2
 222 170 l 1
 204 170 l 1
 204 147 l 2x361e000280
 204 143 204 134 213 134 c 0
151 118 m 2
 151 118 152 117 158 114 c 1x301e0020
 158 114 160 115 163 117 c 0
 164 117 l 0
 164 118 l 0
 165 118 166 118 166 117 c 2
 166 114 l 1x301e0010
 161 104 160 104 159 101 c 1
 159 99 l 2
 159 98 158 98 158 98 c 2
 157 97 157 97 157 98 c 0
 156 100 155 102 149 116 c 1
 149 117 l 2
 149 118 150 118 151 118 c 2
322 95 m 1x301e000008
 322 14 l 1
 305 14 l 1
 305 95 l 1
 322 95 l 1x301e000008
322 -4 m 1
 322 -81 l 1
 305 -81 l 1
 305 -4 l 1
 322 -4 l 1
322 -98 m 1
 322 -188 l 1xb01e000020
 250 -188 l 1
 250 -171 l 1x701e000020
 305 -171 l 1x701e000008
 305 -98 l 1
 322 -98 l 1
83 -171 m 1x701e10
 154 -171 l 1
 154 -188 l 1
 83 -188 l 1
 83 -171 l 1x701e10
167 -171 m 1x701e0008
 238 -171 l 1
 238 -188 l 1
 167 -188 l 1
 167 -171 l 1x701e0008
EndSplineSet
EndChar

StartChar: S
Encoding: 83 83 18
Width: 321
VWidth: 800
Flags: HW
HStem: -188 86<0 17 305 322> -188 17<17 70 83 154 167 238 250 305> -85 77<0 17 305 322> 14 82<0 17 305 322> 108 79<0 17 305 322> 126 8<62 76 115 132 206 220> 170 8<45 50 60 78 87 98 108 132 142 153 162 173 183 194 204 222 231 246 253 278 278 281> 204 86<0 17 305 322> 228 9<113 131> 248 9<268 288> 274 8<62 75 102 114 146 158 172 196 226 238 247 258> 306 77<0 17 305 322> 405 81<0 17 305 322> 498 17G<0 17 305 322> 570 18<17 70 83 154 167 238 250 305>
VStem: 0 70<-188 -171 570 588> 0 17<-171 -102 -85 -8 10 90 108 187 204 290 306 383 401 481 498 570> 53 10<134 170 229 274> 75 10<134 170 205 273> 83 71<-188 -171 570 588> 98 10<136 170> 103 10<207 214> 117 10<250 272> 127 14<193 202> 132 10<126 129 134 170 178 198 229 236 239 274> 153 10<126 170> 158 10<204 231 238 270> 164 2<117 118> 167 70<-188 -171 570 588> 173 10<101 170 178 200> 194 10<135 170> 216 10<204 274> 222 10<135 170> 238 10<230 274> 250 71<-188 -171 570 588> 258 10<204 249 256 274> 305 17<-171 -98 -81 -4 14 95 112 191 209 294 311 387 405 486 502 570>
LayerCount: 2
Fore
SplineSet
0 481 m 1x301e80
 17 482 l 1
 17 401 l 1
 0 400 l 1
 0 481 l 1x301e80
0 383 m 1
 17 383 l 1
 17 306 l 1
 0 306 l 1
 0 383 l 1
0 290 m 1x311e80
 17 290 l 1
 17 204 l 1
 0 204 l 1
 0 290 l 1x311e80
0 187 m 1x381e80
 17 187 l 1
 17 108 l 1
 0 108 l 1
 0 187 l 1x381e80
0 90 m 1
 17 91 l 1
 17 10 l 1
 0 10 l 1
 0 90 l 1
0 -8 m 1
 17 -8 l 1
 17 -85 l 1
 0 -85 l 1
 0 -8 l 1
0 -102 m 1xb01e80
 17 -102 l 1xb01e80
 17 -171 l 1x701e80
 70 -171 l 1
 70 -188 l 1x701f
 0 -188 l 1xb01f
 0 -102 l 1xb01e80
0 588 m 1x301f
 70 588 l 1
 70 570 l 1x301f
 17 570 l 1
 17 498 l 1
 0 498 l 1x301e80
 0 528 0 558 0 588 c 1x301f
83 588 m 1x301e10
 154 588 l 1
 154 570 l 1
 83 570 l 1
 83 588 l 1x301e10
167 588 m 1x301e0008
 238 588 l 1
 238 570 l 1
 167 570 l 1
 167 588 l 1x301e0008
250 588 m 1x301e000020
 322 588 l 1x301e000020
 322 502 l 1
 305 502 l 1
 305 570 l 1x301e000008
 250 570 l 1
 250 588 l 1x301e000020
322 486 m 1x301e000008
 322 405 l 1
 305 405 l 1
 305 486 l 1
 322 486 l 1x301e000008
322 387 m 1
 322 311 l 1
 305 310 l 1
 305 387 l 1
 322 387 l 1
322 294 m 1
 322 209 l 1
 305 208 l 1
 305 294 l 1
 322 294 l 1
132 280 m 2x30be0aa0
 133 281 133 280 144 286 c 1
 144 287 l 1
 146 285 146 286 147 282 c 1
 156 282 l 1
 158 283 158 283 168 285 c 1
 168 276 l 1
 174 278 180 280 186 282 c 1
 191 282 l 2
 212 282 217 249 184 235 c 0
 180 234 167 229 167 229 c 2
 167 206 l 1
 160 203 161 203 158 202 c 1
 158 274 l 1
 146 274 l 1
 146 231 l 1
 143 229 140 229 137 228 c 1
 137 236 l 1
 135 235 134 234 132 233 c 0
 127 231 123 230 118 228 c 0
 112 228 97 228 91 240 c 1
 91 243 l 1
 99 245 100 246 100 246 c 0
 112 246 117 254 117 262 c 0
 117 267 115 275 102 275 c 1
 102 280 l 1
 105 280 107 282 108 282 c 2
 110 282 l 2
 112 282 127 282 127 262 c 0
 127 247 114 242 106 239 c 1
 113 237 113 237 114 237 c 0
 123 235 134 242 137 250 c 1
 137 273 l 2
 137 273 132 278 132 279 c 2
 132 280 l 2x30be0aa0
48 280 m 2
 49 281 49 280 60 286 c 0
 63 282 l 2
 74 282 l 1
 76 283 76 283 86 285 c 1
 85 282 85 278 85 273 c 2
 85 206 l 1
 78 203 78 203 75 202 c 1
 75 274 l 1
 62 274 l 1
 62 231 l 1
 59 229 56 229 53 228 c 1
 53 273 l 1x30be60
 50 278 48 277 48 279 c 2
 48 280 l 2
211 281 m 0
 214 283 222 286 222 286 c 0
 224 284 224 285 226 282 c 1
 257 282 l 1
 259 283 259 283 269 285 c 1
 269 283 268 280 268 276 c 2
 268 256 l 1
 270 256 l 2
 275 256 280 257 284 257 c 2
 289 257 l 1
 289 256 288 253 286 247 c 0
 285 247 284 248 282 248 c 0
 280 248 275 249 268 249 c 1
 268 206 l 1
 261 203 261 203 258 202 c 1
 258 274 l 1
 247 274 l 1
 247 231 l 1
 240 228 241 228 238 227 c 1
 238 274 l 1
 226 274 l 1
 226 206 l 1
 219 203 219 203 216 202 c 1
 216 273 l 1x307e000150
 211 278 211 277 211 279 c 0
 211 280 211 280 211 281 c 0
170 238 m 0
 195 242 197 262 197 262 c 0
 198 264 200 274 185 274 c 0
 179 274 169 269 167 267 c 1
 167 238 l 1x301e0020
 168 238 169 238 170 238 c 0
117 220 m 0x311e06
 118 220 117 221 118 221 c 0
 119 221 120 221 120 220 c 2
 120 218 l 2
 120 216 120 216 114 204 c 1
 114 202 l 2
 114 201 113 201 113 201 c 2
 112 200 111 200 111 200 c 0
 109 206 103 219 103 219 c 2
 103 220 l 2
 103 221 105 221 106 221 c 0
 106 221 107 220 112 217 c 0
 113 217 113 218 114 218 c 0
 116 218 115 220 117 220 c 0x311e06
173 193 m 2x371e0084
 169 198 l 2
 169 200 l 1
 170 200 l 1
 175 202 179 203 183 204 c 1
 183 178 l 1
 278 178 l 1
 278 178 280 179 282 179 c 0
 284 179 284 178 284 178 c 2
 284 177 283 176 281 170 c 1
 278 171 276 171 274 171 c 0
 269 172 266 172 263 171 c 0
 261 171 250 167 250 158 c 2
 250 153 l 2
 250 153 252 129 281 134 c 1
 281 129 l 1
 278 129 276 126 274 126 c 0
 270 125 266 126 263 126 c 0
 240 126 233 157 246 170 c 1
 231 170 l 1
 231 141 l 1
 227 127 210 126 210 126 c 0
 196 126 194 138 194 142 c 2
 194 170 l 1
 183 170 l 1
 183 103 l 1
 180 101 177 100 173 99 c 1
 173 170 l 1
 162 170 l 1
 162 128 l 1
 159 126 157 126 153 125 c 1
 153 170 l 1
 142 170 l 1
 142 137 l 1
 144 135 144 133 144 133 c 2
 145 131 146 131 146 130 c 2
 145 129 l 1
 145 128 l 1
 142 126 138 126 134 125 c 1
 134 126 133 126 133 127 c 2
 133 129 l 1
 130 127 119 125 114 125 c 0
 99 125 98 142 98 144 c 2
 98 170 l 1
 87 170 l 1
 87 141 l 1
 83 127 66 126 66 126 c 0
 57 124 50 132 50 142 c 2
 50 170 l 1
 31 170 l 2
 29 171 l 0
 29 174 29 175 42 186 c 1
 44 184 46 181 48 178 c 1
 132 178 l 1
 132 193 l 1x371e08c680
 127 198 127 197 127 198 c 0x371e01
 128 200 128 201 140 203 c 0
 141 203 141 204 141 204 c 1
 142 204 l 1
 142 178 l 1
 173 178 l 1
 173 193 l 2x371e0084
322 191 m 1x301e000008
 322 112 l 1
 305 112 l 1
 305 191 l 1
 322 191 l 1x301e000008
69 134 m 0x361e
 74 134 78 136 78 143 c 2
 78 170 l 1
 60 170 l 1
 60 161 60 154 60 145 c 0
 60 134 68 134 69 134 c 0x361e
108 170 m 1x361e0880
 108 146 l 2
 108 144 111 136 114 134 c 0
 116 133 119 134 123 134 c 2
 126 134 l 1
 128 135 130 136 132 138 c 1
 132 170 l 1
 108 170 l 1x361e0880
213 134 m 0
 216 134 222 134 222 143 c 2
 222 170 l 1
 204 170 l 1
 204 147 l 2x361e000280
 204 143 204 134 213 134 c 0
151 118 m 2
 151 118 152 117 158 114 c 1x301e0020
 158 114 160 115 163 117 c 0
 164 117 l 0
 164 118 l 0
 165 118 166 118 166 117 c 2
 166 114 l 1x301e0010
 161 104 160 104 159 101 c 1
 159 99 l 2
 159 98 158 98 158 98 c 2
 157 97 157 97 157 98 c 0
 156 100 155 102 149 116 c 1
 149 117 l 2
 149 118 150 118 151 118 c 2
322 95 m 1x301e000008
 322 14 l 1
 305 14 l 1
 305 95 l 1
 322 95 l 1x301e000008
322 -4 m 1
 322 -81 l 1
 305 -81 l 1
 305 -4 l 1
 322 -4 l 1
322 -98 m 1
 322 -188 l 1xb01e000020
 250 -188 l 1
 250 -171 l 1x701e000020
 305 -171 l 1x701e000008
 305 -98 l 1
 322 -98 l 1
83 -171 m 1x701e10
 154 -171 l 1
 154 -188 l 1
 83 -188 l 1
 83 -171 l 1x701e10
167 -171 m 1x701e0008
 238 -171 l 1
 238 -188 l 1
 167 -188 l 1
 167 -171 l 1x701e0008
EndSplineSet
EndChar

StartChar: T
Encoding: 84 84 19
Width: 321
VWidth: 800
Flags: HW
HStem: -188 86<0 17 305 322> -188 17<17 70 83 154 167 238 250 305> -85 77<0 17 305 322> 14 82<0 17 305 322> 108 79<0 17 305 322> 126 8<62 76 115 132 206 220> 170 8<45 50 60 78 87 98 108 132 142 153 162 173 183 194 204 222 231 246 253 278 278 281> 204 86<0 17 305 322> 228 9<113 131> 248 9<268 288> 274 8<62 75 102 114 146 158 172 196 226 238 247 258> 306 77<0 17 305 322> 405 81<0 17 305 322> 498 17G<0 17 305 322> 570 18<17 70 83 154 167 238 250 305>
VStem: 0 70<-188 -171 570 588> 0 17<-171 -102 -85 -8 10 90 108 187 204 290 306 383 401 481 498 570> 53 10<134 170 229 274> 75 10<134 170 205 273> 83 71<-188 -171 570 588> 98 10<136 170> 103 10<207 214> 117 10<250 272> 127 14<193 202> 132 10<126 129 134 170 178 198 229 236 239 274> 153 10<126 170> 158 10<204 231 238 270> 164 2<117 118> 167 70<-188 -171 570 588> 173 10<101 170 178 200> 194 10<135 170> 216 10<204 274> 222 10<135 170> 238 10<230 274> 250 71<-188 -171 570 588> 258 10<204 249 256 274> 305 17<-171 -98 -81 -4 14 95 112 191 209 294 311 387 405 486 502 570>
LayerCount: 2
Fore
SplineSet
0 481 m 1x301e80
 17 482 l 1
 17 401 l 1
 0 400 l 1
 0 481 l 1x301e80
0 383 m 1
 17 383 l 1
 17 306 l 1
 0 306 l 1
 0 383 l 1
0 290 m 1x311e80
 17 290 l 1
 17 204 l 1
 0 204 l 1
 0 290 l 1x311e80
0 187 m 1x381e80
 17 187 l 1
 17 108 l 1
 0 108 l 1
 0 187 l 1x381e80
0 90 m 1
 17 91 l 1
 17 10 l 1
 0 10 l 1
 0 90 l 1
0 -8 m 1
 17 -8 l 1
 17 -85 l 1
 0 -85 l 1
 0 -8 l 1
0 -102 m 1xb01e80
 17 -102 l 1xb01e80
 17 -171 l 1x701e80
 70 -171 l 1
 70 -188 l 1x701f
 0 -188 l 1xb01f
 0 -102 l 1xb01e80
0 588 m 1x301f
 70 588 l 1
 70 570 l 1x301f
 17 570 l 1
 17 498 l 1
 0 498 l 1x301e80
 0 528 0 558 0 588 c 1x301f
83 588 m 1x301e10
 154 588 l 1
 154 570 l 1
 83 570 l 1
 83 588 l 1x301e10
167 588 m 1x301e0008
 238 588 l 1
 238 570 l 1
 167 570 l 1
 167 588 l 1x301e0008
250 588 m 1x301e000020
 322 588 l 1x301e000020
 322 502 l 1
 305 502 l 1
 305 570 l 1x301e000008
 250 570 l 1
 250 588 l 1x301e000020
322 486 m 1x301e000008
 322 405 l 1
 305 405 l 1
 305 486 l 1
 322 486 l 1x301e000008
322 387 m 1
 322 311 l 1
 305 310 l 1
 305 387 l 1
 322 387 l 1
322 294 m 1
 322 209 l 1
 305 208 l 1
 305 294 l 1
 322 294 l 1
132 280 m 2x30be0aa0
 133 281 133 280 144 286 c 1
 144 287 l 1
 146 285 146 286 147 282 c 1
 156 282 l 1
 158 283 158 283 168 285 c 1
 168 276 l 1
 174 278 180 280 186 282 c 1
 191 282 l 2
 212 282 217 249 184 235 c 0
 180 234 167 229 167 229 c 2
 167 206 l 1
 160 203 161 203 158 202 c 1
 158 274 l 1
 146 274 l 1
 146 231 l 1
 143 229 140 229 137 228 c 1
 137 236 l 1
 135 235 134 234 132 233 c 0
 127 231 123 230 118 228 c 0
 112 228 97 228 91 240 c 1
 91 243 l 1
 99 245 100 246 100 246 c 0
 112 246 117 254 117 262 c 0
 117 267 115 275 102 275 c 1
 102 280 l 1
 105 280 107 282 108 282 c 2
 110 282 l 2
 112 282 127 282 127 262 c 0
 127 247 114 242 106 239 c 1
 113 237 113 237 114 237 c 0
 123 235 134 242 137 250 c 1
 137 273 l 2
 137 273 132 278 132 279 c 2
 132 280 l 2x30be0aa0
48 280 m 2
 49 281 49 280 60 286 c 0
 63 282 l 2
 74 282 l 1
 76 283 76 283 86 285 c 1
 85 282 85 278 85 273 c 2
 85 206 l 1
 78 203 78 203 75 202 c 1
 75 274 l 1
 62 274 l 1
 62 231 l 1
 59 229 56 229 53 228 c 1
 53 273 l 1x30be60
 50 278 48 277 48 279 c 2
 48 280 l 2
211 281 m 0
 214 283 222 286 222 286 c 0
 224 284 224 285 226 282 c 1
 257 282 l 1
 259 283 259 283 269 285 c 1
 269 283 268 280 268 276 c 2
 268 256 l 1
 270 256 l 2
 275 256 280 257 284 257 c 2
 289 257 l 1
 289 256 288 253 286 247 c 0
 285 247 284 248 282 248 c 0
 280 248 275 249 268 249 c 1
 268 206 l 1
 261 203 261 203 258 202 c 1
 258 274 l 1
 247 274 l 1
 247 231 l 1
 240 228 241 228 238 227 c 1
 238 274 l 1
 226 274 l 1
 226 206 l 1
 219 203 219 203 216 202 c 1
 216 273 l 1x307e000150
 211 278 211 277 211 279 c 0
 211 280 211 280 211 281 c 0
170 238 m 0
 195 242 197 262 197 262 c 0
 198 264 200 274 185 274 c 0
 179 274 169 269 167 267 c 1
 167 238 l 1x301e0020
 168 238 169 238 170 238 c 0
117 220 m 0x311e06
 118 220 117 221 118 221 c 0
 119 221 120 221 120 220 c 2
 120 218 l 2
 120 216 120 216 114 204 c 1
 114 202 l 2
 114 201 113 201 113 201 c 2
 112 200 111 200 111 200 c 0
 109 206 103 219 103 219 c 2
 103 220 l 2
 103 221 105 221 106 221 c 0
 106 221 107 220 112 217 c 0
 113 217 113 218 114 218 c 0
 116 218 115 220 117 220 c 0x311e06
173 193 m 2x371e0084
 169 198 l 2
 169 200 l 1
 170 200 l 1
 175 202 179 203 183 204 c 1
 183 178 l 1
 278 178 l 1
 278 178 280 179 282 179 c 0
 284 179 284 178 284 178 c 2
 284 177 283 176 281 170 c 1
 278 171 276 171 274 171 c 0
 269 172 266 172 263 171 c 0
 261 171 250 167 250 158 c 2
 250 153 l 2
 250 153 252 129 281 134 c 1
 281 129 l 1
 278 129 276 126 274 126 c 0
 270 125 266 126 263 126 c 0
 240 126 233 157 246 170 c 1
 231 170 l 1
 231 141 l 1
 227 127 210 126 210 126 c 0
 196 126 194 138 194 142 c 2
 194 170 l 1
 183 170 l 1
 183 103 l 1
 180 101 177 100 173 99 c 1
 173 170 l 1
 162 170 l 1
 162 128 l 1
 159 126 157 126 153 125 c 1
 153 170 l 1
 142 170 l 1
 142 137 l 1
 144 135 144 133 144 133 c 2
 145 131 146 131 146 130 c 2
 145 129 l 1
 145 128 l 1
 142 126 138 126 134 125 c 1
 134 126 133 126 133 127 c 2
 133 129 l 1
 130 127 119 125 114 125 c 0
 99 125 98 142 98 144 c 2
 98 170 l 1
 87 170 l 1
 87 141 l 1
 83 127 66 126 66 126 c 0
 57 124 50 132 50 142 c 2
 50 170 l 1
 31 170 l 2
 29 171 l 0
 29 174 29 175 42 186 c 1
 44 184 46 181 48 178 c 1
 132 178 l 1
 132 193 l 1x371e08c680
 127 198 127 197 127 198 c 0x371e01
 128 200 128 201 140 203 c 0
 141 203 141 204 141 204 c 1
 142 204 l 1
 142 178 l 1
 173 178 l 1
 173 193 l 2x371e0084
322 191 m 1x301e000008
 322 112 l 1
 305 112 l 1
 305 191 l 1
 322 191 l 1x301e000008
69 134 m 0x361e
 74 134 78 136 78 143 c 2
 78 170 l 1
 60 170 l 1
 60 161 60 154 60 145 c 0
 60 134 68 134 69 134 c 0x361e
108 170 m 1x361e0880
 108 146 l 2
 108 144 111 136 114 134 c 0
 116 133 119 134 123 134 c 2
 126 134 l 1
 128 135 130 136 132 138 c 1
 132 170 l 1
 108 170 l 1x361e0880
213 134 m 0
 216 134 222 134 222 143 c 2
 222 170 l 1
 204 170 l 1
 204 147 l 2x361e000280
 204 143 204 134 213 134 c 0
151 118 m 2
 151 118 152 117 158 114 c 1x301e0020
 158 114 160 115 163 117 c 0
 164 117 l 0
 164 118 l 0
 165 118 166 118 166 117 c 2
 166 114 l 1x301e0010
 161 104 160 104 159 101 c 1
 159 99 l 2
 159 98 158 98 158 98 c 2
 157 97 157 97 157 98 c 0
 156 100 155 102 149 116 c 1
 149 117 l 2
 149 118 150 118 151 118 c 2
322 95 m 1x301e000008
 322 14 l 1
 305 14 l 1
 305 95 l 1
 322 95 l 1x301e000008
322 -4 m 1
 322 -81 l 1
 305 -81 l 1
 305 -4 l 1
 322 -4 l 1
322 -98 m 1
 322 -188 l 1xb01e000020
 250 -188 l 1
 250 -171 l 1x701e000020
 305 -171 l 1x701e000008
 305 -98 l 1
 322 -98 l 1
83 -171 m 1x701e10
 154 -171 l 1
 154 -188 l 1
 83 -188 l 1
 83 -171 l 1x701e10
167 -171 m 1x701e0008
 238 -171 l 1
 238 -188 l 1
 167 -188 l 1
 167 -171 l 1x701e0008
EndSplineSet
EndChar

StartChar: U
Encoding: 85 85 20
Width: 321
VWidth: 800
Flags: HW
HStem: -188 86<0 17 305 322> -188 17<17 70 83 154 167 238 250 305> -85 77<0 17 305 322> 14 82<0 17 305 322> 108 79<0 17 305 322> 126 8<62 76 115 132 206 220> 170 8<45 50 60 78 87 98 108 132 142 153 162 173 183 194 204 222 231 246 253 278 278 281> 204 86<0 17 305 322> 228 9<113 131> 248 9<268 288> 274 8<62 75 102 114 146 158 172 196 226 238 247 258> 306 77<0 17 305 322> 405 81<0 17 305 322> 498 17G<0 17 305 322> 570 18<17 70 83 154 167 238 250 305>
VStem: 0 70<-188 -171 570 588> 0 17<-171 -102 -85 -8 10 90 108 187 204 290 306 383 401 481 498 570> 53 10<134 170 229 274> 75 10<134 170 205 273> 83 71<-188 -171 570 588> 98 10<136 170> 103 10<207 214> 117 10<250 272> 127 14<193 202> 132 10<126 129 134 170 178 198 229 236 239 274> 153 10<126 170> 158 10<204 231 238 270> 164 2<117 118> 167 70<-188 -171 570 588> 173 10<101 170 178 200> 194 10<135 170> 216 10<204 274> 222 10<135 170> 238 10<230 274> 250 71<-188 -171 570 588> 258 10<204 249 256 274> 305 17<-171 -98 -81 -4 14 95 112 191 209 294 311 387 405 486 502 570>
LayerCount: 2
Fore
SplineSet
0 481 m 1x301e80
 17 482 l 1
 17 401 l 1
 0 400 l 1
 0 481 l 1x301e80
0 383 m 1
 17 383 l 1
 17 306 l 1
 0 306 l 1
 0 383 l 1
0 290 m 1x311e80
 17 290 l 1
 17 204 l 1
 0 204 l 1
 0 290 l 1x311e80
0 187 m 1x381e80
 17 187 l 1
 17 108 l 1
 0 108 l 1
 0 187 l 1x381e80
0 90 m 1
 17 91 l 1
 17 10 l 1
 0 10 l 1
 0 90 l 1
0 -8 m 1
 17 -8 l 1
 17 -85 l 1
 0 -85 l 1
 0 -8 l 1
0 -102 m 1xb01e80
 17 -102 l 1xb01e80
 17 -171 l 1x701e80
 70 -171 l 1
 70 -188 l 1x701f
 0 -188 l 1xb01f
 0 -102 l 1xb01e80
0 588 m 1x301f
 70 588 l 1
 70 570 l 1x301f
 17 570 l 1
 17 498 l 1
 0 498 l 1x301e80
 0 528 0 558 0 588 c 1x301f
83 588 m 1x301e10
 154 588 l 1
 154 570 l 1
 83 570 l 1
 83 588 l 1x301e10
167 588 m 1x301e0008
 238 588 l 1
 238 570 l 1
 167 570 l 1
 167 588 l 1x301e0008
250 588 m 1x301e000020
 322 588 l 1x301e000020
 322 502 l 1
 305 502 l 1
 305 570 l 1x301e000008
 250 570 l 1
 250 588 l 1x301e000020
322 486 m 1x301e000008
 322 405 l 1
 305 405 l 1
 305 486 l 1
 322 486 l 1x301e000008
322 387 m 1
 322 311 l 1
 305 310 l 1
 305 387 l 1
 322 387 l 1
322 294 m 1
 322 209 l 1
 305 208 l 1
 305 294 l 1
 322 294 l 1
132 280 m 2x30be0aa0
 133 281 133 280 144 286 c 1
 144 287 l 1
 146 285 146 286 147 282 c 1
 156 282 l 1
 158 283 158 283 168 285 c 1
 168 276 l 1
 174 278 180 280 186 282 c 1
 191 282 l 2
 212 282 217 249 184 235 c 0
 180 234 167 229 167 229 c 2
 167 206 l 1
 160 203 161 203 158 202 c 1
 158 274 l 1
 146 274 l 1
 146 231 l 1
 143 229 140 229 137 228 c 1
 137 236 l 1
 135 235 134 234 132 233 c 0
 127 231 123 230 118 228 c 0
 112 228 97 228 91 240 c 1
 91 243 l 1
 99 245 100 246 100 246 c 0
 112 246 117 254 117 262 c 0
 117 267 115 275 102 275 c 1
 102 280 l 1
 105 280 107 282 108 282 c 2
 110 282 l 2
 112 282 127 282 127 262 c 0
 127 247 114 242 106 239 c 1
 113 237 113 237 114 237 c 0
 123 235 134 242 137 250 c 1
 137 273 l 2
 137 273 132 278 132 279 c 2
 132 280 l 2x30be0aa0
48 280 m 2
 49 281 49 280 60 286 c 0
 63 282 l 2
 74 282 l 1
 76 283 76 283 86 285 c 1
 85 282 85 278 85 273 c 2
 85 206 l 1
 78 203 78 203 75 202 c 1
 75 274 l 1
 62 274 l 1
 62 231 l 1
 59 229 56 229 53 228 c 1
 53 273 l 1x30be60
 50 278 48 277 48 279 c 2
 48 280 l 2
211 281 m 0
 214 283 222 286 222 286 c 0
 224 284 224 285 226 282 c 1
 257 282 l 1
 259 283 259 283 269 285 c 1
 269 283 268 280 268 276 c 2
 268 256 l 1
 270 256 l 2
 275 256 280 257 284 257 c 2
 289 257 l 1
 289 256 288 253 286 247 c 0
 285 247 284 248 282 248 c 0
 280 248 275 249 268 249 c 1
 268 206 l 1
 261 203 261 203 258 202 c 1
 258 274 l 1
 247 274 l 1
 247 231 l 1
 240 228 241 228 238 227 c 1
 238 274 l 1
 226 274 l 1
 226 206 l 1
 219 203 219 203 216 202 c 1
 216 273 l 1x307e000150
 211 278 211 277 211 279 c 0
 211 280 211 280 211 281 c 0
170 238 m 0
 195 242 197 262 197 262 c 0
 198 264 200 274 185 274 c 0
 179 274 169 269 167 267 c 1
 167 238 l 1x301e0020
 168 238 169 238 170 238 c 0
117 220 m 0x311e06
 118 220 117 221 118 221 c 0
 119 221 120 221 120 220 c 2
 120 218 l 2
 120 216 120 216 114 204 c 1
 114 202 l 2
 114 201 113 201 113 201 c 2
 112 200 111 200 111 200 c 0
 109 206 103 219 103 219 c 2
 103 220 l 2
 103 221 105 221 106 221 c 0
 106 221 107 220 112 217 c 0
 113 217 113 218 114 218 c 0
 116 218 115 220 117 220 c 0x311e06
173 193 m 2x371e0084
 169 198 l 2
 169 200 l 1
 170 200 l 1
 175 202 179 203 183 204 c 1
 183 178 l 1
 278 178 l 1
 278 178 280 179 282 179 c 0
 284 179 284 178 284 178 c 2
 284 177 283 176 281 170 c 1
 278 171 276 171 274 171 c 0
 269 172 266 172 263 171 c 0
 261 171 250 167 250 158 c 2
 250 153 l 2
 250 153 252 129 281 134 c 1
 281 129 l 1
 278 129 276 126 274 126 c 0
 270 125 266 126 263 126 c 0
 240 126 233 157 246 170 c 1
 231 170 l 1
 231 141 l 1
 227 127 210 126 210 126 c 0
 196 126 194 138 194 142 c 2
 194 170 l 1
 183 170 l 1
 183 103 l 1
 180 101 177 100 173 99 c 1
 173 170 l 1
 162 170 l 1
 162 128 l 1
 159 126 157 126 153 125 c 1
 153 170 l 1
 142 170 l 1
 142 137 l 1
 144 135 144 133 144 133 c 2
 145 131 146 131 146 130 c 2
 145 129 l 1
 145 128 l 1
 142 126 138 126 134 125 c 1
 134 126 133 126 133 127 c 2
 133 129 l 1
 130 127 119 125 114 125 c 0
 99 125 98 142 98 144 c 2
 98 170 l 1
 87 170 l 1
 87 141 l 1
 83 127 66 126 66 126 c 0
 57 124 50 132 50 142 c 2
 50 170 l 1
 31 170 l 2
 29 171 l 0
 29 174 29 175 42 186 c 1
 44 184 46 181 48 178 c 1
 132 178 l 1
 132 193 l 1x371e08c680
 127 198 127 197 127 198 c 0x371e01
 128 200 128 201 140 203 c 0
 141 203 141 204 141 204 c 1
 142 204 l 1
 142 178 l 1
 173 178 l 1
 173 193 l 2x371e0084
322 191 m 1x301e000008
 322 112 l 1
 305 112 l 1
 305 191 l 1
 322 191 l 1x301e000008
69 134 m 0x361e
 74 134 78 136 78 143 c 2
 78 170 l 1
 60 170 l 1
 60 161 60 154 60 145 c 0
 60 134 68 134 69 134 c 0x361e
108 170 m 1x361e0880
 108 146 l 2
 108 144 111 136 114 134 c 0
 116 133 119 134 123 134 c 2
 126 134 l 1
 128 135 130 136 132 138 c 1
 132 170 l 1
 108 170 l 1x361e0880
213 134 m 0
 216 134 222 134 222 143 c 2
 222 170 l 1
 204 170 l 1
 204 147 l 2x361e000280
 204 143 204 134 213 134 c 0
151 118 m 2
 151 118 152 117 158 114 c 1x301e0020
 158 114 160 115 163 117 c 0
 164 117 l 0
 164 118 l 0
 165 118 166 118 166 117 c 2
 166 114 l 1x301e0010
 161 104 160 104 159 101 c 1
 159 99 l 2
 159 98 158 98 158 98 c 2
 157 97 157 97 157 98 c 0
 156 100 155 102 149 116 c 1
 149 117 l 2
 149 118 150 118 151 118 c 2
322 95 m 1x301e000008
 322 14 l 1
 305 14 l 1
 305 95 l 1
 322 95 l 1x301e000008
322 -4 m 1
 322 -81 l 1
 305 -81 l 1
 305 -4 l 1
 322 -4 l 1
322 -98 m 1
 322 -188 l 1xb01e000020
 250 -188 l 1
 250 -171 l 1x701e000020
 305 -171 l 1x701e000008
 305 -98 l 1
 322 -98 l 1
83 -171 m 1x701e10
 154 -171 l 1
 154 -188 l 1
 83 -188 l 1
 83 -171 l 1x701e10
167 -171 m 1x701e0008
 238 -171 l 1
 238 -188 l 1
 167 -188 l 1
 167 -171 l 1x701e0008
EndSplineSet
EndChar

StartChar: V
Encoding: 86 86 21
Width: 321
VWidth: 800
Flags: HW
HStem: -188 86<0 17 305 322> -188 17<17 70 83 154 167 238 250 305> -85 77<0 17 305 322> 14 82<0 17 305 322> 108 79<0 17 305 322> 126 8<62 76 115 132 206 220> 170 8<45 50 60 78 87 98 108 132 142 153 162 173 183 194 204 222 231 246 253 278 278 281> 204 86<0 17 305 322> 228 9<113 131> 248 9<268 288> 274 8<62 75 102 114 146 158 172 196 226 238 247 258> 306 77<0 17 305 322> 405 81<0 17 305 322> 498 17G<0 17 305 322> 570 18<17 70 83 154 167 238 250 305>
VStem: 0 70<-188 -171 570 588> 0 17<-171 -102 -85 -8 10 90 108 187 204 290 306 383 401 481 498 570> 53 10<134 170 229 274> 75 10<134 170 205 273> 83 71<-188 -171 570 588> 98 10<136 170> 103 10<207 214> 117 10<250 272> 127 14<193 202> 132 10<126 129 134 170 178 198 229 236 239 274> 153 10<126 170> 158 10<204 231 238 270> 164 2<117 118> 167 70<-188 -171 570 588> 173 10<101 170 178 200> 194 10<135 170> 216 10<204 274> 222 10<135 170> 238 10<230 274> 250 71<-188 -171 570 588> 258 10<204 249 256 274> 305 17<-171 -98 -81 -4 14 95 112 191 209 294 311 387 405 486 502 570>
LayerCount: 2
Fore
SplineSet
0 481 m 1x301e80
 17 482 l 1
 17 401 l 1
 0 400 l 1
 0 481 l 1x301e80
0 383 m 1
 17 383 l 1
 17 306 l 1
 0 306 l 1
 0 383 l 1
0 290 m 1x311e80
 17 290 l 1
 17 204 l 1
 0 204 l 1
 0 290 l 1x311e80
0 187 m 1x381e80
 17 187 l 1
 17 108 l 1
 0 108 l 1
 0 187 l 1x381e80
0 90 m 1
 17 91 l 1
 17 10 l 1
 0 10 l 1
 0 90 l 1
0 -8 m 1
 17 -8 l 1
 17 -85 l 1
 0 -85 l 1
 0 -8 l 1
0 -102 m 1xb01e80
 17 -102 l 1xb01e80
 17 -171 l 1x701e80
 70 -171 l 1
 70 -188 l 1x701f
 0 -188 l 1xb01f
 0 -102 l 1xb01e80
0 588 m 1x301f
 70 588 l 1
 70 570 l 1x301f
 17 570 l 1
 17 498 l 1
 0 498 l 1x301e80
 0 528 0 558 0 588 c 1x301f
83 588 m 1x301e10
 154 588 l 1
 154 570 l 1
 83 570 l 1
 83 588 l 1x301e10
167 588 m 1x301e0008
 238 588 l 1
 238 570 l 1
 167 570 l 1
 167 588 l 1x301e0008
250 588 m 1x301e000020
 322 588 l 1x301e000020
 322 502 l 1
 305 502 l 1
 305 570 l 1x301e000008
 250 570 l 1
 250 588 l 1x301e000020
322 486 m 1x301e000008
 322 405 l 1
 305 405 l 1
 305 486 l 1
 322 486 l 1x301e000008
322 387 m 1
 322 311 l 1
 305 310 l 1
 305 387 l 1
 322 387 l 1
322 294 m 1
 322 209 l 1
 305 208 l 1
 305 294 l 1
 322 294 l 1
132 280 m 2x30be0aa0
 133 281 133 280 144 286 c 1
 144 287 l 1
 146 285 146 286 147 282 c 1
 156 282 l 1
 158 283 158 283 168 285 c 1
 168 276 l 1
 174 278 180 280 186 282 c 1
 191 282 l 2
 212 282 217 249 184 235 c 0
 180 234 167 229 167 229 c 2
 167 206 l 1
 160 203 161 203 158 202 c 1
 158 274 l 1
 146 274 l 1
 146 231 l 1
 143 229 140 229 137 228 c 1
 137 236 l 1
 135 235 134 234 132 233 c 0
 127 231 123 230 118 228 c 0
 112 228 97 228 91 240 c 1
 91 243 l 1
 99 245 100 246 100 246 c 0
 112 246 117 254 117 262 c 0
 117 267 115 275 102 275 c 1
 102 280 l 1
 105 280 107 282 108 282 c 2
 110 282 l 2
 112 282 127 282 127 262 c 0
 127 247 114 242 106 239 c 1
 113 237 113 237 114 237 c 0
 123 235 134 242 137 250 c 1
 137 273 l 2
 137 273 132 278 132 279 c 2
 132 280 l 2x30be0aa0
48 280 m 2
 49 281 49 280 60 286 c 0
 63 282 l 2
 74 282 l 1
 76 283 76 283 86 285 c 1
 85 282 85 278 85 273 c 2
 85 206 l 1
 78 203 78 203 75 202 c 1
 75 274 l 1
 62 274 l 1
 62 231 l 1
 59 229 56 229 53 228 c 1
 53 273 l 1x30be60
 50 278 48 277 48 279 c 2
 48 280 l 2
211 281 m 0
 214 283 222 286 222 286 c 0
 224 284 224 285 226 282 c 1
 257 282 l 1
 259 283 259 283 269 285 c 1
 269 283 268 280 268 276 c 2
 268 256 l 1
 270 256 l 2
 275 256 280 257 284 257 c 2
 289 257 l 1
 289 256 288 253 286 247 c 0
 285 247 284 248 282 248 c 0
 280 248 275 249 268 249 c 1
 268 206 l 1
 261 203 261 203 258 202 c 1
 258 274 l 1
 247 274 l 1
 247 231 l 1
 240 228 241 228 238 227 c 1
 238 274 l 1
 226 274 l 1
 226 206 l 1
 219 203 219 203 216 202 c 1
 216 273 l 1x307e000150
 211 278 211 277 211 279 c 0
 211 280 211 280 211 281 c 0
170 238 m 0
 195 242 197 262 197 262 c 0
 198 264 200 274 185 274 c 0
 179 274 169 269 167 267 c 1
 167 238 l 1x301e0020
 168 238 169 238 170 238 c 0
117 220 m 0x311e06
 118 220 117 221 118 221 c 0
 119 221 120 221 120 220 c 2
 120 218 l 2
 120 216 120 216 114 204 c 1
 114 202 l 2
 114 201 113 201 113 201 c 2
 112 200 111 200 111 200 c 0
 109 206 103 219 103 219 c 2
 103 220 l 2
 103 221 105 221 106 221 c 0
 106 221 107 220 112 217 c 0
 113 217 113 218 114 218 c 0
 116 218 115 220 117 220 c 0x311e06
173 193 m 2x371e0084
 169 198 l 2
 169 200 l 1
 170 200 l 1
 175 202 179 203 183 204 c 1
 183 178 l 1
 278 178 l 1
 278 178 280 179 282 179 c 0
 284 179 284 178 284 178 c 2
 284 177 283 176 281 170 c 1
 278 171 276 171 274 171 c 0
 269 172 266 172 263 171 c 0
 261 171 250 167 250 158 c 2
 250 153 l 2
 250 153 252 129 281 134 c 1
 281 129 l 1
 278 129 276 126 274 126 c 0
 270 125 266 126 263 126 c 0
 240 126 233 157 246 170 c 1
 231 170 l 1
 231 141 l 1
 227 127 210 126 210 126 c 0
 196 126 194 138 194 142 c 2
 194 170 l 1
 183 170 l 1
 183 103 l 1
 180 101 177 100 173 99 c 1
 173 170 l 1
 162 170 l 1
 162 128 l 1
 159 126 157 126 153 125 c 1
 153 170 l 1
 142 170 l 1
 142 137 l 1
 144 135 144 133 144 133 c 2
 145 131 146 131 146 130 c 2
 145 129 l 1
 145 128 l 1
 142 126 138 126 134 125 c 1
 134 126 133 126 133 127 c 2
 133 129 l 1
 130 127 119 125 114 125 c 0
 99 125 98 142 98 144 c 2
 98 170 l 1
 87 170 l 1
 87 141 l 1
 83 127 66 126 66 126 c 0
 57 124 50 132 50 142 c 2
 50 170 l 1
 31 170 l 2
 29 171 l 0
 29 174 29 175 42 186 c 1
 44 184 46 181 48 178 c 1
 132 178 l 1
 132 193 l 1x371e08c680
 127 198 127 197 127 198 c 0x371e01
 128 200 128 201 140 203 c 0
 141 203 141 204 141 204 c 1
 142 204 l 1
 142 178 l 1
 173 178 l 1
 173 193 l 2x371e0084
322 191 m 1x301e000008
 322 112 l 1
 305 112 l 1
 305 191 l 1
 322 191 l 1x301e000008
69 134 m 0x361e
 74 134 78 136 78 143 c 2
 78 170 l 1
 60 170 l 1
 60 161 60 154 60 145 c 0
 60 134 68 134 69 134 c 0x361e
108 170 m 1x361e0880
 108 146 l 2
 108 144 111 136 114 134 c 0
 116 133 119 134 123 134 c 2
 126 134 l 1
 128 135 130 136 132 138 c 1
 132 170 l 1
 108 170 l 1x361e0880
213 134 m 0
 216 134 222 134 222 143 c 2
 222 170 l 1
 204 170 l 1
 204 147 l 2x361e000280
 204 143 204 134 213 134 c 0
151 118 m 2
 151 118 152 117 158 114 c 1x301e0020
 158 114 160 115 163 117 c 0
 164 117 l 0
 164 118 l 0
 165 118 166 118 166 117 c 2
 166 114 l 1x301e0010
 161 104 160 104 159 101 c 1
 159 99 l 2
 159 98 158 98 158 98 c 2
 157 97 157 97 157 98 c 0
 156 100 155 102 149 116 c 1
 149 117 l 2
 149 118 150 118 151 118 c 2
322 95 m 1x301e000008
 322 14 l 1
 305 14 l 1
 305 95 l 1
 322 95 l 1x301e000008
322 -4 m 1
 322 -81 l 1
 305 -81 l 1
 305 -4 l 1
 322 -4 l 1
322 -98 m 1
 322 -188 l 1xb01e000020
 250 -188 l 1
 250 -171 l 1x701e000020
 305 -171 l 1x701e000008
 305 -98 l 1
 322 -98 l 1
83 -171 m 1x701e10
 154 -171 l 1
 154 -188 l 1
 83 -188 l 1
 83 -171 l 1x701e10
167 -171 m 1x701e0008
 238 -171 l 1
 238 -188 l 1
 167 -188 l 1
 167 -171 l 1x701e0008
EndSplineSet
EndChar

StartChar: W
Encoding: 87 87 22
Width: 321
VWidth: 800
Flags: HW
HStem: -188 86<0 17 305 322> -188 17<17 70 83 154 167 238 250 305> -85 77<0 17 305 322> 14 82<0 17 305 322> 108 79<0 17 305 322> 126 8<62 76 115 132 206 220> 170 8<45 50 60 78 87 98 108 132 142 153 162 173 183 194 204 222 231 246 253 278 278 281> 204 86<0 17 305 322> 228 9<113 131> 248 9<268 288> 274 8<62 75 102 114 146 158 172 196 226 238 247 258> 306 77<0 17 305 322> 405 81<0 17 305 322> 498 17G<0 17 305 322> 570 18<17 70 83 154 167 238 250 305>
VStem: 0 70<-188 -171 570 588> 0 17<-171 -102 -85 -8 10 90 108 187 204 290 306 383 401 481 498 570> 53 10<134 170 229 274> 75 10<134 170 205 273> 83 71<-188 -171 570 588> 98 10<136 170> 103 10<207 214> 117 10<250 272> 127 14<193 202> 132 10<126 129 134 170 178 198 229 236 239 274> 153 10<126 170> 158 10<204 231 238 270> 164 2<117 118> 167 70<-188 -171 570 588> 173 10<101 170 178 200> 194 10<135 170> 216 10<204 274> 222 10<135 170> 238 10<230 274> 250 71<-188 -171 570 588> 258 10<204 249 256 274> 305 17<-171 -98 -81 -4 14 95 112 191 209 294 311 387 405 486 502 570>
LayerCount: 2
Fore
SplineSet
0 481 m 1x301e80
 17 482 l 1
 17 401 l 1
 0 400 l 1
 0 481 l 1x301e80
0 383 m 1
 17 383 l 1
 17 306 l 1
 0 306 l 1
 0 383 l 1
0 290 m 1x311e80
 17 290 l 1
 17 204 l 1
 0 204 l 1
 0 290 l 1x311e80
0 187 m 1x381e80
 17 187 l 1
 17 108 l 1
 0 108 l 1
 0 187 l 1x381e80
0 90 m 1
 17 91 l 1
 17 10 l 1
 0 10 l 1
 0 90 l 1
0 -8 m 1
 17 -8 l 1
 17 -85 l 1
 0 -85 l 1
 0 -8 l 1
0 -102 m 1xb01e80
 17 -102 l 1xb01e80
 17 -171 l 1x701e80
 70 -171 l 1
 70 -188 l 1x701f
 0 -188 l 1xb01f
 0 -102 l 1xb01e80
0 588 m 1x301f
 70 588 l 1
 70 570 l 1x301f
 17 570 l 1
 17 498 l 1
 0 498 l 1x301e80
 0 528 0 558 0 588 c 1x301f
83 588 m 1x301e10
 154 588 l 1
 154 570 l 1
 83 570 l 1
 83 588 l 1x301e10
167 588 m 1x301e0008
 238 588 l 1
 238 570 l 1
 167 570 l 1
 167 588 l 1x301e0008
250 588 m 1x301e000020
 322 588 l 1x301e000020
 322 502 l 1
 305 502 l 1
 305 570 l 1x301e000008
 250 570 l 1
 250 588 l 1x301e000020
322 486 m 1x301e000008
 322 405 l 1
 305 405 l 1
 305 486 l 1
 322 486 l 1x301e000008
322 387 m 1
 322 311 l 1
 305 310 l 1
 305 387 l 1
 322 387 l 1
322 294 m 1
 322 209 l 1
 305 208 l 1
 305 294 l 1
 322 294 l 1
132 280 m 2x30be0aa0
 133 281 133 280 144 286 c 1
 144 287 l 1
 146 285 146 286 147 282 c 1
 156 282 l 1
 158 283 158 283 168 285 c 1
 168 276 l 1
 174 278 180 280 186 282 c 1
 191 282 l 2
 212 282 217 249 184 235 c 0
 180 234 167 229 167 229 c 2
 167 206 l 1
 160 203 161 203 158 202 c 1
 158 274 l 1
 146 274 l 1
 146 231 l 1
 143 229 140 229 137 228 c 1
 137 236 l 1
 135 235 134 234 132 233 c 0
 127 231 123 230 118 228 c 0
 112 228 97 228 91 240 c 1
 91 243 l 1
 99 245 100 246 100 246 c 0
 112 246 117 254 117 262 c 0
 117 267 115 275 102 275 c 1
 102 280 l 1
 105 280 107 282 108 282 c 2
 110 282 l 2
 112 282 127 282 127 262 c 0
 127 247 114 242 106 239 c 1
 113 237 113 237 114 237 c 0
 123 235 134 242 137 250 c 1
 137 273 l 2
 137 273 132 278 132 279 c 2
 132 280 l 2x30be0aa0
48 280 m 2
 49 281 49 280 60 286 c 0
 63 282 l 2
 74 282 l 1
 76 283 76 283 86 285 c 1
 85 282 85 278 85 273 c 2
 85 206 l 1
 78 203 78 203 75 202 c 1
 75 274 l 1
 62 274 l 1
 62 231 l 1
 59 229 56 229 53 228 c 1
 53 273 l 1x30be60
 50 278 48 277 48 279 c 2
 48 280 l 2
211 281 m 0
 214 283 222 286 222 286 c 0
 224 284 224 285 226 282 c 1
 257 282 l 1
 259 283 259 283 269 285 c 1
 269 283 268 280 268 276 c 2
 268 256 l 1
 270 256 l 2
 275 256 280 257 284 257 c 2
 289 257 l 1
 289 256 288 253 286 247 c 0
 285 247 284 248 282 248 c 0
 280 248 275 249 268 249 c 1
 268 206 l 1
 261 203 261 203 258 202 c 1
 258 274 l 1
 247 274 l 1
 247 231 l 1
 240 228 241 228 238 227 c 1
 238 274 l 1
 226 274 l 1
 226 206 l 1
 219 203 219 203 216 202 c 1
 216 273 l 1x307e000150
 211 278 211 277 211 279 c 0
 211 280 211 280 211 281 c 0
170 238 m 0
 195 242 197 262 197 262 c 0
 198 264 200 274 185 274 c 0
 179 274 169 269 167 267 c 1
 167 238 l 1x301e0020
 168 238 169 238 170 238 c 0
117 220 m 0x311e06
 118 220 117 221 118 221 c 0
 119 221 120 221 120 220 c 2
 120 218 l 2
 120 216 120 216 114 204 c 1
 114 202 l 2
 114 201 113 201 113 201 c 2
 112 200 111 200 111 200 c 0
 109 206 103 219 103 219 c 2
 103 220 l 2
 103 221 105 221 106 221 c 0
 106 221 107 220 112 217 c 0
 113 217 113 218 114 218 c 0
 116 218 115 220 117 220 c 0x311e06
173 193 m 2x371e0084
 169 198 l 2
 169 200 l 1
 170 200 l 1
 175 202 179 203 183 204 c 1
 183 178 l 1
 278 178 l 1
 278 178 280 179 282 179 c 0
 284 179 284 178 284 178 c 2
 284 177 283 176 281 170 c 1
 278 171 276 171 274 171 c 0
 269 172 266 172 263 171 c 0
 261 171 250 167 250 158 c 2
 250 153 l 2
 250 153 252 129 281 134 c 1
 281 129 l 1
 278 129 276 126 274 126 c 0
 270 125 266 126 263 126 c 0
 240 126 233 157 246 170 c 1
 231 170 l 1
 231 141 l 1
 227 127 210 126 210 126 c 0
 196 126 194 138 194 142 c 2
 194 170 l 1
 183 170 l 1
 183 103 l 1
 180 101 177 100 173 99 c 1
 173 170 l 1
 162 170 l 1
 162 128 l 1
 159 126 157 126 153 125 c 1
 153 170 l 1
 142 170 l 1
 142 137 l 1
 144 135 144 133 144 133 c 2
 145 131 146 131 146 130 c 2
 145 129 l 1
 145 128 l 1
 142 126 138 126 134 125 c 1
 134 126 133 126 133 127 c 2
 133 129 l 1
 130 127 119 125 114 125 c 0
 99 125 98 142 98 144 c 2
 98 170 l 1
 87 170 l 1
 87 141 l 1
 83 127 66 126 66 126 c 0
 57 124 50 132 50 142 c 2
 50 170 l 1
 31 170 l 2
 29 171 l 0
 29 174 29 175 42 186 c 1
 44 184 46 181 48 178 c 1
 132 178 l 1
 132 193 l 1x371e08c680
 127 198 127 197 127 198 c 0x371e01
 128 200 128 201 140 203 c 0
 141 203 141 204 141 204 c 1
 142 204 l 1
 142 178 l 1
 173 178 l 1
 173 193 l 2x371e0084
322 191 m 1x301e000008
 322 112 l 1
 305 112 l 1
 305 191 l 1
 322 191 l 1x301e000008
69 134 m 0x361e
 74 134 78 136 78 143 c 2
 78 170 l 1
 60 170 l 1
 60 161 60 154 60 145 c 0
 60 134 68 134 69 134 c 0x361e
108 170 m 1x361e0880
 108 146 l 2
 108 144 111 136 114 134 c 0
 116 133 119 134 123 134 c 2
 126 134 l 1
 128 135 130 136 132 138 c 1
 132 170 l 1
 108 170 l 1x361e0880
213 134 m 0
 216 134 222 134 222 143 c 2
 222 170 l 1
 204 170 l 1
 204 147 l 2x361e000280
 204 143 204 134 213 134 c 0
151 118 m 2
 151 118 152 117 158 114 c 1x301e0020
 158 114 160 115 163 117 c 0
 164 117 l 0
 164 118 l 0
 165 118 166 118 166 117 c 2
 166 114 l 1x301e0010
 161 104 160 104 159 101 c 1
 159 99 l 2
 159 98 158 98 158 98 c 2
 157 97 157 97 157 98 c 0
 156 100 155 102 149 116 c 1
 149 117 l 2
 149 118 150 118 151 118 c 2
322 95 m 1x301e000008
 322 14 l 1
 305 14 l 1
 305 95 l 1
 322 95 l 1x301e000008
322 -4 m 1
 322 -81 l 1
 305 -81 l 1
 305 -4 l 1
 322 -4 l 1
322 -98 m 1
 322 -188 l 1xb01e000020
 250 -188 l 1
 250 -171 l 1x701e000020
 305 -171 l 1x701e000008
 305 -98 l 1
 322 -98 l 1
83 -171 m 1x701e10
 154 -171 l 1
 154 -188 l 1
 83 -188 l 1
 83 -171 l 1x701e10
167 -171 m 1x701e0008
 238 -171 l 1
 238 -188 l 1
 167 -188 l 1
 167 -171 l 1x701e0008
EndSplineSet
EndChar

StartChar: X
Encoding: 88 88 23
Width: 321
VWidth: 800
Flags: HW
HStem: -188 86<0 17 305 322> -188 17<17 70 83 154 167 238 250 305> -85 77<0 17 305 322> 14 82<0 17 305 322> 108 79<0 17 305 322> 126 8<62 76 115 132 206 220> 170 8<45 50 60 78 87 98 108 132 142 153 162 173 183 194 204 222 231 246 253 278 278 281> 204 86<0 17 305 322> 228 9<113 131> 248 9<268 288> 274 8<62 75 102 114 146 158 172 196 226 238 247 258> 306 77<0 17 305 322> 405 81<0 17 305 322> 498 17G<0 17 305 322> 570 18<17 70 83 154 167 238 250 305>
VStem: 0 70<-188 -171 570 588> 0 17<-171 -102 -85 -8 10 90 108 187 204 290 306 383 401 481 498 570> 53 10<134 170 229 274> 75 10<134 170 205 273> 83 71<-188 -171 570 588> 98 10<136 170> 103 10<207 214> 117 10<250 272> 127 14<193 202> 132 10<126 129 134 170 178 198 229 236 239 274> 153 10<126 170> 158 10<204 231 238 270> 164 2<117 118> 167 70<-188 -171 570 588> 173 10<101 170 178 200> 194 10<135 170> 216 10<204 274> 222 10<135 170> 238 10<230 274> 250 71<-188 -171 570 588> 258 10<204 249 256 274> 305 17<-171 -98 -81 -4 14 95 112 191 209 294 311 387 405 486 502 570>
LayerCount: 2
Fore
SplineSet
0 481 m 1x301e80
 17 482 l 1
 17 401 l 1
 0 400 l 1
 0 481 l 1x301e80
0 383 m 1
 17 383 l 1
 17 306 l 1
 0 306 l 1
 0 383 l 1
0 290 m 1x311e80
 17 290 l 1
 17 204 l 1
 0 204 l 1
 0 290 l 1x311e80
0 187 m 1x381e80
 17 187 l 1
 17 108 l 1
 0 108 l 1
 0 187 l 1x381e80
0 90 m 1
 17 91 l 1
 17 10 l 1
 0 10 l 1
 0 90 l 1
0 -8 m 1
 17 -8 l 1
 17 -85 l 1
 0 -85 l 1
 0 -8 l 1
0 -102 m 1xb01e80
 17 -102 l 1xb01e80
 17 -171 l 1x701e80
 70 -171 l 1
 70 -188 l 1x701f
 0 -188 l 1xb01f
 0 -102 l 1xb01e80
0 588 m 1x301f
 70 588 l 1
 70 570 l 1x301f
 17 570 l 1
 17 498 l 1
 0 498 l 1x301e80
 0 528 0 558 0 588 c 1x301f
83 588 m 1x301e10
 154 588 l 1
 154 570 l 1
 83 570 l 1
 83 588 l 1x301e10
167 588 m 1x301e0008
 238 588 l 1
 238 570 l 1
 167 570 l 1
 167 588 l 1x301e0008
250 588 m 1x301e000020
 322 588 l 1x301e000020
 322 502 l 1
 305 502 l 1
 305 570 l 1x301e000008
 250 570 l 1
 250 588 l 1x301e000020
322 486 m 1x301e000008
 322 405 l 1
 305 405 l 1
 305 486 l 1
 322 486 l 1x301e000008
322 387 m 1
 322 311 l 1
 305 310 l 1
 305 387 l 1
 322 387 l 1
322 294 m 1
 322 209 l 1
 305 208 l 1
 305 294 l 1
 322 294 l 1
132 280 m 2x30be0aa0
 133 281 133 280 144 286 c 1
 144 287 l 1
 146 285 146 286 147 282 c 1
 156 282 l 1
 158 283 158 283 168 285 c 1
 168 276 l 1
 174 278 180 280 186 282 c 1
 191 282 l 2
 212 282 217 249 184 235 c 0
 180 234 167 229 167 229 c 2
 167 206 l 1
 160 203 161 203 158 202 c 1
 158 274 l 1
 146 274 l 1
 146 231 l 1
 143 229 140 229 137 228 c 1
 137 236 l 1
 135 235 134 234 132 233 c 0
 127 231 123 230 118 228 c 0
 112 228 97 228 91 240 c 1
 91 243 l 1
 99 245 100 246 100 246 c 0
 112 246 117 254 117 262 c 0
 117 267 115 275 102 275 c 1
 102 280 l 1
 105 280 107 282 108 282 c 2
 110 282 l 2
 112 282 127 282 127 262 c 0
 127 247 114 242 106 239 c 1
 113 237 113 237 114 237 c 0
 123 235 134 242 137 250 c 1
 137 273 l 2
 137 273 132 278 132 279 c 2
 132 280 l 2x30be0aa0
48 280 m 2
 49 281 49 280 60 286 c 0
 63 282 l 2
 74 282 l 1
 76 283 76 283 86 285 c 1
 85 282 85 278 85 273 c 2
 85 206 l 1
 78 203 78 203 75 202 c 1
 75 274 l 1
 62 274 l 1
 62 231 l 1
 59 229 56 229 53 228 c 1
 53 273 l 1x30be60
 50 278 48 277 48 279 c 2
 48 280 l 2
211 281 m 0
 214 283 222 286 222 286 c 0
 224 284 224 285 226 282 c 1
 257 282 l 1
 259 283 259 283 269 285 c 1
 269 283 268 280 268 276 c 2
 268 256 l 1
 270 256 l 2
 275 256 280 257 284 257 c 2
 289 257 l 1
 289 256 288 253 286 247 c 0
 285 247 284 248 282 248 c 0
 280 248 275 249 268 249 c 1
 268 206 l 1
 261 203 261 203 258 202 c 1
 258 274 l 1
 247 274 l 1
 247 231 l 1
 240 228 241 228 238 227 c 1
 238 274 l 1
 226 274 l 1
 226 206 l 1
 219 203 219 203 216 202 c 1
 216 273 l 1x307e000150
 211 278 211 277 211 279 c 0
 211 280 211 280 211 281 c 0
170 238 m 0
 195 242 197 262 197 262 c 0
 198 264 200 274 185 274 c 0
 179 274 169 269 167 267 c 1
 167 238 l 1x301e0020
 168 238 169 238 170 238 c 0
117 220 m 0x311e06
 118 220 117 221 118 221 c 0
 119 221 120 221 120 220 c 2
 120 218 l 2
 120 216 120 216 114 204 c 1
 114 202 l 2
 114 201 113 201 113 201 c 2
 112 200 111 200 111 200 c 0
 109 206 103 219 103 219 c 2
 103 220 l 2
 103 221 105 221 106 221 c 0
 106 221 107 220 112 217 c 0
 113 217 113 218 114 218 c 0
 116 218 115 220 117 220 c 0x311e06
173 193 m 2x371e0084
 169 198 l 2
 169 200 l 1
 170 200 l 1
 175 202 179 203 183 204 c 1
 183 178 l 1
 278 178 l 1
 278 178 280 179 282 179 c 0
 284 179 284 178 284 178 c 2
 284 177 283 176 281 170 c 1
 278 171 276 171 274 171 c 0
 269 172 266 172 263 171 c 0
 261 171 250 167 250 158 c 2
 250 153 l 2
 250 153 252 129 281 134 c 1
 281 129 l 1
 278 129 276 126 274 126 c 0
 270 125 266 126 263 126 c 0
 240 126 233 157 246 170 c 1
 231 170 l 1
 231 141 l 1
 227 127 210 126 210 126 c 0
 196 126 194 138 194 142 c 2
 194 170 l 1
 183 170 l 1
 183 103 l 1
 180 101 177 100 173 99 c 1
 173 170 l 1
 162 170 l 1
 162 128 l 1
 159 126 157 126 153 125 c 1
 153 170 l 1
 142 170 l 1
 142 137 l 1
 144 135 144 133 144 133 c 2
 145 131 146 131 146 130 c 2
 145 129 l 1
 145 128 l 1
 142 126 138 126 134 125 c 1
 134 126 133 126 133 127 c 2
 133 129 l 1
 130 127 119 125 114 125 c 0
 99 125 98 142 98 144 c 2
 98 170 l 1
 87 170 l 1
 87 141 l 1
 83 127 66 126 66 126 c 0
 57 124 50 132 50 142 c 2
 50 170 l 1
 31 170 l 2
 29 171 l 0
 29 174 29 175 42 186 c 1
 44 184 46 181 48 178 c 1
 132 178 l 1
 132 193 l 1x371e08c680
 127 198 127 197 127 198 c 0x371e01
 128 200 128 201 140 203 c 0
 141 203 141 204 141 204 c 1
 142 204 l 1
 142 178 l 1
 173 178 l 1
 173 193 l 2x371e0084
322 191 m 1x301e000008
 322 112 l 1
 305 112 l 1
 305 191 l 1
 322 191 l 1x301e000008
69 134 m 0x361e
 74 134 78 136 78 143 c 2
 78 170 l 1
 60 170 l 1
 60 161 60 154 60 145 c 0
 60 134 68 134 69 134 c 0x361e
108 170 m 1x361e0880
 108 146 l 2
 108 144 111 136 114 134 c 0
 116 133 119 134 123 134 c 2
 126 134 l 1
 128 135 130 136 132 138 c 1
 132 170 l 1
 108 170 l 1x361e0880
213 134 m 0
 216 134 222 134 222 143 c 2
 222 170 l 1
 204 170 l 1
 204 147 l 2x361e000280
 204 143 204 134 213 134 c 0
151 118 m 2
 151 118 152 117 158 114 c 1x301e0020
 158 114 160 115 163 117 c 0
 164 117 l 0
 164 118 l 0
 165 118 166 118 166 117 c 2
 166 114 l 1x301e0010
 161 104 160 104 159 101 c 1
 159 99 l 2
 159 98 158 98 158 98 c 2
 157 97 157 97 157 98 c 0
 156 100 155 102 149 116 c 1
 149 117 l 2
 149 118 150 118 151 118 c 2
322 95 m 1x301e000008
 322 14 l 1
 305 14 l 1
 305 95 l 1
 322 95 l 1x301e000008
322 -4 m 1
 322 -81 l 1
 305 -81 l 1
 305 -4 l 1
 322 -4 l 1
322 -98 m 1
 322 -188 l 1xb01e000020
 250 -188 l 1
 250 -171 l 1x701e000020
 305 -171 l 1x701e000008
 305 -98 l 1
 322 -98 l 1
83 -171 m 1x701e10
 154 -171 l 1
 154 -188 l 1
 83 -188 l 1
 83 -171 l 1x701e10
167 -171 m 1x701e0008
 238 -171 l 1
 238 -188 l 1
 167 -188 l 1
 167 -171 l 1x701e0008
EndSplineSet
EndChar

StartChar: Y
Encoding: 89 89 24
Width: 321
VWidth: 800
Flags: HW
HStem: -188 86<0 17 305 322> -188 17<17 70 83 154 167 238 250 305> -85 77<0 17 305 322> 14 82<0 17 305 322> 108 79<0 17 305 322> 126 8<62 76 115 132 206 220> 170 8<45 50 60 78 87 98 108 132 142 153 162 173 183 194 204 222 231 246 253 278 278 281> 204 86<0 17 305 322> 228 9<113 131> 248 9<268 288> 274 8<62 75 102 114 146 158 172 196 226 238 247 258> 306 77<0 17 305 322> 405 81<0 17 305 322> 498 17G<0 17 305 322> 570 18<17 70 83 154 167 238 250 305>
VStem: 0 70<-188 -171 570 588> 0 17<-171 -102 -85 -8 10 90 108 187 204 290 306 383 401 481 498 570> 53 10<134 170 229 274> 75 10<134 170 205 273> 83 71<-188 -171 570 588> 98 10<136 170> 103 10<207 214> 117 10<250 272> 127 14<193 202> 132 10<126 129 134 170 178 198 229 236 239 274> 153 10<126 170> 158 10<204 231 238 270> 164 2<117 118> 167 70<-188 -171 570 588> 173 10<101 170 178 200> 194 10<135 170> 216 10<204 274> 222 10<135 170> 238 10<230 274> 250 71<-188 -171 570 588> 258 10<204 249 256 274> 305 17<-171 -98 -81 -4 14 95 112 191 209 294 311 387 405 486 502 570>
LayerCount: 2
Fore
SplineSet
0 481 m 1x301e80
 17 482 l 1
 17 401 l 1
 0 400 l 1
 0 481 l 1x301e80
0 383 m 1
 17 383 l 1
 17 306 l 1
 0 306 l 1
 0 383 l 1
0 290 m 1x311e80
 17 290 l 1
 17 204 l 1
 0 204 l 1
 0 290 l 1x311e80
0 187 m 1x381e80
 17 187 l 1
 17 108 l 1
 0 108 l 1
 0 187 l 1x381e80
0 90 m 1
 17 91 l 1
 17 10 l 1
 0 10 l 1
 0 90 l 1
0 -8 m 1
 17 -8 l 1
 17 -85 l 1
 0 -85 l 1
 0 -8 l 1
0 -102 m 1xb01e80
 17 -102 l 1xb01e80
 17 -171 l 1x701e80
 70 -171 l 1
 70 -188 l 1x701f
 0 -188 l 1xb01f
 0 -102 l 1xb01e80
0 588 m 1x301f
 70 588 l 1
 70 570 l 1x301f
 17 570 l 1
 17 498 l 1
 0 498 l 1x301e80
 0 528 0 558 0 588 c 1x301f
83 588 m 1x301e10
 154 588 l 1
 154 570 l 1
 83 570 l 1
 83 588 l 1x301e10
167 588 m 1x301e0008
 238 588 l 1
 238 570 l 1
 167 570 l 1
 167 588 l 1x301e0008
250 588 m 1x301e000020
 322 588 l 1x301e000020
 322 502 l 1
 305 502 l 1
 305 570 l 1x301e000008
 250 570 l 1
 250 588 l 1x301e000020
322 486 m 1x301e000008
 322 405 l 1
 305 405 l 1
 305 486 l 1
 322 486 l 1x301e000008
322 387 m 1
 322 311 l 1
 305 310 l 1
 305 387 l 1
 322 387 l 1
322 294 m 1
 322 209 l 1
 305 208 l 1
 305 294 l 1
 322 294 l 1
132 280 m 2x30be0aa0
 133 281 133 280 144 286 c 1
 144 287 l 1
 146 285 146 286 147 282 c 1
 156 282 l 1
 158 283 158 283 168 285 c 1
 168 276 l 1
 174 278 180 280 186 282 c 1
 191 282 l 2
 212 282 217 249 184 235 c 0
 180 234 167 229 167 229 c 2
 167 206 l 1
 160 203 161 203 158 202 c 1
 158 274 l 1
 146 274 l 1
 146 231 l 1
 143 229 140 229 137 228 c 1
 137 236 l 1
 135 235 134 234 132 233 c 0
 127 231 123 230 118 228 c 0
 112 228 97 228 91 240 c 1
 91 243 l 1
 99 245 100 246 100 246 c 0
 112 246 117 254 117 262 c 0
 117 267 115 275 102 275 c 1
 102 280 l 1
 105 280 107 282 108 282 c 2
 110 282 l 2
 112 282 127 282 127 262 c 0
 127 247 114 242 106 239 c 1
 113 237 113 237 114 237 c 0
 123 235 134 242 137 250 c 1
 137 273 l 2
 137 273 132 278 132 279 c 2
 132 280 l 2x30be0aa0
48 280 m 2
 49 281 49 280 60 286 c 0
 63 282 l 2
 74 282 l 1
 76 283 76 283 86 285 c 1
 85 282 85 278 85 273 c 2
 85 206 l 1
 78 203 78 203 75 202 c 1
 75 274 l 1
 62 274 l 1
 62 231 l 1
 59 229 56 229 53 228 c 1
 53 273 l 1x30be60
 50 278 48 277 48 279 c 2
 48 280 l 2
211 281 m 0
 214 283 222 286 222 286 c 0
 224 284 224 285 226 282 c 1
 257 282 l 1
 259 283 259 283 269 285 c 1
 269 283 268 280 268 276 c 2
 268 256 l 1
 270 256 l 2
 275 256 280 257 284 257 c 2
 289 257 l 1
 289 256 288 253 286 247 c 0
 285 247 284 248 282 248 c 0
 280 248 275 249 268 249 c 1
 268 206 l 1
 261 203 261 203 258 202 c 1
 258 274 l 1
 247 274 l 1
 247 231 l 1
 240 228 241 228 238 227 c 1
 238 274 l 1
 226 274 l 1
 226 206 l 1
 219 203 219 203 216 202 c 1
 216 273 l 1x307e000150
 211 278 211 277 211 279 c 0
 211 280 211 280 211 281 c 0
170 238 m 0
 195 242 197 262 197 262 c 0
 198 264 200 274 185 274 c 0
 179 274 169 269 167 267 c 1
 167 238 l 1x301e0020
 168 238 169 238 170 238 c 0
117 220 m 0x311e06
 118 220 117 221 118 221 c 0
 119 221 120 221 120 220 c 2
 120 218 l 2
 120 216 120 216 114 204 c 1
 114 202 l 2
 114 201 113 201 113 201 c 2
 112 200 111 200 111 200 c 0
 109 206 103 219 103 219 c 2
 103 220 l 2
 103 221 105 221 106 221 c 0
 106 221 107 220 112 217 c 0
 113 217 113 218 114 218 c 0
 116 218 115 220 117 220 c 0x311e06
173 193 m 2x371e0084
 169 198 l 2
 169 200 l 1
 170 200 l 1
 175 202 179 203 183 204 c 1
 183 178 l 1
 278 178 l 1
 278 178 280 179 282 179 c 0
 284 179 284 178 284 178 c 2
 284 177 283 176 281 170 c 1
 278 171 276 171 274 171 c 0
 269 172 266 172 263 171 c 0
 261 171 250 167 250 158 c 2
 250 153 l 2
 250 153 252 129 281 134 c 1
 281 129 l 1
 278 129 276 126 274 126 c 0
 270 125 266 126 263 126 c 0
 240 126 233 157 246 170 c 1
 231 170 l 1
 231 141 l 1
 227 127 210 126 210 126 c 0
 196 126 194 138 194 142 c 2
 194 170 l 1
 183 170 l 1
 183 103 l 1
 180 101 177 100 173 99 c 1
 173 170 l 1
 162 170 l 1
 162 128 l 1
 159 126 157 126 153 125 c 1
 153 170 l 1
 142 170 l 1
 142 137 l 1
 144 135 144 133 144 133 c 2
 145 131 146 131 146 130 c 2
 145 129 l 1
 145 128 l 1
 142 126 138 126 134 125 c 1
 134 126 133 126 133 127 c 2
 133 129 l 1
 130 127 119 125 114 125 c 0
 99 125 98 142 98 144 c 2
 98 170 l 1
 87 170 l 1
 87 141 l 1
 83 127 66 126 66 126 c 0
 57 124 50 132 50 142 c 2
 50 170 l 1
 31 170 l 2
 29 171 l 0
 29 174 29 175 42 186 c 1
 44 184 46 181 48 178 c 1
 132 178 l 1
 132 193 l 1x371e08c680
 127 198 127 197 127 198 c 0x371e01
 128 200 128 201 140 203 c 0
 141 203 141 204 141 204 c 1
 142 204 l 1
 142 178 l 1
 173 178 l 1
 173 193 l 2x371e0084
322 191 m 1x301e000008
 322 112 l 1
 305 112 l 1
 305 191 l 1
 322 191 l 1x301e000008
69 134 m 0x361e
 74 134 78 136 78 143 c 2
 78 170 l 1
 60 170 l 1
 60 161 60 154 60 145 c 0
 60 134 68 134 69 134 c 0x361e
108 170 m 1x361e0880
 108 146 l 2
 108 144 111 136 114 134 c 0
 116 133 119 134 123 134 c 2
 126 134 l 1
 128 135 130 136 132 138 c 1
 132 170 l 1
 108 170 l 1x361e0880
213 134 m 0
 216 134 222 134 222 143 c 2
 222 170 l 1
 204 170 l 1
 204 147 l 2x361e000280
 204 143 204 134 213 134 c 0
151 118 m 2
 151 118 152 117 158 114 c 1x301e0020
 158 114 160 115 163 117 c 0
 164 117 l 0
 164 118 l 0
 165 118 166 118 166 117 c 2
 166 114 l 1x301e0010
 161 104 160 104 159 101 c 1
 159 99 l 2
 159 98 158 98 158 98 c 2
 157 97 157 97 157 98 c 0
 156 100 155 102 149 116 c 1
 149 117 l 2
 149 118 150 118 151 118 c 2
322 95 m 1x301e000008
 322 14 l 1
 305 14 l 1
 305 95 l 1
 322 95 l 1x301e000008
322 -4 m 1
 322 -81 l 1
 305 -81 l 1
 305 -4 l 1
 322 -4 l 1
322 -98 m 1
 322 -188 l 1xb01e000020
 250 -188 l 1
 250 -171 l 1x701e000020
 305 -171 l 1x701e000008
 305 -98 l 1
 322 -98 l 1
83 -171 m 1x701e10
 154 -171 l 1
 154 -188 l 1
 83 -188 l 1
 83 -171 l 1x701e10
167 -171 m 1x701e0008
 238 -171 l 1
 238 -188 l 1
 167 -188 l 1
 167 -171 l 1x701e0008
EndSplineSet
EndChar

StartChar: Z
Encoding: 90 90 25
Width: 321
VWidth: 800
Flags: HW
HStem: -188 86<0 17 305 322> -188 17<17 70 83 154 167 238 250 305> -85 77<0 17 305 322> 14 82<0 17 305 322> 108 79<0 17 305 322> 126 8<62 76 115 132 206 220> 170 8<45 50 60 78 87 98 108 132 142 153 162 173 183 194 204 222 231 246 253 278 278 281> 204 86<0 17 305 322> 228 9<113 131> 248 9<268 288> 274 8<62 75 102 114 146 158 172 196 226 238 247 258> 306 77<0 17 305 322> 405 81<0 17 305 322> 498 17G<0 17 305 322> 570 18<17 70 83 154 167 238 250 305>
VStem: 0 70<-188 -171 570 588> 0 17<-171 -102 -85 -8 10 90 108 187 204 290 306 383 401 481 498 570> 53 10<134 170 229 274> 75 10<134 170 205 273> 83 71<-188 -171 570 588> 98 10<136 170> 103 10<207 214> 117 10<250 272> 127 14<193 202> 132 10<126 129 134 170 178 198 229 236 239 274> 153 10<126 170> 158 10<204 231 238 270> 164 2<117 118> 167 70<-188 -171 570 588> 173 10<101 170 178 200> 194 10<135 170> 216 10<204 274> 222 10<135 170> 238 10<230 274> 250 71<-188 -171 570 588> 258 10<204 249 256 274> 305 17<-171 -98 -81 -4 14 95 112 191 209 294 311 387 405 486 502 570>
LayerCount: 2
Fore
SplineSet
0 481 m 1x301e80
 17 482 l 1
 17 401 l 1
 0 400 l 1
 0 481 l 1x301e80
0 383 m 1
 17 383 l 1
 17 306 l 1
 0 306 l 1
 0 383 l 1
0 290 m 1x311e80
 17 290 l 1
 17 204 l 1
 0 204 l 1
 0 290 l 1x311e80
0 187 m 1x381e80
 17 187 l 1
 17 108 l 1
 0 108 l 1
 0 187 l 1x381e80
0 90 m 1
 17 91 l 1
 17 10 l 1
 0 10 l 1
 0 90 l 1
0 -8 m 1
 17 -8 l 1
 17 -85 l 1
 0 -85 l 1
 0 -8 l 1
0 -102 m 1xb01e80
 17 -102 l 1xb01e80
 17 -171 l 1x701e80
 70 -171 l 1
 70 -188 l 1x701f
 0 -188 l 1xb01f
 0 -102 l 1xb01e80
0 588 m 1x301f
 70 588 l 1
 70 570 l 1x301f
 17 570 l 1
 17 498 l 1
 0 498 l 1x301e80
 0 528 0 558 0 588 c 1x301f
83 588 m 1x301e10
 154 588 l 1
 154 570 l 1
 83 570 l 1
 83 588 l 1x301e10
167 588 m 1x301e0008
 238 588 l 1
 238 570 l 1
 167 570 l 1
 167 588 l 1x301e0008
250 588 m 1x301e000020
 322 588 l 1x301e000020
 322 502 l 1
 305 502 l 1
 305 570 l 1x301e000008
 250 570 l 1
 250 588 l 1x301e000020
322 486 m 1x301e000008
 322 405 l 1
 305 405 l 1
 305 486 l 1
 322 486 l 1x301e000008
322 387 m 1
 322 311 l 1
 305 310 l 1
 305 387 l 1
 322 387 l 1
322 294 m 1
 322 209 l 1
 305 208 l 1
 305 294 l 1
 322 294 l 1
132 280 m 2x30be0aa0
 133 281 133 280 144 286 c 1
 144 287 l 1
 146 285 146 286 147 282 c 1
 156 282 l 1
 158 283 158 283 168 285 c 1
 168 276 l 1
 174 278 180 280 186 282 c 1
 191 282 l 2
 212 282 217 249 184 235 c 0
 180 234 167 229 167 229 c 2
 167 206 l 1
 160 203 161 203 158 202 c 1
 158 274 l 1
 146 274 l 1
 146 231 l 1
 143 229 140 229 137 228 c 1
 137 236 l 1
 135 235 134 234 132 233 c 0
 127 231 123 230 118 228 c 0
 112 228 97 228 91 240 c 1
 91 243 l 1
 99 245 100 246 100 246 c 0
 112 246 117 254 117 262 c 0
 117 267 115 275 102 275 c 1
 102 280 l 1
 105 280 107 282 108 282 c 2
 110 282 l 2
 112 282 127 282 127 262 c 0
 127 247 114 242 106 239 c 1
 113 237 113 237 114 237 c 0
 123 235 134 242 137 250 c 1
 137 273 l 2
 137 273 132 278 132 279 c 2
 132 280 l 2x30be0aa0
48 280 m 2
 49 281 49 280 60 286 c 0
 63 282 l 2
 74 282 l 1
 76 283 76 283 86 285 c 1
 85 282 85 278 85 273 c 2
 85 206 l 1
 78 203 78 203 75 202 c 1
 75 274 l 1
 62 274 l 1
 62 231 l 1
 59 229 56 229 53 228 c 1
 53 273 l 1x30be60
 50 278 48 277 48 279 c 2
 48 280 l 2
211 281 m 0
 214 283 222 286 222 286 c 0
 224 284 224 285 226 282 c 1
 257 282 l 1
 259 283 259 283 269 285 c 1
 269 283 268 280 268 276 c 2
 268 256 l 1
 270 256 l 2
 275 256 280 257 284 257 c 2
 289 257 l 1
 289 256 288 253 286 247 c 0
 285 247 284 248 282 248 c 0
 280 248 275 249 268 249 c 1
 268 206 l 1
 261 203 261 203 258 202 c 1
 258 274 l 1
 247 274 l 1
 247 231 l 1
 240 228 241 228 238 227 c 1
 238 274 l 1
 226 274 l 1
 226 206 l 1
 219 203 219 203 216 202 c 1
 216 273 l 1x307e000150
 211 278 211 277 211 279 c 0
 211 280 211 280 211 281 c 0
170 238 m 0
 195 242 197 262 197 262 c 0
 198 264 200 274 185 274 c 0
 179 274 169 269 167 267 c 1
 167 238 l 1x301e0020
 168 238 169 238 170 238 c 0
117 220 m 0x311e06
 118 220 117 221 118 221 c 0
 119 221 120 221 120 220 c 2
 120 218 l 2
 120 216 120 216 114 204 c 1
 114 202 l 2
 114 201 113 201 113 201 c 2
 112 200 111 200 111 200 c 0
 109 206 103 219 103 219 c 2
 103 220 l 2
 103 221 105 221 106 221 c 0
 106 221 107 220 112 217 c 0
 113 217 113 218 114 218 c 0
 116 218 115 220 117 220 c 0x311e06
173 193 m 2x371e0084
 169 198 l 2
 169 200 l 1
 170 200 l 1
 175 202 179 203 183 204 c 1
 183 178 l 1
 278 178 l 1
 278 178 280 179 282 179 c 0
 284 179 284 178 284 178 c 2
 284 177 283 176 281 170 c 1
 278 171 276 171 274 171 c 0
 269 172 266 172 263 171 c 0
 261 171 250 167 250 158 c 2
 250 153 l 2
 250 153 252 129 281 134 c 1
 281 129 l 1
 278 129 276 126 274 126 c 0
 270 125 266 126 263 126 c 0
 240 126 233 157 246 170 c 1
 231 170 l 1
 231 141 l 1
 227 127 210 126 210 126 c 0
 196 126 194 138 194 142 c 2
 194 170 l 1
 183 170 l 1
 183 103 l 1
 180 101 177 100 173 99 c 1
 173 170 l 1
 162 170 l 1
 162 128 l 1
 159 126 157 126 153 125 c 1
 153 170 l 1
 142 170 l 1
 142 137 l 1
 144 135 144 133 144 133 c 2
 145 131 146 131 146 130 c 2
 145 129 l 1
 145 128 l 1
 142 126 138 126 134 125 c 1
 134 126 133 126 133 127 c 2
 133 129 l 1
 130 127 119 125 114 125 c 0
 99 125 98 142 98 144 c 2
 98 170 l 1
 87 170 l 1
 87 141 l 1
 83 127 66 126 66 126 c 0
 57 124 50 132 50 142 c 2
 50 170 l 1
 31 170 l 2
 29 171 l 0
 29 174 29 175 42 186 c 1
 44 184 46 181 48 178 c 1
 132 178 l 1
 132 193 l 1x371e08c680
 127 198 127 197 127 198 c 0x371e01
 128 200 128 201 140 203 c 0
 141 203 141 204 141 204 c 1
 142 204 l 1
 142 178 l 1
 173 178 l 1
 173 193 l 2x371e0084
322 191 m 1x301e000008
 322 112 l 1
 305 112 l 1
 305 191 l 1
 322 191 l 1x301e000008
69 134 m 0x361e
 74 134 78 136 78 143 c 2
 78 170 l 1
 60 170 l 1
 60 161 60 154 60 145 c 0
 60 134 68 134 69 134 c 0x361e
108 170 m 1x361e0880
 108 146 l 2
 108 144 111 136 114 134 c 0
 116 133 119 134 123 134 c 2
 126 134 l 1
 128 135 130 136 132 138 c 1
 132 170 l 1
 108 170 l 1x361e0880
213 134 m 0
 216 134 222 134 222 143 c 2
 222 170 l 1
 204 170 l 1
 204 147 l 2x361e000280
 204 143 204 134 213 134 c 0
151 118 m 2
 151 118 152 117 158 114 c 1x301e0020
 158 114 160 115 163 117 c 0
 164 117 l 0
 164 118 l 0
 165 118 166 118 166 117 c 2
 166 114 l 1x301e0010
 161 104 160 104 159 101 c 1
 159 99 l 2
 159 98 158 98 158 98 c 2
 157 97 157 97 157 98 c 0
 156 100 155 102 149 116 c 1
 149 117 l 2
 149 118 150 118 151 118 c 2
322 95 m 1x301e000008
 322 14 l 1
 305 14 l 1
 305 95 l 1
 322 95 l 1x301e000008
322 -4 m 1
 322 -81 l 1
 305 -81 l 1
 305 -4 l 1
 322 -4 l 1
322 -98 m 1
 322 -188 l 1xb01e000020
 250 -188 l 1
 250 -171 l 1x701e000020
 305 -171 l 1x701e000008
 305 -98 l 1
 322 -98 l 1
83 -171 m 1x701e10
 154 -171 l 1
 154 -188 l 1
 83 -188 l 1
 83 -171 l 1x701e10
167 -171 m 1x701e0008
 238 -171 l 1
 238 -188 l 1
 167 -188 l 1
 167 -171 l 1x701e0008
EndSplineSet
EndChar

StartChar: a
Encoding: 97 97 26
Width: 775
VWidth: 800
Flags: HW
HStem: -22 46<335 453> 366 36<147 199 280 502 584 726> 452 16G<76 105> 518 106<368 447>
VStem: 199 81<81 366> 354 106<532 611> 502 82<55 366>
LayerCount: 2
Fore
SplineSet
461 572 m 0
 461 542 437 518 407 518 c 0
 377 518 354 542 354 572 c 0
 354 602 377 625 407 625 c 0
 437 625 461 602 461 572 c 0
92 468 m 1
 147 402 l 1
 638 402 l 2
 661 402 730 407 746 409 c 1
 727 356 l 1
 707 362 659 366 638 366 c 0
 620 366 602 366 584 366 c 1
 584 55 l 5
 618 10 l 1
 592 -3 554 -13 520 -19 c 1
 510 15 l 1
 490 7 456 -4 438 -9 c 0
 408 -17 380 -22 354 -22 c 0
 258 -22 199 35 199 137 c 2
 199 366 l 1
 130 366 63 366 -6 366 c 0
 -20 366 -23 370 -13 379 c 0
 13 404 60 443 92 468 c 1
502 62 m 5
 502 366 l 1
 428 366 354 366 280 366 c 1
 280 160 l 2
 280 78 319 24 402 24 c 0
 435 24 460 27 502 62 c 5
EndSplineSet
EndChar

StartChar: b
Encoding: 98 98 27
Width: 547
VWidth: 800
Flags: HW
HStem: -0 36<136 497> 195 36<136 457> 367 36<141 490> 432 16G<100 123>
VStem: 54 81<-37 -0 36 195 230 356>
LayerCount: 2
Fore
SplineSet
476 237 m 1
 458 184 l 1
 438 190 389 195 368 195 c 2
 136 195 l 1
 136 36 l 1
 409 36 l 2
 432 36 500 41 516 42 c 1
 498 -11 l 1
 478 -5 430 0 409 0 c 2
 136 -0 l 1
 136 -34 l 1
 114 -46 81 -57 54 -63 c 1
 54 356 l 1
 13 401 l 1
 36 414 86 438 113 448 c 1
 141 403 l 1
 402 403 l 2
 425 403 493 408 509 409 c 1
 491 356 l 1
 471 362 422 367 401 367 c 2
 136 367 l 1
 136 230 l 1
 369 230 l 2
 392 230 460 236 476 237 c 1
EndSplineSet
EndChar

StartChar: c
Encoding: 99 99 28
Width: 471
VWidth: 800
Flags: HW
HStem: 58 19<198 249> 366 36<140 336> 417 16G<404 420> 430 16G<100 123>
VStem: 54 81<-207 354> 337 81<73 365>
LayerCount: 2
Fore
SplineSet
114 446 m 1xdc
 140 402 l 1
 319 402 l 1
 355 415 386 425 422 433 c 1xec
 420 415 418 370 418 332 c 2
 418 78 l 2
 418 19 403 -4 305 -14 c 1
 290 40 269 49 198 58 c 1
 198 78 l 1
 241 76 287 72 310 72 c 0
 329 72 337 78 337 94 c 2
 337 366 l 1
 334 366 l 1
 135 366 l 1
 135 -204 l 1
 113 -216 81 -227 54 -233 c 1
 54 354 l 1
 13 398 l 1
 36 411 87 436 114 446 c 1xdc
EndSplineSet
EndChar

StartChar: d
Encoding: 100 100 29
Width: 551
VWidth: 800
Flags: HW
HStem: -10 40<215 353> 377 34<195 347> 438 16G<76 148>
VStem: 34 82<130 277> 429 90<135 297>
LayerCount: 2
Fore
SplineSet
124 454 m 1
 173 429 245 411 312 411 c 2
 346 411 l 2
 432 411 519 348 519 234 c 0
 519 114 461 41 375 11 c 0
 340 -1 284 -10 249 -10 c 0
 123 -10 34 74 34 183 c 0
 34 281 78 349 159 379 c 1
 124 382 70 397 38 410 c 1
 38 426 l 1
 124 454 l 1
246 377 m 0
 173 377 117 293 117 214 c 0
 117 76 225 30 285 30 c 0
 360 30 429 83 429 214 c 0
 429 351 336 377 246 377 c 0
EndSplineSet
EndChar

StartChar: e
Encoding: 101 101 30
Width: 560
VWidth: 800
Flags: HW
HStem: 156 35<163 246 327 517> 366 36<186 245> 417 16G<314 331> 452 16G<115 145>
VStem: 246 81<-207 156 191 365>
LayerCount: 2
Fore
SplineSet
131 468 m 1
 186 402 l 1
 229 402 l 1
 265 415 296 425 332 433 c 1
 330 415 327 370 327 332 c 2
 327 191 l 1
 429 191 l 2
 452 191 519 196 535 198 c 1
 518 145 l 1
 498 151 449 156 428 156 c 2
 327 156 l 1
 327 -204 l 1
 305 -216 273 -227 246 -233 c 1
 246 156 l 1
 10 156 l 2
 4 156 -2 157 -2 160 c 0
 -2 163 3 169 13 178 c 0
 30 193 76 232 108 257 c 1
 163 191 l 1
 246 191 l 1
 246 366 l 1
 33 366 l 2
 27 366 22 367 22 370 c 0
 22 373 26 380 36 389 c 0
 53 404 99 443 131 468 c 1
EndSplineSet
EndChar

StartChar: f
Encoding: 102 102 31
Width: 529
VWidth: 800
Flags: HW
HStem: 371 41<252 381> 600 16G<119 135>
VStem: 54 81<38 319 358 549> 418 84<202 334>
LayerCount: 2
Fore
SplineSet
315 371 m 0
 241 371 159 330 135 306 c 1
 135 38 l 1
 266 43 418 132 418 270 c 0
 418 352 365 371 315 371 c 0
135 616 m 1
 135 358 l 1
 221 388 287 406 335 411 c 0
 344 412 353 412 362 412 c 0
 443 412 502 372 502 282 c 0
 502 157 387 78 286 38 c 0
 217 11 117 -13 54 -21 c 1
 54 549 l 1
 18 589 l 1
 49 599 102 611 135 616 c 1
EndSplineSet
EndChar

StartChar: g
Encoding: 103 103 32
Width: 471
VWidth: 800
Flags: HW
HStem: 58 19<198 249> 366 36<140 336> 417 16G<404 420> 430 16G<100 123> 518 106<204 282>
VStem: 54 81<-207 354> 190 106<532 611> 337 81<73 365>
LayerCount: 2
Fore
SplineSet
114 446 m 1xdf
 140 402 l 1
 319 402 l 1
 355 415 386 425 422 433 c 1xef
 420 415 418 370 418 332 c 2
 418 78 l 2
 418 19 403 -4 305 -14 c 1
 290 40 269 49 198 58 c 1
 198 78 l 1
 217 77 238 75 256 74 c 0
 278 72 296 72 306 72 c 0
 329 72 337 78 337 94 c 2
 337 366 l 1
 334 366 l 1
 135 366 l 1
 135 -204 l 1
 113 -216 81 -227 54 -233 c 1
 54 354 l 1
 13 398 l 1
 36 411 87 436 114 446 c 1xdf
296 572 m 0
 296 542 273 518 243 518 c 0
 213 518 190 542 190 572 c 0
 190 602 213 625 243 625 c 0
 273 625 296 602 296 572 c 0
EndSplineSet
EndChar

StartChar: h
Encoding: 104 104 33
Width: 529
VWidth: 800
Flags: HW
HStem: -238 106<213 292> 371 41<252 381> 600 16G<119 135>
VStem: 54 81<38 319 358 549> 199 106<-224 -145> 418 84<202 334>
LayerCount: 2
Fore
SplineSet
315 371 m 0
 241 371 159 330 135 306 c 1
 135 38 l 1
 266 43 418 132 418 270 c 0
 418 352 365 371 315 371 c 0
135 616 m 1
 135 358 l 1
 221 388 287 406 335 411 c 0
 344 412 353 412 362 412 c 0
 443 412 502 372 502 282 c 0
 502 157 387 78 286 38 c 0
 217 11 117 -13 54 -21 c 1
 54 549 l 1
 18 589 l 1
 49 599 102 611 135 616 c 1
306 -184 m 0
 306 -214 282 -238 252 -238 c 0
 222 -238 199 -214 199 -184 c 0
 199 -154 222 -131 252 -131 c 0
 282 -131 306 -154 306 -184 c 0
EndSplineSet
EndChar

StartChar: i
Encoding: 105 105 34
Width: 366
VWidth: 800
Flags: HW
HStem: -154 20<54 66> 366 36<157 230> 417 16G<298 315> 437 16G<100 128>
VStem: 106 59<-21 244> 230 82<-138 365>
LayerCount: 2
Fore
SplineSet
166 294 m 1
 166 -18 l 1
 150 -27 126 -35 106 -39 c 1
 106 244 l 1
 80 274 l 1
 103 281 142 291 166 294 c 1
114 453 m 1
 157 402 l 1
 214 402 l 1
 250 415 280 425 316 433 c 1
 314 415 312 370 312 332 c 2
 312 -133 l 2
 312 -192 297 -216 199 -226 c 1
 199 -225 199 -225 199 -224 c 0
 185 -171 184 -170 54 -154 c 1
 54 -134 l 1
 58 -134 62 -134 66 -134 c 0
 112 -136 186 -140 202 -140 c 0
 224 -140 230 -134 230 -118 c 2
 230 366 l 1
 38 366 l 2
 32 366 29 368 29 371 c 0
 29 375 33 382 44 392 c 0
 57 404 86 431 114 453 c 1
EndSplineSet
EndChar

StartChar: j
Encoding: 106 106 35
Width: 560
VWidth: 800
Flags: HW
HStem: 366 36<163 246 327 517> 452 16G<92 121>
VStem: 246 81<-207 366>
LayerCount: 2
Fore
SplineSet
108 468 m 1
 163 402 l 1
 429 402 l 2
 452 402 519 407 535 409 c 1
 518 356 l 1
 498 362 449 366 428 366 c 2
 327 366 l 1
 327 -204 l 1
 305 -216 273 -227 246 -233 c 1
 246 366 l 1
 10 366 l 2
 4 366 -2 367 -2 370 c 0
 -2 373 3 380 13 389 c 0
 30 404 76 443 108 468 c 1
EndSplineSet
EndChar

StartChar: k
Encoding: 107 107 36
Width: 189
VWidth: 800
Flags: HW
HStem: 417 16G<119 135> 523 97<2 75 115 187>
VStem: -10 97<535 608> 54 81<5 366> 103 96<535 609>
LayerCount: 2
Fore
SplineSet
135 433 m 1xd0
 135 8 l 1
 113 -4 81 -15 54 -21 c 1
 54 366 l 1
 18 406 l 1
 49 416 102 428 135 433 c 1xd0
199 572 m 0xc8
 199 546 177 523 151 523 c 0
 125 523 103 546 103 572 c 0
 103 598 125 620 151 620 c 0
 177 620 199 598 199 572 c 0xc8
87 572 m 0xe0
 87 546 64 523 38 523 c 0
 12 523 -10 546 -10 572 c 0
 -10 598 12 620 38 620 c 0
 64 620 87 598 87 572 c 0xe0
EndSplineSet
EndChar

StartChar: l
Encoding: 108 108 37
Width: 189
VWidth: 800
Flags: HW
HStem: 417 16G<119 135>
VStem: 54 81<5 366>
LayerCount: 2
Fore
SplineSet
95 -254 m 0
 93 -254 92 -252 84 -236 c 0
 74 -214 43 -150 25 -108 c 1
 37 -108 l 1
 95 -137 l 1
 153 -108 l 1
 165 -108 l 1
 147 -150 116 -214 106 -236 c 0
 98 -252 97 -254 95 -254 c 0
135 433 m 1
 135 8 l 1
 113 -4 81 -15 54 -21 c 1
 54 366 l 1
 18 406 l 1
 49 416 102 428 135 433 c 1
EndSplineSet
EndChar

StartChar: m
Encoding: 109 109 38
Width: 189
VWidth: 800
Flags: HW
HStem: -238 106<56 134> 417 16G<119 135>
VStem: 42 106<-224 -145> 54 81<5 366>
LayerCount: 2
Fore
SplineSet
148 -184 m 0xe0
 148 -214 125 -238 95 -238 c 0
 65 -238 42 -214 42 -184 c 0
 42 -154 65 -131 95 -131 c 0
 125 -131 148 -154 148 -184 c 0xe0
135 433 m 1xd0
 135 8 l 1
 113 -4 81 -15 54 -21 c 1
 54 366 l 1
 18 406 l 1
 49 416 102 428 135 433 c 1xd0
EndSplineSet
EndChar

StartChar: n
Encoding: 110 110 39
Width: 189
VWidth: 800
Flags: HW
HStem: 417 16G<119 135>
VStem: 54 81<-207 366>
LayerCount: 2
Fore
SplineSet
18 406 m 1
 49 416 102 428 135 433 c 1
 135 -204 l 1
 113 -216 81 -227 54 -233 c 1
 54 366 l 1
 18 406 l 1
EndSplineSet
EndChar

StartChar: o
Encoding: 111 111 40
Width: 463
VWidth: 800
Flags: HW
HStem: 165 106<145 224> 366 36<181 327> 417 16G<395 412> 452 16G<110 139>
VStem: 131 106<179 258> 328 81<5 365>
LayerCount: 2
Fore
SplineSet
238 218 m 0
 238 188 215 165 185 165 c 0
 155 165 131 188 131 218 c 0
 131 248 155 271 185 271 c 0
 215 271 238 248 238 218 c 0
126 468 m 1
 181 402 l 1
 310 402 l 1
 346 415 377 425 413 433 c 1
 411 415 409 370 409 332 c 2
 409 8 l 1
 387 -4 355 -15 328 -21 c 1
 328 366 l 1
 27 366 l 2
 21 366 16 367 16 370 c 0
 16 373 20 380 30 389 c 0
 47 404 94 443 126 468 c 1
EndSplineSet
EndChar

StartChar: p
Encoding: 112 112 41
Width: 422
VWidth: 800
Flags: HW
HStem: 366 36<141 287> 417 16G<355 372> 433 16G<100 123>
VStem: 54 81<5 356> 287 82<-207 365>
LayerCount: 2
Fore
SplineSet
135 366 m 1xb8
 135 8 l 1
 113 -4 81 -15 54 -21 c 1
 54 356 l 1
 13 401 l 1
 36 414 87 439 114 449 c 1
 141 402 l 1
 270 402 l 1
 306 415 337 425 373 433 c 1
 371 415 369 370 369 332 c 2
 369 -204 l 1
 347 -216 314 -227 287 -233 c 1
 287 366 l 1
 135 366 l 1xb8
EndSplineSet
EndChar

StartChar: q
Encoding: 113 113 42
Width: 775
VWidth: 800
Flags: HW
HStem: -22 46<338 452> 366 36<147 199 280 502 584 726> 452 16G<76 105 259 289 583 586> 486 17G<563 578> 497 35<330 572>
VStem: 199 81<81 366> 502 82<55 366>
LayerCount: 2
Fore
SplineSet
92 468 m 1xe6
 147 402 l 1
 638 402 l 2
 661 402 730 407 746 409 c 1
 727 356 l 1
 707 362 659 366 638 366 c 0
 620 366 602 366 584 366 c 1
 584 55 l 1
 618 10 l 1
 592 -3 554 -13 520 -19 c 1
 510 15 l 1
 490 7 454 -5 428 -12 c 0
 401 -19 375 -22 352 -22 c 0
 259 -22 199 35 199 137 c 2
 199 366 l 1
 130 366 63 366 -6 366 c 0
 -12 366 -17 367 -17 370 c 0
 -17 373 -13 380 -3 389 c 0
 14 404 60 443 92 468 c 1xe6
275 598 m 1
 330 532 l 1
 484 532 l 2xee
 507 532 575 536 591 538 c 1
 573 486 l 1xf6
 553 492 505 497 484 497 c 2
 177 497 l 2xee
 171 497 166 498 166 501 c 0
 166 504 170 509 180 518 c 0
 197 533 243 573 275 598 c 1
502 62 m 1
 502 366 l 1
 428 366 354 366 280 366 c 1
 280 160 l 2
 280 78 318 24 414 24 c 0
 438 24 460 27 502 62 c 1
EndSplineSet
EndChar

StartChar: r
Encoding: 114 114 43
Width: 501
VWidth: 800
Flags: HW
HStem: -0 36<136 451> 367 36<141 443> 432 16G<100 123>
VStem: 54 81<-37 -0 36 356>
LayerCount: 2
Fore
SplineSet
113 448 m 1
 141 403 l 1
 356 403 l 2
 379 403 447 408 463 409 c 1
 444 356 l 1
 424 362 376 367 355 367 c 2
 136 367 l 1
 136 36 l 1
 363 36 l 2
 386 36 454 41 470 42 c 1
 452 -11 l 1
 432 -5 384 0 363 0 c 2
 136 -0 l 1
 136 -34 l 1
 114 -46 81 -57 54 -63 c 1
 54 356 l 1
 13 401 l 1
 36 414 86 438 113 448 c 1
EndSplineSet
EndChar

StartChar: s
Encoding: 115 115 44
Width: 189
VWidth: 800
Flags: HW
HStem: 417 16G<119 135>
VStem: 54 81<5 366>
LayerCount: 2
Fore
SplineSet
135 433 m 1
 135 8 l 1
 113 -4 81 -15 54 -21 c 1
 54 366 l 1
 18 406 l 1
 49 416 102 428 135 433 c 1
EndSplineSet
EndChar

StartChar: t
Encoding: 116 116 45
Width: 551
VWidth: 800
Flags: HW
HStem: -10 40<215 353> 155 106<233 312> 377 34<205 350> 438 16G<76 148>
VStem: 34 82<124 280> 219 106<169 248> 429 90<131 297>
LayerCount: 2
Fore
SplineSet
277 377 m 0
 173 377 117 293 117 202 c 0
 117 75 225 30 290 30 c 0
 360 30 429 83 429 206 c 0
 429 350 335 377 277 377 c 0
124 454 m 1
 173 429 245 411 312 411 c 2
 346 411 l 2
 432 411 519 349 519 221 c 0
 519 115 460 42 376 12 c 0
 340 -1 284 -10 243 -10 c 0
 123 -10 34 74 34 196 c 0
 34 282 78 349 159 379 c 1
 124 382 70 397 38 410 c 1
 38 426 l 1
 124 454 l 1
326 209 m 0
 326 179 303 155 273 155 c 0
 243 155 219 179 219 209 c 0
 219 239 243 262 273 262 c 0
 303 262 326 239 326 209 c 0
EndSplineSet
EndChar

StartChar: u
Encoding: 117 117 46
Width: 189
VWidth: 800
Flags: HW
HStem: 417 16G<119 135> 518 106<56 134>
VStem: 42 106<532 611> 54 81<-207 366>
LayerCount: 2
Fore
SplineSet
148 572 m 0xe0
 148 542 125 518 95 518 c 0
 65 518 42 542 42 572 c 0
 42 602 65 625 95 625 c 0
 125 625 148 602 148 572 c 0xe0
135 433 m 1xd0
 135 -204 l 1
 113 -216 81 -227 54 -233 c 1
 54 366 l 1
 18 406 l 1
 49 416 102 428 135 433 c 1xd0
EndSplineSet
EndChar

StartChar: v
Encoding: 118 118 47
Width: 529
VWidth: 800
Flags: HW
HStem: 371 41<252 381> 600 16G<119 135>
VStem: 54 81<38 319 358 549> 418 84<202 334>
LayerCount: 2
Fore
SplineSet
262 -254 m 0
 260 -254 259 -253 251 -237 c 0
 241 -215 210 -151 192 -109 c 1
 204 -109 l 1
 262 -138 l 1
 320 -109 l 1
 332 -109 l 1
 314 -151 283 -215 273 -237 c 0
 265 -253 264 -254 262 -254 c 0
315 371 m 0
 241 371 159 330 135 306 c 1
 135 38 l 1
 266 43 418 132 418 270 c 0
 418 352 365 371 315 371 c 0
135 616 m 1
 135 358 l 1
 221 388 287 406 335 411 c 0
 344 412 353 412 362 412 c 0
 443 412 502 372 502 282 c 0
 502 157 387 78 286 38 c 0
 217 11 117 -13 54 -21 c 1
 54 549 l 1
 18 589 l 1
 49 599 102 611 135 616 c 1
EndSplineSet
EndChar

StartChar: w
Encoding: 119 119 48
Width: 637
VWidth: 800
Flags: HW
HStem: -22 46<338 452> 366 36<147 199 280 502> 417 16G<570 587> 452 16G<76 105>
VStem: 199 81<81 366> 502 82<-207 13 49 365>
LayerCount: 2
Fore
SplineSet
92 468 m 1
 147 402 l 1
 260 402 373 402 486 402 c 1
 522 415 552 425 588 433 c 1
 586 415 584 370 584 332 c 2
 584 -204 l 1
 562 -216 529 -227 502 -233 c 1
 502 13 l 1
 481 5 452 -6 428 -12 c 0
 401 -19 375 -22 352 -22 c 0
 259 -22 199 35 199 137 c 2
 199 366 l 1
 -6 366 l 2
 -12 366 -17 367 -17 370 c 0
 -17 373 -13 380 -3 389 c 0
 14 404 60 443 92 468 c 1
280 366 m 1
 280 160 l 2
 280 78 318 24 414 24 c 0
 438 24 460 27 502 62 c 1
 502 366 l 1
 280 366 l 1
EndSplineSet
EndChar

StartChar: x
Encoding: 120 120 49
Width: 316
VWidth: 800
Flags: HW
HStem: -154 20<4 16> 366 36<106 180> 417 16G<248 264> 437 16G<50 77> 518 106<100 178>
VStem: 86 106<532 611> 181 81<-138 365>
LayerCount: 2
Fore
SplineSet
64 453 m 1xfa
 106 402 l 1
 163 402 l 1
 199 415 230 425 266 433 c 1
 264 415 262 370 262 332 c 2
 262 -133 l 2
 262 -192 247 -216 149 -226 c 1
 149 -225 149 -225 149 -224 c 0
 135 -171 134 -170 4 -154 c 1
 4 -134 l 1
 8 -134 12 -134 16 -134 c 0
 62 -136 136 -140 152 -140 c 0
 174 -140 181 -134 181 -118 c 2
 181 366 l 1
 -12 366 l 2
 -18 366 -22 368 -22 371 c 0
 -22 375 -17 382 -6 392 c 0
 7 404 36 431 64 453 c 1xfa
192 572 m 0xfc
 192 542 169 518 139 518 c 0
 109 518 86 542 86 572 c 0
 86 602 109 625 139 625 c 0
 169 625 192 602 192 572 c 0xfc
EndSplineSet
EndChar

StartChar: y
Encoding: 121 121 50
Width: 508
VWidth: 800
Flags: HW
HStem: 365 36<141 256 338 459> 430 16G<100 123>
VStem: 54 81<-207 354> 256 82<5 365>
LayerCount: 2
Fore
SplineSet
114 446 m 1
 141 401 l 1
 371 401 l 2
 394 401 462 405 478 407 c 1
 460 354 l 1
 440 360 391 365 370 365 c 2
 338 365 l 1
 338 8 l 1
 316 -4 283 -15 256 -21 c 1
 256 365 l 1
 135 365 l 1
 135 -204 l 1
 113 -216 81 -227 54 -233 c 1
 54 354 l 1
 13 398 l 1
 36 411 87 436 114 446 c 1
EndSplineSet
EndChar

StartChar: z
Encoding: 122 122 51
Width: 316
VWidth: 800
Flags: HW
HStem: -154 20<4 16> 366 36<106 180> 417 16G<248 264> 437 16G<50 77>
VStem: 181 81<-138 365>
LayerCount: 2
Fore
SplineSet
64 453 m 1
 106 402 l 1
 163 402 l 1
 199 415 230 425 266 433 c 1
 264 415 262 370 262 332 c 2
 262 -133 l 2
 262 -192 247 -216 149 -226 c 1
 149 -225 149 -225 149 -224 c 0
 135 -171 134 -170 4 -154 c 1
 4 -134 l 1
 8 -134 12 -134 16 -134 c 0
 62 -136 136 -140 152 -140 c 0
 174 -140 181 -134 181 -118 c 2
 181 366 l 1
 -12 366 l 2
 -18 366 -22 368 -22 371 c 0
 -22 375 -17 382 -6 392 c 0
 7 404 36 431 64 453 c 1
EndSplineSet
EndChar

StartChar: zero
Encoding: 48 48 52
Width: 473
VWidth: 800
Flags: HWO
HStem: -13.1807 30.4502<183.261 290.011> 384.77 30.4512<182.272 291>
VStem: 29.4932 69.6465<104.179 300.265> 374.127 69.6465<104.179 300.265>
LayerCount: 2
Fore
SplineSet
236.63671875 384.76953125 m 0
 165.467773438 384.76953125 99.1396484375 318.828125 99.1396484375 201.01953125 c 0
 99.1396484375 83.2109375 166.063476562 17.26953125 236.63671875 17.26953125 c 0
 307.209960938 17.26953125 374.126953125 83.2109375 374.126953125 201.01953125 c 0
 374.126953125 318.828125 307.805664062 384.76953125 236.63671875 384.76953125 c 0
236.63671875 415.220703125 m 0
 343.927734375 415.220703125 443.7734375 335.168945312 443.7734375 201.01953125 c 0
 443.7734375 66.8701171875 339.057617188 -13.1806640625 236.63671875 -13.1806640625 c 0
 134.215820312 -13.1806640625 29.4931640625 66.8701171875 29.4931640625 201.01953125 c 0
 29.4931640625 335.168945312 129.345703125 415.220703125 236.63671875 415.220703125 c 0
EndSplineSet
EndChar

StartChar: one
Encoding: 49 49 53
Width: 270
VWidth: 800
Flags: HW
HStem: 0 24<24 94 177 247> 378 24<24 94 177 247>
VStem: 95 81<25 378>
LayerCount: 2
Fore
SplineSet
24 0 m 1
 24 24 l 1
 63 24 l 2
 87 24 95 28 95 45 c 2
 95 358 l 2
 95 375 87 378 63 378 c 2
 24 378 l 1
 24 402 l 1
 247 402 l 1
 247 378 l 1
 209 378 l 2
 185 378 176 375 176 358 c 2
 176 45 l 2
 176 28 185 24 209 24 c 2
 247 24 l 1
 247 0 l 1
 24 0 l 1
EndSplineSet
EndChar

StartChar: two
Encoding: 50 50 54
Width: 335
VWidth: 800
Flags: HW
HStem: 0 65<91 304> 362 52<91 184>
VStem: 216 78<248 332>
LayerCount: 2
Fore
SplineSet
163 414 m 0
 235 414 294 369 294 302 c 0
 294 250 259 223 201 178 c 0
 193 172 186 164 177 158 c 0
 127 118 104 96 91 65 c 1
 277 65 l 2
 296 65 300 71 307 89 c 1
 325 89 l 1
 307 20 l 2
 305 11 304 7 303 0 c 1
 18 0 l 1
 18 17 l 1
 32 64 63 101 140 166 c 0
 182 201 216 234 216 281 c 0
 216 330 179 362 132 362 c 0
 95 362 59 343 48 313 c 1
 24 313 l 1
 39 374 94 414 163 414 c 0
EndSplineSet
EndChar

StartChar: three
Encoding: 51 51 55
Width: 325
VWidth: 800
Flags: HW
HStem: -243 19<9 27> 161 18<72 97> 365 49<79 157>
VStem: 185 82<250 338> 208 82<-54 80>
LayerCount: 2
Fore
SplineSet
15 343 m 1xf0
 46 383 94 414 150 414 c 0
 218 414 266 370 266 309 c 0xf0
 266 257 230 217 183 190 c 1
 244 172 290 121 290 33 c 0
 290 -105 178 -209 12 -243 c 1
 2 -224 l 1
 136 -182 208 -97 208 4 c 0xe8
 208 94 150 150 72 161 c 1
 72 178 l 1
 127 193 185 231 185 290 c 0
 185 339 146 365 109 365 c 0
 79 365 51 347 34 330 c 1
 15 343 l 1xf0
EndSplineSet
EndChar

